G04 #@! TF.GenerationSoftware,KiCad,Pcbnew,5.1.2-f72e74a~84~ubuntu16.04.1*
G04 #@! TF.CreationDate,2019-06-21T14:24:11+02:00*
G04 #@! TF.ProjectId,microstepper,6d696372-6f73-4746-9570-7065722e6b69,rev?*
G04 #@! TF.SameCoordinates,Original*
G04 #@! TF.FileFunction,Legend,Top*
G04 #@! TF.FilePolarity,Positive*
%FSLAX46Y46*%
G04 Gerber Fmt 4.6, Leading zero omitted, Abs format (unit mm)*
G04 Created by KiCad (PCBNEW 5.1.2-f72e74a~84~ubuntu16.04.1) date 2019-06-21 14:24:11*
%MOMM*%
%LPD*%
G04 APERTURE LIST*
%ADD10C,0.150000*%
%ADD11C,0.120000*%
G04 APERTURE END LIST*
D10*
X34843980Y-24966371D02*
X34177314Y-24966371D01*
X34272552Y-24966371D02*
X34224933Y-24918752D01*
X34177314Y-24823514D01*
X34177314Y-24680657D01*
X34224933Y-24585419D01*
X34320171Y-24537800D01*
X34843980Y-24537800D01*
X34320171Y-24537800D02*
X34224933Y-24490180D01*
X34177314Y-24394942D01*
X34177314Y-24252085D01*
X34224933Y-24156847D01*
X34320171Y-24109228D01*
X34843980Y-24109228D01*
X34843980Y-23490180D02*
X34796361Y-23585419D01*
X34748742Y-23633038D01*
X34653504Y-23680657D01*
X34367790Y-23680657D01*
X34272552Y-23633038D01*
X34224933Y-23585419D01*
X34177314Y-23490180D01*
X34177314Y-23347323D01*
X34224933Y-23252085D01*
X34272552Y-23204466D01*
X34367790Y-23156847D01*
X34653504Y-23156847D01*
X34748742Y-23204466D01*
X34796361Y-23252085D01*
X34843980Y-23347323D01*
X34843980Y-23490180D01*
X34177314Y-22871133D02*
X34177314Y-22490180D01*
X33843980Y-22728276D02*
X34701123Y-22728276D01*
X34796361Y-22680657D01*
X34843980Y-22585419D01*
X34843980Y-22490180D01*
X34843980Y-22013990D02*
X34796361Y-22109228D01*
X34748742Y-22156847D01*
X34653504Y-22204466D01*
X34367790Y-22204466D01*
X34272552Y-22156847D01*
X34224933Y-22109228D01*
X34177314Y-22013990D01*
X34177314Y-21871133D01*
X34224933Y-21775895D01*
X34272552Y-21728276D01*
X34367790Y-21680657D01*
X34653504Y-21680657D01*
X34748742Y-21728276D01*
X34796361Y-21775895D01*
X34843980Y-21871133D01*
X34843980Y-22013990D01*
X34843980Y-21252085D02*
X34177314Y-21252085D01*
X34367790Y-21252085D02*
X34272552Y-21204466D01*
X34224933Y-21156847D01*
X34177314Y-21061609D01*
X34177314Y-20966371D01*
X20664514Y-49566057D02*
X21664514Y-49566057D01*
X20712133Y-49566057D02*
X20664514Y-49470819D01*
X20664514Y-49280342D01*
X20712133Y-49185104D01*
X20759752Y-49137485D01*
X20854990Y-49089866D01*
X21140704Y-49089866D01*
X21235942Y-49137485D01*
X21283561Y-49185104D01*
X21331180Y-49280342D01*
X21331180Y-49470819D01*
X21283561Y-49566057D01*
X21331180Y-48518438D02*
X21283561Y-48613676D01*
X21235942Y-48661295D01*
X21140704Y-48708914D01*
X20854990Y-48708914D01*
X20759752Y-48661295D01*
X20712133Y-48613676D01*
X20664514Y-48518438D01*
X20664514Y-48375580D01*
X20712133Y-48280342D01*
X20759752Y-48232723D01*
X20854990Y-48185104D01*
X21140704Y-48185104D01*
X21235942Y-48232723D01*
X21283561Y-48280342D01*
X21331180Y-48375580D01*
X21331180Y-48518438D01*
X20664514Y-47851771D02*
X21331180Y-47661295D01*
X20854990Y-47470819D01*
X21331180Y-47280342D01*
X20664514Y-47089866D01*
X21283561Y-46327961D02*
X21331180Y-46423200D01*
X21331180Y-46613676D01*
X21283561Y-46708914D01*
X21188323Y-46756533D01*
X20807371Y-46756533D01*
X20712133Y-46708914D01*
X20664514Y-46613676D01*
X20664514Y-46423200D01*
X20712133Y-46327961D01*
X20807371Y-46280342D01*
X20902609Y-46280342D01*
X20997847Y-46756533D01*
X21331180Y-45851771D02*
X20664514Y-45851771D01*
X20854990Y-45851771D02*
X20759752Y-45804152D01*
X20712133Y-45756533D01*
X20664514Y-45661295D01*
X20664514Y-45566057D01*
X21331180Y-43947009D02*
X21331180Y-44518438D01*
X21331180Y-44232723D02*
X20331180Y-44232723D01*
X20474038Y-44327961D01*
X20569276Y-44423200D01*
X20616895Y-44518438D01*
X20426419Y-43566057D02*
X20378800Y-43518438D01*
X20331180Y-43423200D01*
X20331180Y-43185104D01*
X20378800Y-43089866D01*
X20426419Y-43042247D01*
X20521657Y-42994628D01*
X20616895Y-42994628D01*
X20759752Y-43042247D01*
X21331180Y-43613676D01*
X21331180Y-42994628D01*
X20664514Y-42661295D02*
X21331180Y-42423200D01*
X20664514Y-42185104D01*
X38425380Y-49326561D02*
X37758714Y-49326561D01*
X37949190Y-49326561D02*
X37853952Y-49278942D01*
X37806333Y-49231323D01*
X37758714Y-49136085D01*
X37758714Y-49040847D01*
X38377761Y-48755133D02*
X38425380Y-48659895D01*
X38425380Y-48469419D01*
X38377761Y-48374180D01*
X38282523Y-48326561D01*
X38234904Y-48326561D01*
X38139666Y-48374180D01*
X38092047Y-48469419D01*
X38092047Y-48612276D01*
X38044428Y-48707514D01*
X37949190Y-48755133D01*
X37901571Y-48755133D01*
X37806333Y-48707514D01*
X37758714Y-48612276D01*
X37758714Y-48469419D01*
X37806333Y-48374180D01*
X37758714Y-47469419D02*
X38425380Y-47469419D01*
X37377761Y-47707514D02*
X38092047Y-47945609D01*
X38092047Y-47326561D01*
X37853952Y-46802752D02*
X37806333Y-46897990D01*
X37758714Y-46945609D01*
X37663476Y-46993228D01*
X37615857Y-46993228D01*
X37520619Y-46945609D01*
X37473000Y-46897990D01*
X37425380Y-46802752D01*
X37425380Y-46612276D01*
X37473000Y-46517038D01*
X37520619Y-46469419D01*
X37615857Y-46421800D01*
X37663476Y-46421800D01*
X37758714Y-46469419D01*
X37806333Y-46517038D01*
X37853952Y-46612276D01*
X37853952Y-46802752D01*
X37901571Y-46897990D01*
X37949190Y-46945609D01*
X38044428Y-46993228D01*
X38234904Y-46993228D01*
X38330142Y-46945609D01*
X38377761Y-46897990D01*
X38425380Y-46802752D01*
X38425380Y-46612276D01*
X38377761Y-46517038D01*
X38330142Y-46469419D01*
X38234904Y-46421800D01*
X38044428Y-46421800D01*
X37949190Y-46469419D01*
X37901571Y-46517038D01*
X37853952Y-46612276D01*
X37425380Y-45517038D02*
X37425380Y-45993228D01*
X37901571Y-46040847D01*
X37853952Y-45993228D01*
X37806333Y-45897990D01*
X37806333Y-45659895D01*
X37853952Y-45564657D01*
X37901571Y-45517038D01*
X37996809Y-45469419D01*
X38234904Y-45469419D01*
X38330142Y-45517038D01*
X38377761Y-45564657D01*
X38425380Y-45659895D01*
X38425380Y-45897990D01*
X38377761Y-45993228D01*
X38330142Y-46040847D01*
D11*
X31384800Y-49751200D02*
X35264800Y-49751200D01*
X36434800Y-45281200D02*
X35384800Y-45281200D01*
X36434800Y-47781200D02*
X36434800Y-45281200D01*
X31264800Y-45281200D02*
X31264800Y-44291200D01*
X30214800Y-45281200D02*
X31264800Y-45281200D01*
X30214800Y-47781200D02*
X30214800Y-45281200D01*
X31505600Y-20352800D02*
X27625600Y-20352800D01*
X26455600Y-24822800D02*
X27505600Y-24822800D01*
X26455600Y-22322800D02*
X26455600Y-24822800D01*
X31625600Y-24822800D02*
X31625600Y-25812800D01*
X32675600Y-24822800D02*
X31625600Y-24822800D01*
X32675600Y-22322800D02*
X32675600Y-24822800D01*
X23901200Y-49751200D02*
X25781200Y-49751200D01*
X26951200Y-45281200D02*
X25901200Y-45281200D01*
X26951200Y-47781200D02*
X26951200Y-45281200D01*
X23781200Y-45281200D02*
X23781200Y-44291200D01*
X22731200Y-45281200D02*
X23781200Y-45281200D01*
X22731200Y-47781200D02*
X22731200Y-45281200D01*
D10*
X27605000Y-27005000D02*
X26005000Y-27005000D01*
X27605000Y-34305000D02*
X33355000Y-34305000D01*
X27605000Y-26655000D02*
X33355000Y-26655000D01*
X27605000Y-34305000D02*
X27605000Y-33855000D01*
X33355000Y-34305000D02*
X33355000Y-33855000D01*
X33355000Y-26655000D02*
X33355000Y-27105000D01*
X27605000Y-26655000D02*
X27605000Y-27005000D01*
D11*
X26045000Y-39624000D02*
X26045000Y-43074000D01*
X26045000Y-39624000D02*
X26045000Y-37674000D01*
X34915000Y-39624000D02*
X34915000Y-41574000D01*
X34915000Y-39624000D02*
X34915000Y-37674000D01*
X37540000Y-28709252D02*
X37540000Y-28186748D01*
X36120000Y-28709252D02*
X36120000Y-28186748D01*
X25348000Y-38107252D02*
X25348000Y-37584748D01*
X23928000Y-38107252D02*
X23928000Y-37584748D01*
D10*
X36166466Y-43851580D02*
X36166466Y-44565866D01*
X36118847Y-44708723D01*
X36023609Y-44803961D01*
X35880752Y-44851580D01*
X35785514Y-44851580D01*
X36547419Y-43851580D02*
X37166466Y-43851580D01*
X36833133Y-44232533D01*
X36975990Y-44232533D01*
X37071228Y-44280152D01*
X37118847Y-44327771D01*
X37166466Y-44423009D01*
X37166466Y-44661104D01*
X37118847Y-44756342D01*
X37071228Y-44803961D01*
X36975990Y-44851580D01*
X36690276Y-44851580D01*
X36595038Y-44803961D01*
X36547419Y-44756342D01*
X24914266Y-22312380D02*
X24914266Y-23026666D01*
X24866647Y-23169523D01*
X24771409Y-23264761D01*
X24628552Y-23312380D01*
X24533314Y-23312380D01*
X25342838Y-22407619D02*
X25390457Y-22360000D01*
X25485695Y-22312380D01*
X25723790Y-22312380D01*
X25819028Y-22360000D01*
X25866647Y-22407619D01*
X25914266Y-22502857D01*
X25914266Y-22598095D01*
X25866647Y-22740952D01*
X25295219Y-23312380D01*
X25914266Y-23312380D01*
X27327266Y-43927780D02*
X27327266Y-44642066D01*
X27279647Y-44784923D01*
X27184409Y-44880161D01*
X27041552Y-44927780D01*
X26946314Y-44927780D01*
X28327266Y-44927780D02*
X27755838Y-44927780D01*
X28041552Y-44927780D02*
X28041552Y-43927780D01*
X27946314Y-44070638D01*
X27851076Y-44165876D01*
X27755838Y-44213495D01*
X34036095Y-25842980D02*
X34036095Y-26652504D01*
X34083714Y-26747742D01*
X34131333Y-26795361D01*
X34226571Y-26842980D01*
X34417047Y-26842980D01*
X34512285Y-26795361D01*
X34559904Y-26747742D01*
X34607523Y-26652504D01*
X34607523Y-25842980D01*
X34988476Y-25842980D02*
X35607523Y-25842980D01*
X35274190Y-26223933D01*
X35417047Y-26223933D01*
X35512285Y-26271552D01*
X35559904Y-26319171D01*
X35607523Y-26414409D01*
X35607523Y-26652504D01*
X35559904Y-26747742D01*
X35512285Y-26795361D01*
X35417047Y-26842980D01*
X35131333Y-26842980D01*
X35036095Y-26795361D01*
X34988476Y-26747742D01*
X24652380Y-42671904D02*
X25461904Y-42671904D01*
X25557142Y-42624285D01*
X25604761Y-42576666D01*
X25652380Y-42481428D01*
X25652380Y-42290952D01*
X25604761Y-42195714D01*
X25557142Y-42148095D01*
X25461904Y-42100476D01*
X24652380Y-42100476D01*
X25652380Y-41100476D02*
X25652380Y-41671904D01*
X25652380Y-41386190D02*
X24652380Y-41386190D01*
X24795238Y-41481428D01*
X24890476Y-41576666D01*
X24938095Y-41671904D01*
X36714133Y-26239742D02*
X36666514Y-26287361D01*
X36523657Y-26334980D01*
X36428419Y-26334980D01*
X36285561Y-26287361D01*
X36190323Y-26192123D01*
X36142704Y-26096885D01*
X36095085Y-25906409D01*
X36095085Y-25763552D01*
X36142704Y-25573076D01*
X36190323Y-25477838D01*
X36285561Y-25382600D01*
X36428419Y-25334980D01*
X36523657Y-25334980D01*
X36666514Y-25382600D01*
X36714133Y-25430219D01*
X37571276Y-25668314D02*
X37571276Y-26334980D01*
X37333180Y-25287361D02*
X37095085Y-26001647D01*
X37714133Y-26001647D01*
X24420533Y-35663142D02*
X24372914Y-35710761D01*
X24230057Y-35758380D01*
X24134819Y-35758380D01*
X23991961Y-35710761D01*
X23896723Y-35615523D01*
X23849104Y-35520285D01*
X23801485Y-35329809D01*
X23801485Y-35186952D01*
X23849104Y-34996476D01*
X23896723Y-34901238D01*
X23991961Y-34806000D01*
X24134819Y-34758380D01*
X24230057Y-34758380D01*
X24372914Y-34806000D01*
X24420533Y-34853619D01*
X25372914Y-35758380D02*
X24801485Y-35758380D01*
X25087200Y-35758380D02*
X25087200Y-34758380D01*
X24991961Y-34901238D01*
X24896723Y-34996476D01*
X24801485Y-35044095D01*
M02*
