G04 #@! TF.GenerationSoftware,KiCad,Pcbnew,5.1.2-f72e74a~84~ubuntu16.04.1*
G04 #@! TF.CreationDate,2019-06-21T14:24:11+02:00*
G04 #@! TF.ProjectId,microstepper,6d696372-6f73-4746-9570-7065722e6b69,rev?*
G04 #@! TF.SameCoordinates,Original*
G04 #@! TF.FileFunction,Copper,L1,Top*
G04 #@! TF.FilePolarity,Positive*
%FSLAX46Y46*%
G04 Gerber Fmt 4.6, Leading zero omitted, Abs format (unit mm)*
G04 Created by KiCad (PCBNEW 5.1.2-f72e74a~84~ubuntu16.04.1) date 2019-06-21 14:24:11*
%MOMM*%
%LPD*%
G04 APERTURE LIST*
%ADD10C,0.100000*%
%ADD11C,1.200000*%
%ADD12C,0.600000*%
%ADD13R,1.750000X0.450000*%
%ADD14C,1.150000*%
%ADD15C,0.800000*%
%ADD16C,0.400000*%
%ADD17C,0.250000*%
%ADD18C,0.200000*%
%ADD19C,0.254000*%
G04 APERTURE END LIST*
D10*
G36*
X36499305Y-48042404D02*
G01*
X36523573Y-48046004D01*
X36547372Y-48051965D01*
X36570471Y-48060230D01*
X36592650Y-48070720D01*
X36613693Y-48083332D01*
X36633399Y-48097947D01*
X36651577Y-48114423D01*
X36668053Y-48132601D01*
X36682668Y-48152307D01*
X36695280Y-48173350D01*
X36705770Y-48195529D01*
X36714035Y-48218628D01*
X36719996Y-48242427D01*
X36723596Y-48266695D01*
X36724800Y-48291199D01*
X36724800Y-49591201D01*
X36723596Y-49615705D01*
X36719996Y-49639973D01*
X36714035Y-49663772D01*
X36705770Y-49686871D01*
X36695280Y-49709050D01*
X36682668Y-49730093D01*
X36668053Y-49749799D01*
X36651577Y-49767977D01*
X36633399Y-49784453D01*
X36613693Y-49799068D01*
X36592650Y-49811680D01*
X36570471Y-49822170D01*
X36547372Y-49830435D01*
X36523573Y-49836396D01*
X36499305Y-49839996D01*
X36474801Y-49841200D01*
X35774799Y-49841200D01*
X35750295Y-49839996D01*
X35726027Y-49836396D01*
X35702228Y-49830435D01*
X35679129Y-49822170D01*
X35656950Y-49811680D01*
X35635907Y-49799068D01*
X35616201Y-49784453D01*
X35598023Y-49767977D01*
X35581547Y-49749799D01*
X35566932Y-49730093D01*
X35554320Y-49709050D01*
X35543830Y-49686871D01*
X35535565Y-49663772D01*
X35529604Y-49639973D01*
X35526004Y-49615705D01*
X35524800Y-49591201D01*
X35524800Y-48291199D01*
X35526004Y-48266695D01*
X35529604Y-48242427D01*
X35535565Y-48218628D01*
X35543830Y-48195529D01*
X35554320Y-48173350D01*
X35566932Y-48152307D01*
X35581547Y-48132601D01*
X35598023Y-48114423D01*
X35616201Y-48097947D01*
X35635907Y-48083332D01*
X35656950Y-48070720D01*
X35679129Y-48060230D01*
X35702228Y-48051965D01*
X35726027Y-48046004D01*
X35750295Y-48042404D01*
X35774799Y-48041200D01*
X36474801Y-48041200D01*
X36499305Y-48042404D01*
X36499305Y-48042404D01*
G37*
D11*
X36124800Y-48941200D03*
D10*
G36*
X30899305Y-48042404D02*
G01*
X30923573Y-48046004D01*
X30947372Y-48051965D01*
X30970471Y-48060230D01*
X30992650Y-48070720D01*
X31013693Y-48083332D01*
X31033399Y-48097947D01*
X31051577Y-48114423D01*
X31068053Y-48132601D01*
X31082668Y-48152307D01*
X31095280Y-48173350D01*
X31105770Y-48195529D01*
X31114035Y-48218628D01*
X31119996Y-48242427D01*
X31123596Y-48266695D01*
X31124800Y-48291199D01*
X31124800Y-49591201D01*
X31123596Y-49615705D01*
X31119996Y-49639973D01*
X31114035Y-49663772D01*
X31105770Y-49686871D01*
X31095280Y-49709050D01*
X31082668Y-49730093D01*
X31068053Y-49749799D01*
X31051577Y-49767977D01*
X31033399Y-49784453D01*
X31013693Y-49799068D01*
X30992650Y-49811680D01*
X30970471Y-49822170D01*
X30947372Y-49830435D01*
X30923573Y-49836396D01*
X30899305Y-49839996D01*
X30874801Y-49841200D01*
X30174799Y-49841200D01*
X30150295Y-49839996D01*
X30126027Y-49836396D01*
X30102228Y-49830435D01*
X30079129Y-49822170D01*
X30056950Y-49811680D01*
X30035907Y-49799068D01*
X30016201Y-49784453D01*
X29998023Y-49767977D01*
X29981547Y-49749799D01*
X29966932Y-49730093D01*
X29954320Y-49709050D01*
X29943830Y-49686871D01*
X29935565Y-49663772D01*
X29929604Y-49639973D01*
X29926004Y-49615705D01*
X29924800Y-49591201D01*
X29924800Y-48291199D01*
X29926004Y-48266695D01*
X29929604Y-48242427D01*
X29935565Y-48218628D01*
X29943830Y-48195529D01*
X29954320Y-48173350D01*
X29966932Y-48152307D01*
X29981547Y-48132601D01*
X29998023Y-48114423D01*
X30016201Y-48097947D01*
X30035907Y-48083332D01*
X30056950Y-48070720D01*
X30079129Y-48060230D01*
X30102228Y-48051965D01*
X30126027Y-48046004D01*
X30150295Y-48042404D01*
X30174799Y-48041200D01*
X30874801Y-48041200D01*
X30899305Y-48042404D01*
X30899305Y-48042404D01*
G37*
D11*
X30524800Y-48941200D03*
D10*
G36*
X34989503Y-44291922D02*
G01*
X35004064Y-44294082D01*
X35018343Y-44297659D01*
X35032203Y-44302618D01*
X35045510Y-44308912D01*
X35058136Y-44316480D01*
X35069959Y-44325248D01*
X35080866Y-44335134D01*
X35090752Y-44346041D01*
X35099520Y-44357864D01*
X35107088Y-44370490D01*
X35113382Y-44383797D01*
X35118341Y-44397657D01*
X35121918Y-44411936D01*
X35124078Y-44426497D01*
X35124800Y-44441200D01*
X35124800Y-45691200D01*
X35124078Y-45705903D01*
X35121918Y-45720464D01*
X35118341Y-45734743D01*
X35113382Y-45748603D01*
X35107088Y-45761910D01*
X35099520Y-45774536D01*
X35090752Y-45786359D01*
X35080866Y-45797266D01*
X35069959Y-45807152D01*
X35058136Y-45815920D01*
X35045510Y-45823488D01*
X35032203Y-45829782D01*
X35018343Y-45834741D01*
X35004064Y-45838318D01*
X34989503Y-45840478D01*
X34974800Y-45841200D01*
X34674800Y-45841200D01*
X34660097Y-45840478D01*
X34645536Y-45838318D01*
X34631257Y-45834741D01*
X34617397Y-45829782D01*
X34604090Y-45823488D01*
X34591464Y-45815920D01*
X34579641Y-45807152D01*
X34568734Y-45797266D01*
X34558848Y-45786359D01*
X34550080Y-45774536D01*
X34542512Y-45761910D01*
X34536218Y-45748603D01*
X34531259Y-45734743D01*
X34527682Y-45720464D01*
X34525522Y-45705903D01*
X34524800Y-45691200D01*
X34524800Y-44441200D01*
X34525522Y-44426497D01*
X34527682Y-44411936D01*
X34531259Y-44397657D01*
X34536218Y-44383797D01*
X34542512Y-44370490D01*
X34550080Y-44357864D01*
X34558848Y-44346041D01*
X34568734Y-44335134D01*
X34579641Y-44325248D01*
X34591464Y-44316480D01*
X34604090Y-44308912D01*
X34617397Y-44302618D01*
X34631257Y-44297659D01*
X34645536Y-44294082D01*
X34660097Y-44291922D01*
X34674800Y-44291200D01*
X34974800Y-44291200D01*
X34989503Y-44291922D01*
X34989503Y-44291922D01*
G37*
D12*
X34824800Y-45066200D03*
D10*
G36*
X33989503Y-44291922D02*
G01*
X34004064Y-44294082D01*
X34018343Y-44297659D01*
X34032203Y-44302618D01*
X34045510Y-44308912D01*
X34058136Y-44316480D01*
X34069959Y-44325248D01*
X34080866Y-44335134D01*
X34090752Y-44346041D01*
X34099520Y-44357864D01*
X34107088Y-44370490D01*
X34113382Y-44383797D01*
X34118341Y-44397657D01*
X34121918Y-44411936D01*
X34124078Y-44426497D01*
X34124800Y-44441200D01*
X34124800Y-45691200D01*
X34124078Y-45705903D01*
X34121918Y-45720464D01*
X34118341Y-45734743D01*
X34113382Y-45748603D01*
X34107088Y-45761910D01*
X34099520Y-45774536D01*
X34090752Y-45786359D01*
X34080866Y-45797266D01*
X34069959Y-45807152D01*
X34058136Y-45815920D01*
X34045510Y-45823488D01*
X34032203Y-45829782D01*
X34018343Y-45834741D01*
X34004064Y-45838318D01*
X33989503Y-45840478D01*
X33974800Y-45841200D01*
X33674800Y-45841200D01*
X33660097Y-45840478D01*
X33645536Y-45838318D01*
X33631257Y-45834741D01*
X33617397Y-45829782D01*
X33604090Y-45823488D01*
X33591464Y-45815920D01*
X33579641Y-45807152D01*
X33568734Y-45797266D01*
X33558848Y-45786359D01*
X33550080Y-45774536D01*
X33542512Y-45761910D01*
X33536218Y-45748603D01*
X33531259Y-45734743D01*
X33527682Y-45720464D01*
X33525522Y-45705903D01*
X33524800Y-45691200D01*
X33524800Y-44441200D01*
X33525522Y-44426497D01*
X33527682Y-44411936D01*
X33531259Y-44397657D01*
X33536218Y-44383797D01*
X33542512Y-44370490D01*
X33550080Y-44357864D01*
X33558848Y-44346041D01*
X33568734Y-44335134D01*
X33579641Y-44325248D01*
X33591464Y-44316480D01*
X33604090Y-44308912D01*
X33617397Y-44302618D01*
X33631257Y-44297659D01*
X33645536Y-44294082D01*
X33660097Y-44291922D01*
X33674800Y-44291200D01*
X33974800Y-44291200D01*
X33989503Y-44291922D01*
X33989503Y-44291922D01*
G37*
D12*
X33824800Y-45066200D03*
D10*
G36*
X32989503Y-44291922D02*
G01*
X33004064Y-44294082D01*
X33018343Y-44297659D01*
X33032203Y-44302618D01*
X33045510Y-44308912D01*
X33058136Y-44316480D01*
X33069959Y-44325248D01*
X33080866Y-44335134D01*
X33090752Y-44346041D01*
X33099520Y-44357864D01*
X33107088Y-44370490D01*
X33113382Y-44383797D01*
X33118341Y-44397657D01*
X33121918Y-44411936D01*
X33124078Y-44426497D01*
X33124800Y-44441200D01*
X33124800Y-45691200D01*
X33124078Y-45705903D01*
X33121918Y-45720464D01*
X33118341Y-45734743D01*
X33113382Y-45748603D01*
X33107088Y-45761910D01*
X33099520Y-45774536D01*
X33090752Y-45786359D01*
X33080866Y-45797266D01*
X33069959Y-45807152D01*
X33058136Y-45815920D01*
X33045510Y-45823488D01*
X33032203Y-45829782D01*
X33018343Y-45834741D01*
X33004064Y-45838318D01*
X32989503Y-45840478D01*
X32974800Y-45841200D01*
X32674800Y-45841200D01*
X32660097Y-45840478D01*
X32645536Y-45838318D01*
X32631257Y-45834741D01*
X32617397Y-45829782D01*
X32604090Y-45823488D01*
X32591464Y-45815920D01*
X32579641Y-45807152D01*
X32568734Y-45797266D01*
X32558848Y-45786359D01*
X32550080Y-45774536D01*
X32542512Y-45761910D01*
X32536218Y-45748603D01*
X32531259Y-45734743D01*
X32527682Y-45720464D01*
X32525522Y-45705903D01*
X32524800Y-45691200D01*
X32524800Y-44441200D01*
X32525522Y-44426497D01*
X32527682Y-44411936D01*
X32531259Y-44397657D01*
X32536218Y-44383797D01*
X32542512Y-44370490D01*
X32550080Y-44357864D01*
X32558848Y-44346041D01*
X32568734Y-44335134D01*
X32579641Y-44325248D01*
X32591464Y-44316480D01*
X32604090Y-44308912D01*
X32617397Y-44302618D01*
X32631257Y-44297659D01*
X32645536Y-44294082D01*
X32660097Y-44291922D01*
X32674800Y-44291200D01*
X32974800Y-44291200D01*
X32989503Y-44291922D01*
X32989503Y-44291922D01*
G37*
D12*
X32824800Y-45066200D03*
D10*
G36*
X31989503Y-44291922D02*
G01*
X32004064Y-44294082D01*
X32018343Y-44297659D01*
X32032203Y-44302618D01*
X32045510Y-44308912D01*
X32058136Y-44316480D01*
X32069959Y-44325248D01*
X32080866Y-44335134D01*
X32090752Y-44346041D01*
X32099520Y-44357864D01*
X32107088Y-44370490D01*
X32113382Y-44383797D01*
X32118341Y-44397657D01*
X32121918Y-44411936D01*
X32124078Y-44426497D01*
X32124800Y-44441200D01*
X32124800Y-45691200D01*
X32124078Y-45705903D01*
X32121918Y-45720464D01*
X32118341Y-45734743D01*
X32113382Y-45748603D01*
X32107088Y-45761910D01*
X32099520Y-45774536D01*
X32090752Y-45786359D01*
X32080866Y-45797266D01*
X32069959Y-45807152D01*
X32058136Y-45815920D01*
X32045510Y-45823488D01*
X32032203Y-45829782D01*
X32018343Y-45834741D01*
X32004064Y-45838318D01*
X31989503Y-45840478D01*
X31974800Y-45841200D01*
X31674800Y-45841200D01*
X31660097Y-45840478D01*
X31645536Y-45838318D01*
X31631257Y-45834741D01*
X31617397Y-45829782D01*
X31604090Y-45823488D01*
X31591464Y-45815920D01*
X31579641Y-45807152D01*
X31568734Y-45797266D01*
X31558848Y-45786359D01*
X31550080Y-45774536D01*
X31542512Y-45761910D01*
X31536218Y-45748603D01*
X31531259Y-45734743D01*
X31527682Y-45720464D01*
X31525522Y-45705903D01*
X31524800Y-45691200D01*
X31524800Y-44441200D01*
X31525522Y-44426497D01*
X31527682Y-44411936D01*
X31531259Y-44397657D01*
X31536218Y-44383797D01*
X31542512Y-44370490D01*
X31550080Y-44357864D01*
X31558848Y-44346041D01*
X31568734Y-44335134D01*
X31579641Y-44325248D01*
X31591464Y-44316480D01*
X31604090Y-44308912D01*
X31617397Y-44302618D01*
X31631257Y-44297659D01*
X31645536Y-44294082D01*
X31660097Y-44291922D01*
X31674800Y-44291200D01*
X31974800Y-44291200D01*
X31989503Y-44291922D01*
X31989503Y-44291922D01*
G37*
D12*
X31824800Y-45066200D03*
D10*
G36*
X27140105Y-20264004D02*
G01*
X27164373Y-20267604D01*
X27188172Y-20273565D01*
X27211271Y-20281830D01*
X27233450Y-20292320D01*
X27254493Y-20304932D01*
X27274199Y-20319547D01*
X27292377Y-20336023D01*
X27308853Y-20354201D01*
X27323468Y-20373907D01*
X27336080Y-20394950D01*
X27346570Y-20417129D01*
X27354835Y-20440228D01*
X27360796Y-20464027D01*
X27364396Y-20488295D01*
X27365600Y-20512799D01*
X27365600Y-21812801D01*
X27364396Y-21837305D01*
X27360796Y-21861573D01*
X27354835Y-21885372D01*
X27346570Y-21908471D01*
X27336080Y-21930650D01*
X27323468Y-21951693D01*
X27308853Y-21971399D01*
X27292377Y-21989577D01*
X27274199Y-22006053D01*
X27254493Y-22020668D01*
X27233450Y-22033280D01*
X27211271Y-22043770D01*
X27188172Y-22052035D01*
X27164373Y-22057996D01*
X27140105Y-22061596D01*
X27115601Y-22062800D01*
X26415599Y-22062800D01*
X26391095Y-22061596D01*
X26366827Y-22057996D01*
X26343028Y-22052035D01*
X26319929Y-22043770D01*
X26297750Y-22033280D01*
X26276707Y-22020668D01*
X26257001Y-22006053D01*
X26238823Y-21989577D01*
X26222347Y-21971399D01*
X26207732Y-21951693D01*
X26195120Y-21930650D01*
X26184630Y-21908471D01*
X26176365Y-21885372D01*
X26170404Y-21861573D01*
X26166804Y-21837305D01*
X26165600Y-21812801D01*
X26165600Y-20512799D01*
X26166804Y-20488295D01*
X26170404Y-20464027D01*
X26176365Y-20440228D01*
X26184630Y-20417129D01*
X26195120Y-20394950D01*
X26207732Y-20373907D01*
X26222347Y-20354201D01*
X26238823Y-20336023D01*
X26257001Y-20319547D01*
X26276707Y-20304932D01*
X26297750Y-20292320D01*
X26319929Y-20281830D01*
X26343028Y-20273565D01*
X26366827Y-20267604D01*
X26391095Y-20264004D01*
X26415599Y-20262800D01*
X27115601Y-20262800D01*
X27140105Y-20264004D01*
X27140105Y-20264004D01*
G37*
D11*
X26765600Y-21162800D03*
D10*
G36*
X32740105Y-20264004D02*
G01*
X32764373Y-20267604D01*
X32788172Y-20273565D01*
X32811271Y-20281830D01*
X32833450Y-20292320D01*
X32854493Y-20304932D01*
X32874199Y-20319547D01*
X32892377Y-20336023D01*
X32908853Y-20354201D01*
X32923468Y-20373907D01*
X32936080Y-20394950D01*
X32946570Y-20417129D01*
X32954835Y-20440228D01*
X32960796Y-20464027D01*
X32964396Y-20488295D01*
X32965600Y-20512799D01*
X32965600Y-21812801D01*
X32964396Y-21837305D01*
X32960796Y-21861573D01*
X32954835Y-21885372D01*
X32946570Y-21908471D01*
X32936080Y-21930650D01*
X32923468Y-21951693D01*
X32908853Y-21971399D01*
X32892377Y-21989577D01*
X32874199Y-22006053D01*
X32854493Y-22020668D01*
X32833450Y-22033280D01*
X32811271Y-22043770D01*
X32788172Y-22052035D01*
X32764373Y-22057996D01*
X32740105Y-22061596D01*
X32715601Y-22062800D01*
X32015599Y-22062800D01*
X31991095Y-22061596D01*
X31966827Y-22057996D01*
X31943028Y-22052035D01*
X31919929Y-22043770D01*
X31897750Y-22033280D01*
X31876707Y-22020668D01*
X31857001Y-22006053D01*
X31838823Y-21989577D01*
X31822347Y-21971399D01*
X31807732Y-21951693D01*
X31795120Y-21930650D01*
X31784630Y-21908471D01*
X31776365Y-21885372D01*
X31770404Y-21861573D01*
X31766804Y-21837305D01*
X31765600Y-21812801D01*
X31765600Y-20512799D01*
X31766804Y-20488295D01*
X31770404Y-20464027D01*
X31776365Y-20440228D01*
X31784630Y-20417129D01*
X31795120Y-20394950D01*
X31807732Y-20373907D01*
X31822347Y-20354201D01*
X31838823Y-20336023D01*
X31857001Y-20319547D01*
X31876707Y-20304932D01*
X31897750Y-20292320D01*
X31919929Y-20281830D01*
X31943028Y-20273565D01*
X31966827Y-20267604D01*
X31991095Y-20264004D01*
X32015599Y-20262800D01*
X32715601Y-20262800D01*
X32740105Y-20264004D01*
X32740105Y-20264004D01*
G37*
D11*
X32365600Y-21162800D03*
D10*
G36*
X28230303Y-24263522D02*
G01*
X28244864Y-24265682D01*
X28259143Y-24269259D01*
X28273003Y-24274218D01*
X28286310Y-24280512D01*
X28298936Y-24288080D01*
X28310759Y-24296848D01*
X28321666Y-24306734D01*
X28331552Y-24317641D01*
X28340320Y-24329464D01*
X28347888Y-24342090D01*
X28354182Y-24355397D01*
X28359141Y-24369257D01*
X28362718Y-24383536D01*
X28364878Y-24398097D01*
X28365600Y-24412800D01*
X28365600Y-25662800D01*
X28364878Y-25677503D01*
X28362718Y-25692064D01*
X28359141Y-25706343D01*
X28354182Y-25720203D01*
X28347888Y-25733510D01*
X28340320Y-25746136D01*
X28331552Y-25757959D01*
X28321666Y-25768866D01*
X28310759Y-25778752D01*
X28298936Y-25787520D01*
X28286310Y-25795088D01*
X28273003Y-25801382D01*
X28259143Y-25806341D01*
X28244864Y-25809918D01*
X28230303Y-25812078D01*
X28215600Y-25812800D01*
X27915600Y-25812800D01*
X27900897Y-25812078D01*
X27886336Y-25809918D01*
X27872057Y-25806341D01*
X27858197Y-25801382D01*
X27844890Y-25795088D01*
X27832264Y-25787520D01*
X27820441Y-25778752D01*
X27809534Y-25768866D01*
X27799648Y-25757959D01*
X27790880Y-25746136D01*
X27783312Y-25733510D01*
X27777018Y-25720203D01*
X27772059Y-25706343D01*
X27768482Y-25692064D01*
X27766322Y-25677503D01*
X27765600Y-25662800D01*
X27765600Y-24412800D01*
X27766322Y-24398097D01*
X27768482Y-24383536D01*
X27772059Y-24369257D01*
X27777018Y-24355397D01*
X27783312Y-24342090D01*
X27790880Y-24329464D01*
X27799648Y-24317641D01*
X27809534Y-24306734D01*
X27820441Y-24296848D01*
X27832264Y-24288080D01*
X27844890Y-24280512D01*
X27858197Y-24274218D01*
X27872057Y-24269259D01*
X27886336Y-24265682D01*
X27900897Y-24263522D01*
X27915600Y-24262800D01*
X28215600Y-24262800D01*
X28230303Y-24263522D01*
X28230303Y-24263522D01*
G37*
D12*
X28065600Y-25037800D03*
D10*
G36*
X29230303Y-24263522D02*
G01*
X29244864Y-24265682D01*
X29259143Y-24269259D01*
X29273003Y-24274218D01*
X29286310Y-24280512D01*
X29298936Y-24288080D01*
X29310759Y-24296848D01*
X29321666Y-24306734D01*
X29331552Y-24317641D01*
X29340320Y-24329464D01*
X29347888Y-24342090D01*
X29354182Y-24355397D01*
X29359141Y-24369257D01*
X29362718Y-24383536D01*
X29364878Y-24398097D01*
X29365600Y-24412800D01*
X29365600Y-25662800D01*
X29364878Y-25677503D01*
X29362718Y-25692064D01*
X29359141Y-25706343D01*
X29354182Y-25720203D01*
X29347888Y-25733510D01*
X29340320Y-25746136D01*
X29331552Y-25757959D01*
X29321666Y-25768866D01*
X29310759Y-25778752D01*
X29298936Y-25787520D01*
X29286310Y-25795088D01*
X29273003Y-25801382D01*
X29259143Y-25806341D01*
X29244864Y-25809918D01*
X29230303Y-25812078D01*
X29215600Y-25812800D01*
X28915600Y-25812800D01*
X28900897Y-25812078D01*
X28886336Y-25809918D01*
X28872057Y-25806341D01*
X28858197Y-25801382D01*
X28844890Y-25795088D01*
X28832264Y-25787520D01*
X28820441Y-25778752D01*
X28809534Y-25768866D01*
X28799648Y-25757959D01*
X28790880Y-25746136D01*
X28783312Y-25733510D01*
X28777018Y-25720203D01*
X28772059Y-25706343D01*
X28768482Y-25692064D01*
X28766322Y-25677503D01*
X28765600Y-25662800D01*
X28765600Y-24412800D01*
X28766322Y-24398097D01*
X28768482Y-24383536D01*
X28772059Y-24369257D01*
X28777018Y-24355397D01*
X28783312Y-24342090D01*
X28790880Y-24329464D01*
X28799648Y-24317641D01*
X28809534Y-24306734D01*
X28820441Y-24296848D01*
X28832264Y-24288080D01*
X28844890Y-24280512D01*
X28858197Y-24274218D01*
X28872057Y-24269259D01*
X28886336Y-24265682D01*
X28900897Y-24263522D01*
X28915600Y-24262800D01*
X29215600Y-24262800D01*
X29230303Y-24263522D01*
X29230303Y-24263522D01*
G37*
D12*
X29065600Y-25037800D03*
D10*
G36*
X30230303Y-24263522D02*
G01*
X30244864Y-24265682D01*
X30259143Y-24269259D01*
X30273003Y-24274218D01*
X30286310Y-24280512D01*
X30298936Y-24288080D01*
X30310759Y-24296848D01*
X30321666Y-24306734D01*
X30331552Y-24317641D01*
X30340320Y-24329464D01*
X30347888Y-24342090D01*
X30354182Y-24355397D01*
X30359141Y-24369257D01*
X30362718Y-24383536D01*
X30364878Y-24398097D01*
X30365600Y-24412800D01*
X30365600Y-25662800D01*
X30364878Y-25677503D01*
X30362718Y-25692064D01*
X30359141Y-25706343D01*
X30354182Y-25720203D01*
X30347888Y-25733510D01*
X30340320Y-25746136D01*
X30331552Y-25757959D01*
X30321666Y-25768866D01*
X30310759Y-25778752D01*
X30298936Y-25787520D01*
X30286310Y-25795088D01*
X30273003Y-25801382D01*
X30259143Y-25806341D01*
X30244864Y-25809918D01*
X30230303Y-25812078D01*
X30215600Y-25812800D01*
X29915600Y-25812800D01*
X29900897Y-25812078D01*
X29886336Y-25809918D01*
X29872057Y-25806341D01*
X29858197Y-25801382D01*
X29844890Y-25795088D01*
X29832264Y-25787520D01*
X29820441Y-25778752D01*
X29809534Y-25768866D01*
X29799648Y-25757959D01*
X29790880Y-25746136D01*
X29783312Y-25733510D01*
X29777018Y-25720203D01*
X29772059Y-25706343D01*
X29768482Y-25692064D01*
X29766322Y-25677503D01*
X29765600Y-25662800D01*
X29765600Y-24412800D01*
X29766322Y-24398097D01*
X29768482Y-24383536D01*
X29772059Y-24369257D01*
X29777018Y-24355397D01*
X29783312Y-24342090D01*
X29790880Y-24329464D01*
X29799648Y-24317641D01*
X29809534Y-24306734D01*
X29820441Y-24296848D01*
X29832264Y-24288080D01*
X29844890Y-24280512D01*
X29858197Y-24274218D01*
X29872057Y-24269259D01*
X29886336Y-24265682D01*
X29900897Y-24263522D01*
X29915600Y-24262800D01*
X30215600Y-24262800D01*
X30230303Y-24263522D01*
X30230303Y-24263522D01*
G37*
D12*
X30065600Y-25037800D03*
D10*
G36*
X31230303Y-24263522D02*
G01*
X31244864Y-24265682D01*
X31259143Y-24269259D01*
X31273003Y-24274218D01*
X31286310Y-24280512D01*
X31298936Y-24288080D01*
X31310759Y-24296848D01*
X31321666Y-24306734D01*
X31331552Y-24317641D01*
X31340320Y-24329464D01*
X31347888Y-24342090D01*
X31354182Y-24355397D01*
X31359141Y-24369257D01*
X31362718Y-24383536D01*
X31364878Y-24398097D01*
X31365600Y-24412800D01*
X31365600Y-25662800D01*
X31364878Y-25677503D01*
X31362718Y-25692064D01*
X31359141Y-25706343D01*
X31354182Y-25720203D01*
X31347888Y-25733510D01*
X31340320Y-25746136D01*
X31331552Y-25757959D01*
X31321666Y-25768866D01*
X31310759Y-25778752D01*
X31298936Y-25787520D01*
X31286310Y-25795088D01*
X31273003Y-25801382D01*
X31259143Y-25806341D01*
X31244864Y-25809918D01*
X31230303Y-25812078D01*
X31215600Y-25812800D01*
X30915600Y-25812800D01*
X30900897Y-25812078D01*
X30886336Y-25809918D01*
X30872057Y-25806341D01*
X30858197Y-25801382D01*
X30844890Y-25795088D01*
X30832264Y-25787520D01*
X30820441Y-25778752D01*
X30809534Y-25768866D01*
X30799648Y-25757959D01*
X30790880Y-25746136D01*
X30783312Y-25733510D01*
X30777018Y-25720203D01*
X30772059Y-25706343D01*
X30768482Y-25692064D01*
X30766322Y-25677503D01*
X30765600Y-25662800D01*
X30765600Y-24412800D01*
X30766322Y-24398097D01*
X30768482Y-24383536D01*
X30772059Y-24369257D01*
X30777018Y-24355397D01*
X30783312Y-24342090D01*
X30790880Y-24329464D01*
X30799648Y-24317641D01*
X30809534Y-24306734D01*
X30820441Y-24296848D01*
X30832264Y-24288080D01*
X30844890Y-24280512D01*
X30858197Y-24274218D01*
X30872057Y-24269259D01*
X30886336Y-24265682D01*
X30900897Y-24263522D01*
X30915600Y-24262800D01*
X31215600Y-24262800D01*
X31230303Y-24263522D01*
X31230303Y-24263522D01*
G37*
D12*
X31065600Y-25037800D03*
D10*
G36*
X27015705Y-48042404D02*
G01*
X27039973Y-48046004D01*
X27063772Y-48051965D01*
X27086871Y-48060230D01*
X27109050Y-48070720D01*
X27130093Y-48083332D01*
X27149799Y-48097947D01*
X27167977Y-48114423D01*
X27184453Y-48132601D01*
X27199068Y-48152307D01*
X27211680Y-48173350D01*
X27222170Y-48195529D01*
X27230435Y-48218628D01*
X27236396Y-48242427D01*
X27239996Y-48266695D01*
X27241200Y-48291199D01*
X27241200Y-49591201D01*
X27239996Y-49615705D01*
X27236396Y-49639973D01*
X27230435Y-49663772D01*
X27222170Y-49686871D01*
X27211680Y-49709050D01*
X27199068Y-49730093D01*
X27184453Y-49749799D01*
X27167977Y-49767977D01*
X27149799Y-49784453D01*
X27130093Y-49799068D01*
X27109050Y-49811680D01*
X27086871Y-49822170D01*
X27063772Y-49830435D01*
X27039973Y-49836396D01*
X27015705Y-49839996D01*
X26991201Y-49841200D01*
X26291199Y-49841200D01*
X26266695Y-49839996D01*
X26242427Y-49836396D01*
X26218628Y-49830435D01*
X26195529Y-49822170D01*
X26173350Y-49811680D01*
X26152307Y-49799068D01*
X26132601Y-49784453D01*
X26114423Y-49767977D01*
X26097947Y-49749799D01*
X26083332Y-49730093D01*
X26070720Y-49709050D01*
X26060230Y-49686871D01*
X26051965Y-49663772D01*
X26046004Y-49639973D01*
X26042404Y-49615705D01*
X26041200Y-49591201D01*
X26041200Y-48291199D01*
X26042404Y-48266695D01*
X26046004Y-48242427D01*
X26051965Y-48218628D01*
X26060230Y-48195529D01*
X26070720Y-48173350D01*
X26083332Y-48152307D01*
X26097947Y-48132601D01*
X26114423Y-48114423D01*
X26132601Y-48097947D01*
X26152307Y-48083332D01*
X26173350Y-48070720D01*
X26195529Y-48060230D01*
X26218628Y-48051965D01*
X26242427Y-48046004D01*
X26266695Y-48042404D01*
X26291199Y-48041200D01*
X26991201Y-48041200D01*
X27015705Y-48042404D01*
X27015705Y-48042404D01*
G37*
D11*
X26641200Y-48941200D03*
D10*
G36*
X23415705Y-48042404D02*
G01*
X23439973Y-48046004D01*
X23463772Y-48051965D01*
X23486871Y-48060230D01*
X23509050Y-48070720D01*
X23530093Y-48083332D01*
X23549799Y-48097947D01*
X23567977Y-48114423D01*
X23584453Y-48132601D01*
X23599068Y-48152307D01*
X23611680Y-48173350D01*
X23622170Y-48195529D01*
X23630435Y-48218628D01*
X23636396Y-48242427D01*
X23639996Y-48266695D01*
X23641200Y-48291199D01*
X23641200Y-49591201D01*
X23639996Y-49615705D01*
X23636396Y-49639973D01*
X23630435Y-49663772D01*
X23622170Y-49686871D01*
X23611680Y-49709050D01*
X23599068Y-49730093D01*
X23584453Y-49749799D01*
X23567977Y-49767977D01*
X23549799Y-49784453D01*
X23530093Y-49799068D01*
X23509050Y-49811680D01*
X23486871Y-49822170D01*
X23463772Y-49830435D01*
X23439973Y-49836396D01*
X23415705Y-49839996D01*
X23391201Y-49841200D01*
X22691199Y-49841200D01*
X22666695Y-49839996D01*
X22642427Y-49836396D01*
X22618628Y-49830435D01*
X22595529Y-49822170D01*
X22573350Y-49811680D01*
X22552307Y-49799068D01*
X22532601Y-49784453D01*
X22514423Y-49767977D01*
X22497947Y-49749799D01*
X22483332Y-49730093D01*
X22470720Y-49709050D01*
X22460230Y-49686871D01*
X22451965Y-49663772D01*
X22446004Y-49639973D01*
X22442404Y-49615705D01*
X22441200Y-49591201D01*
X22441200Y-48291199D01*
X22442404Y-48266695D01*
X22446004Y-48242427D01*
X22451965Y-48218628D01*
X22460230Y-48195529D01*
X22470720Y-48173350D01*
X22483332Y-48152307D01*
X22497947Y-48132601D01*
X22514423Y-48114423D01*
X22532601Y-48097947D01*
X22552307Y-48083332D01*
X22573350Y-48070720D01*
X22595529Y-48060230D01*
X22618628Y-48051965D01*
X22642427Y-48046004D01*
X22666695Y-48042404D01*
X22691199Y-48041200D01*
X23391201Y-48041200D01*
X23415705Y-48042404D01*
X23415705Y-48042404D01*
G37*
D11*
X23041200Y-48941200D03*
D10*
G36*
X25505903Y-44291922D02*
G01*
X25520464Y-44294082D01*
X25534743Y-44297659D01*
X25548603Y-44302618D01*
X25561910Y-44308912D01*
X25574536Y-44316480D01*
X25586359Y-44325248D01*
X25597266Y-44335134D01*
X25607152Y-44346041D01*
X25615920Y-44357864D01*
X25623488Y-44370490D01*
X25629782Y-44383797D01*
X25634741Y-44397657D01*
X25638318Y-44411936D01*
X25640478Y-44426497D01*
X25641200Y-44441200D01*
X25641200Y-45691200D01*
X25640478Y-45705903D01*
X25638318Y-45720464D01*
X25634741Y-45734743D01*
X25629782Y-45748603D01*
X25623488Y-45761910D01*
X25615920Y-45774536D01*
X25607152Y-45786359D01*
X25597266Y-45797266D01*
X25586359Y-45807152D01*
X25574536Y-45815920D01*
X25561910Y-45823488D01*
X25548603Y-45829782D01*
X25534743Y-45834741D01*
X25520464Y-45838318D01*
X25505903Y-45840478D01*
X25491200Y-45841200D01*
X25191200Y-45841200D01*
X25176497Y-45840478D01*
X25161936Y-45838318D01*
X25147657Y-45834741D01*
X25133797Y-45829782D01*
X25120490Y-45823488D01*
X25107864Y-45815920D01*
X25096041Y-45807152D01*
X25085134Y-45797266D01*
X25075248Y-45786359D01*
X25066480Y-45774536D01*
X25058912Y-45761910D01*
X25052618Y-45748603D01*
X25047659Y-45734743D01*
X25044082Y-45720464D01*
X25041922Y-45705903D01*
X25041200Y-45691200D01*
X25041200Y-44441200D01*
X25041922Y-44426497D01*
X25044082Y-44411936D01*
X25047659Y-44397657D01*
X25052618Y-44383797D01*
X25058912Y-44370490D01*
X25066480Y-44357864D01*
X25075248Y-44346041D01*
X25085134Y-44335134D01*
X25096041Y-44325248D01*
X25107864Y-44316480D01*
X25120490Y-44308912D01*
X25133797Y-44302618D01*
X25147657Y-44297659D01*
X25161936Y-44294082D01*
X25176497Y-44291922D01*
X25191200Y-44291200D01*
X25491200Y-44291200D01*
X25505903Y-44291922D01*
X25505903Y-44291922D01*
G37*
D12*
X25341200Y-45066200D03*
D10*
G36*
X24505903Y-44291922D02*
G01*
X24520464Y-44294082D01*
X24534743Y-44297659D01*
X24548603Y-44302618D01*
X24561910Y-44308912D01*
X24574536Y-44316480D01*
X24586359Y-44325248D01*
X24597266Y-44335134D01*
X24607152Y-44346041D01*
X24615920Y-44357864D01*
X24623488Y-44370490D01*
X24629782Y-44383797D01*
X24634741Y-44397657D01*
X24638318Y-44411936D01*
X24640478Y-44426497D01*
X24641200Y-44441200D01*
X24641200Y-45691200D01*
X24640478Y-45705903D01*
X24638318Y-45720464D01*
X24634741Y-45734743D01*
X24629782Y-45748603D01*
X24623488Y-45761910D01*
X24615920Y-45774536D01*
X24607152Y-45786359D01*
X24597266Y-45797266D01*
X24586359Y-45807152D01*
X24574536Y-45815920D01*
X24561910Y-45823488D01*
X24548603Y-45829782D01*
X24534743Y-45834741D01*
X24520464Y-45838318D01*
X24505903Y-45840478D01*
X24491200Y-45841200D01*
X24191200Y-45841200D01*
X24176497Y-45840478D01*
X24161936Y-45838318D01*
X24147657Y-45834741D01*
X24133797Y-45829782D01*
X24120490Y-45823488D01*
X24107864Y-45815920D01*
X24096041Y-45807152D01*
X24085134Y-45797266D01*
X24075248Y-45786359D01*
X24066480Y-45774536D01*
X24058912Y-45761910D01*
X24052618Y-45748603D01*
X24047659Y-45734743D01*
X24044082Y-45720464D01*
X24041922Y-45705903D01*
X24041200Y-45691200D01*
X24041200Y-44441200D01*
X24041922Y-44426497D01*
X24044082Y-44411936D01*
X24047659Y-44397657D01*
X24052618Y-44383797D01*
X24058912Y-44370490D01*
X24066480Y-44357864D01*
X24075248Y-44346041D01*
X24085134Y-44335134D01*
X24096041Y-44325248D01*
X24107864Y-44316480D01*
X24120490Y-44308912D01*
X24133797Y-44302618D01*
X24147657Y-44297659D01*
X24161936Y-44294082D01*
X24176497Y-44291922D01*
X24191200Y-44291200D01*
X24491200Y-44291200D01*
X24505903Y-44291922D01*
X24505903Y-44291922D01*
G37*
D12*
X24341200Y-45066200D03*
D13*
X34080000Y-27555000D03*
X34080000Y-28205000D03*
X34080000Y-28855000D03*
X34080000Y-29505000D03*
X34080000Y-30155000D03*
X34080000Y-30805000D03*
X34080000Y-31455000D03*
X34080000Y-32105000D03*
X34080000Y-32755000D03*
X34080000Y-33405000D03*
X26880000Y-33405000D03*
X26880000Y-32755000D03*
X26880000Y-32105000D03*
X26880000Y-31455000D03*
X26880000Y-30805000D03*
X26880000Y-30155000D03*
X26880000Y-29505000D03*
X26880000Y-28855000D03*
X26880000Y-28205000D03*
X26880000Y-27555000D03*
D10*
G36*
X26834703Y-36174722D02*
G01*
X26849264Y-36176882D01*
X26863543Y-36180459D01*
X26877403Y-36185418D01*
X26890710Y-36191712D01*
X26903336Y-36199280D01*
X26915159Y-36208048D01*
X26926066Y-36217934D01*
X26935952Y-36228841D01*
X26944720Y-36240664D01*
X26952288Y-36253290D01*
X26958582Y-36266597D01*
X26963541Y-36280457D01*
X26967118Y-36294736D01*
X26969278Y-36309297D01*
X26970000Y-36324000D01*
X26970000Y-37974000D01*
X26969278Y-37988703D01*
X26967118Y-38003264D01*
X26963541Y-38017543D01*
X26958582Y-38031403D01*
X26952288Y-38044710D01*
X26944720Y-38057336D01*
X26935952Y-38069159D01*
X26926066Y-38080066D01*
X26915159Y-38089952D01*
X26903336Y-38098720D01*
X26890710Y-38106288D01*
X26877403Y-38112582D01*
X26863543Y-38117541D01*
X26849264Y-38121118D01*
X26834703Y-38123278D01*
X26820000Y-38124000D01*
X26520000Y-38124000D01*
X26505297Y-38123278D01*
X26490736Y-38121118D01*
X26476457Y-38117541D01*
X26462597Y-38112582D01*
X26449290Y-38106288D01*
X26436664Y-38098720D01*
X26424841Y-38089952D01*
X26413934Y-38080066D01*
X26404048Y-38069159D01*
X26395280Y-38057336D01*
X26387712Y-38044710D01*
X26381418Y-38031403D01*
X26376459Y-38017543D01*
X26372882Y-38003264D01*
X26370722Y-37988703D01*
X26370000Y-37974000D01*
X26370000Y-36324000D01*
X26370722Y-36309297D01*
X26372882Y-36294736D01*
X26376459Y-36280457D01*
X26381418Y-36266597D01*
X26387712Y-36253290D01*
X26395280Y-36240664D01*
X26404048Y-36228841D01*
X26413934Y-36217934D01*
X26424841Y-36208048D01*
X26436664Y-36199280D01*
X26449290Y-36191712D01*
X26462597Y-36185418D01*
X26476457Y-36180459D01*
X26490736Y-36176882D01*
X26505297Y-36174722D01*
X26520000Y-36174000D01*
X26820000Y-36174000D01*
X26834703Y-36174722D01*
X26834703Y-36174722D01*
G37*
D12*
X26670000Y-37149000D03*
D10*
G36*
X28104703Y-36174722D02*
G01*
X28119264Y-36176882D01*
X28133543Y-36180459D01*
X28147403Y-36185418D01*
X28160710Y-36191712D01*
X28173336Y-36199280D01*
X28185159Y-36208048D01*
X28196066Y-36217934D01*
X28205952Y-36228841D01*
X28214720Y-36240664D01*
X28222288Y-36253290D01*
X28228582Y-36266597D01*
X28233541Y-36280457D01*
X28237118Y-36294736D01*
X28239278Y-36309297D01*
X28240000Y-36324000D01*
X28240000Y-37974000D01*
X28239278Y-37988703D01*
X28237118Y-38003264D01*
X28233541Y-38017543D01*
X28228582Y-38031403D01*
X28222288Y-38044710D01*
X28214720Y-38057336D01*
X28205952Y-38069159D01*
X28196066Y-38080066D01*
X28185159Y-38089952D01*
X28173336Y-38098720D01*
X28160710Y-38106288D01*
X28147403Y-38112582D01*
X28133543Y-38117541D01*
X28119264Y-38121118D01*
X28104703Y-38123278D01*
X28090000Y-38124000D01*
X27790000Y-38124000D01*
X27775297Y-38123278D01*
X27760736Y-38121118D01*
X27746457Y-38117541D01*
X27732597Y-38112582D01*
X27719290Y-38106288D01*
X27706664Y-38098720D01*
X27694841Y-38089952D01*
X27683934Y-38080066D01*
X27674048Y-38069159D01*
X27665280Y-38057336D01*
X27657712Y-38044710D01*
X27651418Y-38031403D01*
X27646459Y-38017543D01*
X27642882Y-38003264D01*
X27640722Y-37988703D01*
X27640000Y-37974000D01*
X27640000Y-36324000D01*
X27640722Y-36309297D01*
X27642882Y-36294736D01*
X27646459Y-36280457D01*
X27651418Y-36266597D01*
X27657712Y-36253290D01*
X27665280Y-36240664D01*
X27674048Y-36228841D01*
X27683934Y-36217934D01*
X27694841Y-36208048D01*
X27706664Y-36199280D01*
X27719290Y-36191712D01*
X27732597Y-36185418D01*
X27746457Y-36180459D01*
X27760736Y-36176882D01*
X27775297Y-36174722D01*
X27790000Y-36174000D01*
X28090000Y-36174000D01*
X28104703Y-36174722D01*
X28104703Y-36174722D01*
G37*
D12*
X27940000Y-37149000D03*
D10*
G36*
X29374703Y-36174722D02*
G01*
X29389264Y-36176882D01*
X29403543Y-36180459D01*
X29417403Y-36185418D01*
X29430710Y-36191712D01*
X29443336Y-36199280D01*
X29455159Y-36208048D01*
X29466066Y-36217934D01*
X29475952Y-36228841D01*
X29484720Y-36240664D01*
X29492288Y-36253290D01*
X29498582Y-36266597D01*
X29503541Y-36280457D01*
X29507118Y-36294736D01*
X29509278Y-36309297D01*
X29510000Y-36324000D01*
X29510000Y-37974000D01*
X29509278Y-37988703D01*
X29507118Y-38003264D01*
X29503541Y-38017543D01*
X29498582Y-38031403D01*
X29492288Y-38044710D01*
X29484720Y-38057336D01*
X29475952Y-38069159D01*
X29466066Y-38080066D01*
X29455159Y-38089952D01*
X29443336Y-38098720D01*
X29430710Y-38106288D01*
X29417403Y-38112582D01*
X29403543Y-38117541D01*
X29389264Y-38121118D01*
X29374703Y-38123278D01*
X29360000Y-38124000D01*
X29060000Y-38124000D01*
X29045297Y-38123278D01*
X29030736Y-38121118D01*
X29016457Y-38117541D01*
X29002597Y-38112582D01*
X28989290Y-38106288D01*
X28976664Y-38098720D01*
X28964841Y-38089952D01*
X28953934Y-38080066D01*
X28944048Y-38069159D01*
X28935280Y-38057336D01*
X28927712Y-38044710D01*
X28921418Y-38031403D01*
X28916459Y-38017543D01*
X28912882Y-38003264D01*
X28910722Y-37988703D01*
X28910000Y-37974000D01*
X28910000Y-36324000D01*
X28910722Y-36309297D01*
X28912882Y-36294736D01*
X28916459Y-36280457D01*
X28921418Y-36266597D01*
X28927712Y-36253290D01*
X28935280Y-36240664D01*
X28944048Y-36228841D01*
X28953934Y-36217934D01*
X28964841Y-36208048D01*
X28976664Y-36199280D01*
X28989290Y-36191712D01*
X29002597Y-36185418D01*
X29016457Y-36180459D01*
X29030736Y-36176882D01*
X29045297Y-36174722D01*
X29060000Y-36174000D01*
X29360000Y-36174000D01*
X29374703Y-36174722D01*
X29374703Y-36174722D01*
G37*
D12*
X29210000Y-37149000D03*
D10*
G36*
X30644703Y-36174722D02*
G01*
X30659264Y-36176882D01*
X30673543Y-36180459D01*
X30687403Y-36185418D01*
X30700710Y-36191712D01*
X30713336Y-36199280D01*
X30725159Y-36208048D01*
X30736066Y-36217934D01*
X30745952Y-36228841D01*
X30754720Y-36240664D01*
X30762288Y-36253290D01*
X30768582Y-36266597D01*
X30773541Y-36280457D01*
X30777118Y-36294736D01*
X30779278Y-36309297D01*
X30780000Y-36324000D01*
X30780000Y-37974000D01*
X30779278Y-37988703D01*
X30777118Y-38003264D01*
X30773541Y-38017543D01*
X30768582Y-38031403D01*
X30762288Y-38044710D01*
X30754720Y-38057336D01*
X30745952Y-38069159D01*
X30736066Y-38080066D01*
X30725159Y-38089952D01*
X30713336Y-38098720D01*
X30700710Y-38106288D01*
X30687403Y-38112582D01*
X30673543Y-38117541D01*
X30659264Y-38121118D01*
X30644703Y-38123278D01*
X30630000Y-38124000D01*
X30330000Y-38124000D01*
X30315297Y-38123278D01*
X30300736Y-38121118D01*
X30286457Y-38117541D01*
X30272597Y-38112582D01*
X30259290Y-38106288D01*
X30246664Y-38098720D01*
X30234841Y-38089952D01*
X30223934Y-38080066D01*
X30214048Y-38069159D01*
X30205280Y-38057336D01*
X30197712Y-38044710D01*
X30191418Y-38031403D01*
X30186459Y-38017543D01*
X30182882Y-38003264D01*
X30180722Y-37988703D01*
X30180000Y-37974000D01*
X30180000Y-36324000D01*
X30180722Y-36309297D01*
X30182882Y-36294736D01*
X30186459Y-36280457D01*
X30191418Y-36266597D01*
X30197712Y-36253290D01*
X30205280Y-36240664D01*
X30214048Y-36228841D01*
X30223934Y-36217934D01*
X30234841Y-36208048D01*
X30246664Y-36199280D01*
X30259290Y-36191712D01*
X30272597Y-36185418D01*
X30286457Y-36180459D01*
X30300736Y-36176882D01*
X30315297Y-36174722D01*
X30330000Y-36174000D01*
X30630000Y-36174000D01*
X30644703Y-36174722D01*
X30644703Y-36174722D01*
G37*
D12*
X30480000Y-37149000D03*
D10*
G36*
X31914703Y-36174722D02*
G01*
X31929264Y-36176882D01*
X31943543Y-36180459D01*
X31957403Y-36185418D01*
X31970710Y-36191712D01*
X31983336Y-36199280D01*
X31995159Y-36208048D01*
X32006066Y-36217934D01*
X32015952Y-36228841D01*
X32024720Y-36240664D01*
X32032288Y-36253290D01*
X32038582Y-36266597D01*
X32043541Y-36280457D01*
X32047118Y-36294736D01*
X32049278Y-36309297D01*
X32050000Y-36324000D01*
X32050000Y-37974000D01*
X32049278Y-37988703D01*
X32047118Y-38003264D01*
X32043541Y-38017543D01*
X32038582Y-38031403D01*
X32032288Y-38044710D01*
X32024720Y-38057336D01*
X32015952Y-38069159D01*
X32006066Y-38080066D01*
X31995159Y-38089952D01*
X31983336Y-38098720D01*
X31970710Y-38106288D01*
X31957403Y-38112582D01*
X31943543Y-38117541D01*
X31929264Y-38121118D01*
X31914703Y-38123278D01*
X31900000Y-38124000D01*
X31600000Y-38124000D01*
X31585297Y-38123278D01*
X31570736Y-38121118D01*
X31556457Y-38117541D01*
X31542597Y-38112582D01*
X31529290Y-38106288D01*
X31516664Y-38098720D01*
X31504841Y-38089952D01*
X31493934Y-38080066D01*
X31484048Y-38069159D01*
X31475280Y-38057336D01*
X31467712Y-38044710D01*
X31461418Y-38031403D01*
X31456459Y-38017543D01*
X31452882Y-38003264D01*
X31450722Y-37988703D01*
X31450000Y-37974000D01*
X31450000Y-36324000D01*
X31450722Y-36309297D01*
X31452882Y-36294736D01*
X31456459Y-36280457D01*
X31461418Y-36266597D01*
X31467712Y-36253290D01*
X31475280Y-36240664D01*
X31484048Y-36228841D01*
X31493934Y-36217934D01*
X31504841Y-36208048D01*
X31516664Y-36199280D01*
X31529290Y-36191712D01*
X31542597Y-36185418D01*
X31556457Y-36180459D01*
X31570736Y-36176882D01*
X31585297Y-36174722D01*
X31600000Y-36174000D01*
X31900000Y-36174000D01*
X31914703Y-36174722D01*
X31914703Y-36174722D01*
G37*
D12*
X31750000Y-37149000D03*
D10*
G36*
X33184703Y-36174722D02*
G01*
X33199264Y-36176882D01*
X33213543Y-36180459D01*
X33227403Y-36185418D01*
X33240710Y-36191712D01*
X33253336Y-36199280D01*
X33265159Y-36208048D01*
X33276066Y-36217934D01*
X33285952Y-36228841D01*
X33294720Y-36240664D01*
X33302288Y-36253290D01*
X33308582Y-36266597D01*
X33313541Y-36280457D01*
X33317118Y-36294736D01*
X33319278Y-36309297D01*
X33320000Y-36324000D01*
X33320000Y-37974000D01*
X33319278Y-37988703D01*
X33317118Y-38003264D01*
X33313541Y-38017543D01*
X33308582Y-38031403D01*
X33302288Y-38044710D01*
X33294720Y-38057336D01*
X33285952Y-38069159D01*
X33276066Y-38080066D01*
X33265159Y-38089952D01*
X33253336Y-38098720D01*
X33240710Y-38106288D01*
X33227403Y-38112582D01*
X33213543Y-38117541D01*
X33199264Y-38121118D01*
X33184703Y-38123278D01*
X33170000Y-38124000D01*
X32870000Y-38124000D01*
X32855297Y-38123278D01*
X32840736Y-38121118D01*
X32826457Y-38117541D01*
X32812597Y-38112582D01*
X32799290Y-38106288D01*
X32786664Y-38098720D01*
X32774841Y-38089952D01*
X32763934Y-38080066D01*
X32754048Y-38069159D01*
X32745280Y-38057336D01*
X32737712Y-38044710D01*
X32731418Y-38031403D01*
X32726459Y-38017543D01*
X32722882Y-38003264D01*
X32720722Y-37988703D01*
X32720000Y-37974000D01*
X32720000Y-36324000D01*
X32720722Y-36309297D01*
X32722882Y-36294736D01*
X32726459Y-36280457D01*
X32731418Y-36266597D01*
X32737712Y-36253290D01*
X32745280Y-36240664D01*
X32754048Y-36228841D01*
X32763934Y-36217934D01*
X32774841Y-36208048D01*
X32786664Y-36199280D01*
X32799290Y-36191712D01*
X32812597Y-36185418D01*
X32826457Y-36180459D01*
X32840736Y-36176882D01*
X32855297Y-36174722D01*
X32870000Y-36174000D01*
X33170000Y-36174000D01*
X33184703Y-36174722D01*
X33184703Y-36174722D01*
G37*
D12*
X33020000Y-37149000D03*
D10*
G36*
X34454703Y-36174722D02*
G01*
X34469264Y-36176882D01*
X34483543Y-36180459D01*
X34497403Y-36185418D01*
X34510710Y-36191712D01*
X34523336Y-36199280D01*
X34535159Y-36208048D01*
X34546066Y-36217934D01*
X34555952Y-36228841D01*
X34564720Y-36240664D01*
X34572288Y-36253290D01*
X34578582Y-36266597D01*
X34583541Y-36280457D01*
X34587118Y-36294736D01*
X34589278Y-36309297D01*
X34590000Y-36324000D01*
X34590000Y-37974000D01*
X34589278Y-37988703D01*
X34587118Y-38003264D01*
X34583541Y-38017543D01*
X34578582Y-38031403D01*
X34572288Y-38044710D01*
X34564720Y-38057336D01*
X34555952Y-38069159D01*
X34546066Y-38080066D01*
X34535159Y-38089952D01*
X34523336Y-38098720D01*
X34510710Y-38106288D01*
X34497403Y-38112582D01*
X34483543Y-38117541D01*
X34469264Y-38121118D01*
X34454703Y-38123278D01*
X34440000Y-38124000D01*
X34140000Y-38124000D01*
X34125297Y-38123278D01*
X34110736Y-38121118D01*
X34096457Y-38117541D01*
X34082597Y-38112582D01*
X34069290Y-38106288D01*
X34056664Y-38098720D01*
X34044841Y-38089952D01*
X34033934Y-38080066D01*
X34024048Y-38069159D01*
X34015280Y-38057336D01*
X34007712Y-38044710D01*
X34001418Y-38031403D01*
X33996459Y-38017543D01*
X33992882Y-38003264D01*
X33990722Y-37988703D01*
X33990000Y-37974000D01*
X33990000Y-36324000D01*
X33990722Y-36309297D01*
X33992882Y-36294736D01*
X33996459Y-36280457D01*
X34001418Y-36266597D01*
X34007712Y-36253290D01*
X34015280Y-36240664D01*
X34024048Y-36228841D01*
X34033934Y-36217934D01*
X34044841Y-36208048D01*
X34056664Y-36199280D01*
X34069290Y-36191712D01*
X34082597Y-36185418D01*
X34096457Y-36180459D01*
X34110736Y-36176882D01*
X34125297Y-36174722D01*
X34140000Y-36174000D01*
X34440000Y-36174000D01*
X34454703Y-36174722D01*
X34454703Y-36174722D01*
G37*
D12*
X34290000Y-37149000D03*
D10*
G36*
X34454703Y-41124722D02*
G01*
X34469264Y-41126882D01*
X34483543Y-41130459D01*
X34497403Y-41135418D01*
X34510710Y-41141712D01*
X34523336Y-41149280D01*
X34535159Y-41158048D01*
X34546066Y-41167934D01*
X34555952Y-41178841D01*
X34564720Y-41190664D01*
X34572288Y-41203290D01*
X34578582Y-41216597D01*
X34583541Y-41230457D01*
X34587118Y-41244736D01*
X34589278Y-41259297D01*
X34590000Y-41274000D01*
X34590000Y-42924000D01*
X34589278Y-42938703D01*
X34587118Y-42953264D01*
X34583541Y-42967543D01*
X34578582Y-42981403D01*
X34572288Y-42994710D01*
X34564720Y-43007336D01*
X34555952Y-43019159D01*
X34546066Y-43030066D01*
X34535159Y-43039952D01*
X34523336Y-43048720D01*
X34510710Y-43056288D01*
X34497403Y-43062582D01*
X34483543Y-43067541D01*
X34469264Y-43071118D01*
X34454703Y-43073278D01*
X34440000Y-43074000D01*
X34140000Y-43074000D01*
X34125297Y-43073278D01*
X34110736Y-43071118D01*
X34096457Y-43067541D01*
X34082597Y-43062582D01*
X34069290Y-43056288D01*
X34056664Y-43048720D01*
X34044841Y-43039952D01*
X34033934Y-43030066D01*
X34024048Y-43019159D01*
X34015280Y-43007336D01*
X34007712Y-42994710D01*
X34001418Y-42981403D01*
X33996459Y-42967543D01*
X33992882Y-42953264D01*
X33990722Y-42938703D01*
X33990000Y-42924000D01*
X33990000Y-41274000D01*
X33990722Y-41259297D01*
X33992882Y-41244736D01*
X33996459Y-41230457D01*
X34001418Y-41216597D01*
X34007712Y-41203290D01*
X34015280Y-41190664D01*
X34024048Y-41178841D01*
X34033934Y-41167934D01*
X34044841Y-41158048D01*
X34056664Y-41149280D01*
X34069290Y-41141712D01*
X34082597Y-41135418D01*
X34096457Y-41130459D01*
X34110736Y-41126882D01*
X34125297Y-41124722D01*
X34140000Y-41124000D01*
X34440000Y-41124000D01*
X34454703Y-41124722D01*
X34454703Y-41124722D01*
G37*
D12*
X34290000Y-42099000D03*
D10*
G36*
X33184703Y-41124722D02*
G01*
X33199264Y-41126882D01*
X33213543Y-41130459D01*
X33227403Y-41135418D01*
X33240710Y-41141712D01*
X33253336Y-41149280D01*
X33265159Y-41158048D01*
X33276066Y-41167934D01*
X33285952Y-41178841D01*
X33294720Y-41190664D01*
X33302288Y-41203290D01*
X33308582Y-41216597D01*
X33313541Y-41230457D01*
X33317118Y-41244736D01*
X33319278Y-41259297D01*
X33320000Y-41274000D01*
X33320000Y-42924000D01*
X33319278Y-42938703D01*
X33317118Y-42953264D01*
X33313541Y-42967543D01*
X33308582Y-42981403D01*
X33302288Y-42994710D01*
X33294720Y-43007336D01*
X33285952Y-43019159D01*
X33276066Y-43030066D01*
X33265159Y-43039952D01*
X33253336Y-43048720D01*
X33240710Y-43056288D01*
X33227403Y-43062582D01*
X33213543Y-43067541D01*
X33199264Y-43071118D01*
X33184703Y-43073278D01*
X33170000Y-43074000D01*
X32870000Y-43074000D01*
X32855297Y-43073278D01*
X32840736Y-43071118D01*
X32826457Y-43067541D01*
X32812597Y-43062582D01*
X32799290Y-43056288D01*
X32786664Y-43048720D01*
X32774841Y-43039952D01*
X32763934Y-43030066D01*
X32754048Y-43019159D01*
X32745280Y-43007336D01*
X32737712Y-42994710D01*
X32731418Y-42981403D01*
X32726459Y-42967543D01*
X32722882Y-42953264D01*
X32720722Y-42938703D01*
X32720000Y-42924000D01*
X32720000Y-41274000D01*
X32720722Y-41259297D01*
X32722882Y-41244736D01*
X32726459Y-41230457D01*
X32731418Y-41216597D01*
X32737712Y-41203290D01*
X32745280Y-41190664D01*
X32754048Y-41178841D01*
X32763934Y-41167934D01*
X32774841Y-41158048D01*
X32786664Y-41149280D01*
X32799290Y-41141712D01*
X32812597Y-41135418D01*
X32826457Y-41130459D01*
X32840736Y-41126882D01*
X32855297Y-41124722D01*
X32870000Y-41124000D01*
X33170000Y-41124000D01*
X33184703Y-41124722D01*
X33184703Y-41124722D01*
G37*
D12*
X33020000Y-42099000D03*
D10*
G36*
X31914703Y-41124722D02*
G01*
X31929264Y-41126882D01*
X31943543Y-41130459D01*
X31957403Y-41135418D01*
X31970710Y-41141712D01*
X31983336Y-41149280D01*
X31995159Y-41158048D01*
X32006066Y-41167934D01*
X32015952Y-41178841D01*
X32024720Y-41190664D01*
X32032288Y-41203290D01*
X32038582Y-41216597D01*
X32043541Y-41230457D01*
X32047118Y-41244736D01*
X32049278Y-41259297D01*
X32050000Y-41274000D01*
X32050000Y-42924000D01*
X32049278Y-42938703D01*
X32047118Y-42953264D01*
X32043541Y-42967543D01*
X32038582Y-42981403D01*
X32032288Y-42994710D01*
X32024720Y-43007336D01*
X32015952Y-43019159D01*
X32006066Y-43030066D01*
X31995159Y-43039952D01*
X31983336Y-43048720D01*
X31970710Y-43056288D01*
X31957403Y-43062582D01*
X31943543Y-43067541D01*
X31929264Y-43071118D01*
X31914703Y-43073278D01*
X31900000Y-43074000D01*
X31600000Y-43074000D01*
X31585297Y-43073278D01*
X31570736Y-43071118D01*
X31556457Y-43067541D01*
X31542597Y-43062582D01*
X31529290Y-43056288D01*
X31516664Y-43048720D01*
X31504841Y-43039952D01*
X31493934Y-43030066D01*
X31484048Y-43019159D01*
X31475280Y-43007336D01*
X31467712Y-42994710D01*
X31461418Y-42981403D01*
X31456459Y-42967543D01*
X31452882Y-42953264D01*
X31450722Y-42938703D01*
X31450000Y-42924000D01*
X31450000Y-41274000D01*
X31450722Y-41259297D01*
X31452882Y-41244736D01*
X31456459Y-41230457D01*
X31461418Y-41216597D01*
X31467712Y-41203290D01*
X31475280Y-41190664D01*
X31484048Y-41178841D01*
X31493934Y-41167934D01*
X31504841Y-41158048D01*
X31516664Y-41149280D01*
X31529290Y-41141712D01*
X31542597Y-41135418D01*
X31556457Y-41130459D01*
X31570736Y-41126882D01*
X31585297Y-41124722D01*
X31600000Y-41124000D01*
X31900000Y-41124000D01*
X31914703Y-41124722D01*
X31914703Y-41124722D01*
G37*
D12*
X31750000Y-42099000D03*
D10*
G36*
X30644703Y-41124722D02*
G01*
X30659264Y-41126882D01*
X30673543Y-41130459D01*
X30687403Y-41135418D01*
X30700710Y-41141712D01*
X30713336Y-41149280D01*
X30725159Y-41158048D01*
X30736066Y-41167934D01*
X30745952Y-41178841D01*
X30754720Y-41190664D01*
X30762288Y-41203290D01*
X30768582Y-41216597D01*
X30773541Y-41230457D01*
X30777118Y-41244736D01*
X30779278Y-41259297D01*
X30780000Y-41274000D01*
X30780000Y-42924000D01*
X30779278Y-42938703D01*
X30777118Y-42953264D01*
X30773541Y-42967543D01*
X30768582Y-42981403D01*
X30762288Y-42994710D01*
X30754720Y-43007336D01*
X30745952Y-43019159D01*
X30736066Y-43030066D01*
X30725159Y-43039952D01*
X30713336Y-43048720D01*
X30700710Y-43056288D01*
X30687403Y-43062582D01*
X30673543Y-43067541D01*
X30659264Y-43071118D01*
X30644703Y-43073278D01*
X30630000Y-43074000D01*
X30330000Y-43074000D01*
X30315297Y-43073278D01*
X30300736Y-43071118D01*
X30286457Y-43067541D01*
X30272597Y-43062582D01*
X30259290Y-43056288D01*
X30246664Y-43048720D01*
X30234841Y-43039952D01*
X30223934Y-43030066D01*
X30214048Y-43019159D01*
X30205280Y-43007336D01*
X30197712Y-42994710D01*
X30191418Y-42981403D01*
X30186459Y-42967543D01*
X30182882Y-42953264D01*
X30180722Y-42938703D01*
X30180000Y-42924000D01*
X30180000Y-41274000D01*
X30180722Y-41259297D01*
X30182882Y-41244736D01*
X30186459Y-41230457D01*
X30191418Y-41216597D01*
X30197712Y-41203290D01*
X30205280Y-41190664D01*
X30214048Y-41178841D01*
X30223934Y-41167934D01*
X30234841Y-41158048D01*
X30246664Y-41149280D01*
X30259290Y-41141712D01*
X30272597Y-41135418D01*
X30286457Y-41130459D01*
X30300736Y-41126882D01*
X30315297Y-41124722D01*
X30330000Y-41124000D01*
X30630000Y-41124000D01*
X30644703Y-41124722D01*
X30644703Y-41124722D01*
G37*
D12*
X30480000Y-42099000D03*
D10*
G36*
X29374703Y-41124722D02*
G01*
X29389264Y-41126882D01*
X29403543Y-41130459D01*
X29417403Y-41135418D01*
X29430710Y-41141712D01*
X29443336Y-41149280D01*
X29455159Y-41158048D01*
X29466066Y-41167934D01*
X29475952Y-41178841D01*
X29484720Y-41190664D01*
X29492288Y-41203290D01*
X29498582Y-41216597D01*
X29503541Y-41230457D01*
X29507118Y-41244736D01*
X29509278Y-41259297D01*
X29510000Y-41274000D01*
X29510000Y-42924000D01*
X29509278Y-42938703D01*
X29507118Y-42953264D01*
X29503541Y-42967543D01*
X29498582Y-42981403D01*
X29492288Y-42994710D01*
X29484720Y-43007336D01*
X29475952Y-43019159D01*
X29466066Y-43030066D01*
X29455159Y-43039952D01*
X29443336Y-43048720D01*
X29430710Y-43056288D01*
X29417403Y-43062582D01*
X29403543Y-43067541D01*
X29389264Y-43071118D01*
X29374703Y-43073278D01*
X29360000Y-43074000D01*
X29060000Y-43074000D01*
X29045297Y-43073278D01*
X29030736Y-43071118D01*
X29016457Y-43067541D01*
X29002597Y-43062582D01*
X28989290Y-43056288D01*
X28976664Y-43048720D01*
X28964841Y-43039952D01*
X28953934Y-43030066D01*
X28944048Y-43019159D01*
X28935280Y-43007336D01*
X28927712Y-42994710D01*
X28921418Y-42981403D01*
X28916459Y-42967543D01*
X28912882Y-42953264D01*
X28910722Y-42938703D01*
X28910000Y-42924000D01*
X28910000Y-41274000D01*
X28910722Y-41259297D01*
X28912882Y-41244736D01*
X28916459Y-41230457D01*
X28921418Y-41216597D01*
X28927712Y-41203290D01*
X28935280Y-41190664D01*
X28944048Y-41178841D01*
X28953934Y-41167934D01*
X28964841Y-41158048D01*
X28976664Y-41149280D01*
X28989290Y-41141712D01*
X29002597Y-41135418D01*
X29016457Y-41130459D01*
X29030736Y-41126882D01*
X29045297Y-41124722D01*
X29060000Y-41124000D01*
X29360000Y-41124000D01*
X29374703Y-41124722D01*
X29374703Y-41124722D01*
G37*
D12*
X29210000Y-42099000D03*
D10*
G36*
X28104703Y-41124722D02*
G01*
X28119264Y-41126882D01*
X28133543Y-41130459D01*
X28147403Y-41135418D01*
X28160710Y-41141712D01*
X28173336Y-41149280D01*
X28185159Y-41158048D01*
X28196066Y-41167934D01*
X28205952Y-41178841D01*
X28214720Y-41190664D01*
X28222288Y-41203290D01*
X28228582Y-41216597D01*
X28233541Y-41230457D01*
X28237118Y-41244736D01*
X28239278Y-41259297D01*
X28240000Y-41274000D01*
X28240000Y-42924000D01*
X28239278Y-42938703D01*
X28237118Y-42953264D01*
X28233541Y-42967543D01*
X28228582Y-42981403D01*
X28222288Y-42994710D01*
X28214720Y-43007336D01*
X28205952Y-43019159D01*
X28196066Y-43030066D01*
X28185159Y-43039952D01*
X28173336Y-43048720D01*
X28160710Y-43056288D01*
X28147403Y-43062582D01*
X28133543Y-43067541D01*
X28119264Y-43071118D01*
X28104703Y-43073278D01*
X28090000Y-43074000D01*
X27790000Y-43074000D01*
X27775297Y-43073278D01*
X27760736Y-43071118D01*
X27746457Y-43067541D01*
X27732597Y-43062582D01*
X27719290Y-43056288D01*
X27706664Y-43048720D01*
X27694841Y-43039952D01*
X27683934Y-43030066D01*
X27674048Y-43019159D01*
X27665280Y-43007336D01*
X27657712Y-42994710D01*
X27651418Y-42981403D01*
X27646459Y-42967543D01*
X27642882Y-42953264D01*
X27640722Y-42938703D01*
X27640000Y-42924000D01*
X27640000Y-41274000D01*
X27640722Y-41259297D01*
X27642882Y-41244736D01*
X27646459Y-41230457D01*
X27651418Y-41216597D01*
X27657712Y-41203290D01*
X27665280Y-41190664D01*
X27674048Y-41178841D01*
X27683934Y-41167934D01*
X27694841Y-41158048D01*
X27706664Y-41149280D01*
X27719290Y-41141712D01*
X27732597Y-41135418D01*
X27746457Y-41130459D01*
X27760736Y-41126882D01*
X27775297Y-41124722D01*
X27790000Y-41124000D01*
X28090000Y-41124000D01*
X28104703Y-41124722D01*
X28104703Y-41124722D01*
G37*
D12*
X27940000Y-42099000D03*
D10*
G36*
X26834703Y-41124722D02*
G01*
X26849264Y-41126882D01*
X26863543Y-41130459D01*
X26877403Y-41135418D01*
X26890710Y-41141712D01*
X26903336Y-41149280D01*
X26915159Y-41158048D01*
X26926066Y-41167934D01*
X26935952Y-41178841D01*
X26944720Y-41190664D01*
X26952288Y-41203290D01*
X26958582Y-41216597D01*
X26963541Y-41230457D01*
X26967118Y-41244736D01*
X26969278Y-41259297D01*
X26970000Y-41274000D01*
X26970000Y-42924000D01*
X26969278Y-42938703D01*
X26967118Y-42953264D01*
X26963541Y-42967543D01*
X26958582Y-42981403D01*
X26952288Y-42994710D01*
X26944720Y-43007336D01*
X26935952Y-43019159D01*
X26926066Y-43030066D01*
X26915159Y-43039952D01*
X26903336Y-43048720D01*
X26890710Y-43056288D01*
X26877403Y-43062582D01*
X26863543Y-43067541D01*
X26849264Y-43071118D01*
X26834703Y-43073278D01*
X26820000Y-43074000D01*
X26520000Y-43074000D01*
X26505297Y-43073278D01*
X26490736Y-43071118D01*
X26476457Y-43067541D01*
X26462597Y-43062582D01*
X26449290Y-43056288D01*
X26436664Y-43048720D01*
X26424841Y-43039952D01*
X26413934Y-43030066D01*
X26404048Y-43019159D01*
X26395280Y-43007336D01*
X26387712Y-42994710D01*
X26381418Y-42981403D01*
X26376459Y-42967543D01*
X26372882Y-42953264D01*
X26370722Y-42938703D01*
X26370000Y-42924000D01*
X26370000Y-41274000D01*
X26370722Y-41259297D01*
X26372882Y-41244736D01*
X26376459Y-41230457D01*
X26381418Y-41216597D01*
X26387712Y-41203290D01*
X26395280Y-41190664D01*
X26404048Y-41178841D01*
X26413934Y-41167934D01*
X26424841Y-41158048D01*
X26436664Y-41149280D01*
X26449290Y-41141712D01*
X26462597Y-41135418D01*
X26476457Y-41130459D01*
X26490736Y-41126882D01*
X26505297Y-41124722D01*
X26520000Y-41124000D01*
X26820000Y-41124000D01*
X26834703Y-41124722D01*
X26834703Y-41124722D01*
G37*
D12*
X26670000Y-42099000D03*
D10*
G36*
X37304505Y-26849204D02*
G01*
X37328773Y-26852804D01*
X37352572Y-26858765D01*
X37375671Y-26867030D01*
X37397850Y-26877520D01*
X37418893Y-26890132D01*
X37438599Y-26904747D01*
X37456777Y-26921223D01*
X37473253Y-26939401D01*
X37487868Y-26959107D01*
X37500480Y-26980150D01*
X37510970Y-27002329D01*
X37519235Y-27025428D01*
X37525196Y-27049227D01*
X37528796Y-27073495D01*
X37530000Y-27097999D01*
X37530000Y-27748001D01*
X37528796Y-27772505D01*
X37525196Y-27796773D01*
X37519235Y-27820572D01*
X37510970Y-27843671D01*
X37500480Y-27865850D01*
X37487868Y-27886893D01*
X37473253Y-27906599D01*
X37456777Y-27924777D01*
X37438599Y-27941253D01*
X37418893Y-27955868D01*
X37397850Y-27968480D01*
X37375671Y-27978970D01*
X37352572Y-27987235D01*
X37328773Y-27993196D01*
X37304505Y-27996796D01*
X37280001Y-27998000D01*
X36379999Y-27998000D01*
X36355495Y-27996796D01*
X36331227Y-27993196D01*
X36307428Y-27987235D01*
X36284329Y-27978970D01*
X36262150Y-27968480D01*
X36241107Y-27955868D01*
X36221401Y-27941253D01*
X36203223Y-27924777D01*
X36186747Y-27906599D01*
X36172132Y-27886893D01*
X36159520Y-27865850D01*
X36149030Y-27843671D01*
X36140765Y-27820572D01*
X36134804Y-27796773D01*
X36131204Y-27772505D01*
X36130000Y-27748001D01*
X36130000Y-27097999D01*
X36131204Y-27073495D01*
X36134804Y-27049227D01*
X36140765Y-27025428D01*
X36149030Y-27002329D01*
X36159520Y-26980150D01*
X36172132Y-26959107D01*
X36186747Y-26939401D01*
X36203223Y-26921223D01*
X36221401Y-26904747D01*
X36241107Y-26890132D01*
X36262150Y-26877520D01*
X36284329Y-26867030D01*
X36307428Y-26858765D01*
X36331227Y-26852804D01*
X36355495Y-26849204D01*
X36379999Y-26848000D01*
X37280001Y-26848000D01*
X37304505Y-26849204D01*
X37304505Y-26849204D01*
G37*
D14*
X36830000Y-27423000D03*
D10*
G36*
X37304505Y-28899204D02*
G01*
X37328773Y-28902804D01*
X37352572Y-28908765D01*
X37375671Y-28917030D01*
X37397850Y-28927520D01*
X37418893Y-28940132D01*
X37438599Y-28954747D01*
X37456777Y-28971223D01*
X37473253Y-28989401D01*
X37487868Y-29009107D01*
X37500480Y-29030150D01*
X37510970Y-29052329D01*
X37519235Y-29075428D01*
X37525196Y-29099227D01*
X37528796Y-29123495D01*
X37530000Y-29147999D01*
X37530000Y-29798001D01*
X37528796Y-29822505D01*
X37525196Y-29846773D01*
X37519235Y-29870572D01*
X37510970Y-29893671D01*
X37500480Y-29915850D01*
X37487868Y-29936893D01*
X37473253Y-29956599D01*
X37456777Y-29974777D01*
X37438599Y-29991253D01*
X37418893Y-30005868D01*
X37397850Y-30018480D01*
X37375671Y-30028970D01*
X37352572Y-30037235D01*
X37328773Y-30043196D01*
X37304505Y-30046796D01*
X37280001Y-30048000D01*
X36379999Y-30048000D01*
X36355495Y-30046796D01*
X36331227Y-30043196D01*
X36307428Y-30037235D01*
X36284329Y-30028970D01*
X36262150Y-30018480D01*
X36241107Y-30005868D01*
X36221401Y-29991253D01*
X36203223Y-29974777D01*
X36186747Y-29956599D01*
X36172132Y-29936893D01*
X36159520Y-29915850D01*
X36149030Y-29893671D01*
X36140765Y-29870572D01*
X36134804Y-29846773D01*
X36131204Y-29822505D01*
X36130000Y-29798001D01*
X36130000Y-29147999D01*
X36131204Y-29123495D01*
X36134804Y-29099227D01*
X36140765Y-29075428D01*
X36149030Y-29052329D01*
X36159520Y-29030150D01*
X36172132Y-29009107D01*
X36186747Y-28989401D01*
X36203223Y-28971223D01*
X36221401Y-28954747D01*
X36241107Y-28940132D01*
X36262150Y-28927520D01*
X36284329Y-28917030D01*
X36307428Y-28908765D01*
X36331227Y-28902804D01*
X36355495Y-28899204D01*
X36379999Y-28898000D01*
X37280001Y-28898000D01*
X37304505Y-28899204D01*
X37304505Y-28899204D01*
G37*
D14*
X36830000Y-29473000D03*
D10*
G36*
X25112505Y-36247204D02*
G01*
X25136773Y-36250804D01*
X25160572Y-36256765D01*
X25183671Y-36265030D01*
X25205850Y-36275520D01*
X25226893Y-36288132D01*
X25246599Y-36302747D01*
X25264777Y-36319223D01*
X25281253Y-36337401D01*
X25295868Y-36357107D01*
X25308480Y-36378150D01*
X25318970Y-36400329D01*
X25327235Y-36423428D01*
X25333196Y-36447227D01*
X25336796Y-36471495D01*
X25338000Y-36495999D01*
X25338000Y-37146001D01*
X25336796Y-37170505D01*
X25333196Y-37194773D01*
X25327235Y-37218572D01*
X25318970Y-37241671D01*
X25308480Y-37263850D01*
X25295868Y-37284893D01*
X25281253Y-37304599D01*
X25264777Y-37322777D01*
X25246599Y-37339253D01*
X25226893Y-37353868D01*
X25205850Y-37366480D01*
X25183671Y-37376970D01*
X25160572Y-37385235D01*
X25136773Y-37391196D01*
X25112505Y-37394796D01*
X25088001Y-37396000D01*
X24187999Y-37396000D01*
X24163495Y-37394796D01*
X24139227Y-37391196D01*
X24115428Y-37385235D01*
X24092329Y-37376970D01*
X24070150Y-37366480D01*
X24049107Y-37353868D01*
X24029401Y-37339253D01*
X24011223Y-37322777D01*
X23994747Y-37304599D01*
X23980132Y-37284893D01*
X23967520Y-37263850D01*
X23957030Y-37241671D01*
X23948765Y-37218572D01*
X23942804Y-37194773D01*
X23939204Y-37170505D01*
X23938000Y-37146001D01*
X23938000Y-36495999D01*
X23939204Y-36471495D01*
X23942804Y-36447227D01*
X23948765Y-36423428D01*
X23957030Y-36400329D01*
X23967520Y-36378150D01*
X23980132Y-36357107D01*
X23994747Y-36337401D01*
X24011223Y-36319223D01*
X24029401Y-36302747D01*
X24049107Y-36288132D01*
X24070150Y-36275520D01*
X24092329Y-36265030D01*
X24115428Y-36256765D01*
X24139227Y-36250804D01*
X24163495Y-36247204D01*
X24187999Y-36246000D01*
X25088001Y-36246000D01*
X25112505Y-36247204D01*
X25112505Y-36247204D01*
G37*
D14*
X24638000Y-36821000D03*
D10*
G36*
X25112505Y-38297204D02*
G01*
X25136773Y-38300804D01*
X25160572Y-38306765D01*
X25183671Y-38315030D01*
X25205850Y-38325520D01*
X25226893Y-38338132D01*
X25246599Y-38352747D01*
X25264777Y-38369223D01*
X25281253Y-38387401D01*
X25295868Y-38407107D01*
X25308480Y-38428150D01*
X25318970Y-38450329D01*
X25327235Y-38473428D01*
X25333196Y-38497227D01*
X25336796Y-38521495D01*
X25338000Y-38545999D01*
X25338000Y-39196001D01*
X25336796Y-39220505D01*
X25333196Y-39244773D01*
X25327235Y-39268572D01*
X25318970Y-39291671D01*
X25308480Y-39313850D01*
X25295868Y-39334893D01*
X25281253Y-39354599D01*
X25264777Y-39372777D01*
X25246599Y-39389253D01*
X25226893Y-39403868D01*
X25205850Y-39416480D01*
X25183671Y-39426970D01*
X25160572Y-39435235D01*
X25136773Y-39441196D01*
X25112505Y-39444796D01*
X25088001Y-39446000D01*
X24187999Y-39446000D01*
X24163495Y-39444796D01*
X24139227Y-39441196D01*
X24115428Y-39435235D01*
X24092329Y-39426970D01*
X24070150Y-39416480D01*
X24049107Y-39403868D01*
X24029401Y-39389253D01*
X24011223Y-39372777D01*
X23994747Y-39354599D01*
X23980132Y-39334893D01*
X23967520Y-39313850D01*
X23957030Y-39291671D01*
X23948765Y-39268572D01*
X23942804Y-39244773D01*
X23939204Y-39220505D01*
X23938000Y-39196001D01*
X23938000Y-38545999D01*
X23939204Y-38521495D01*
X23942804Y-38497227D01*
X23948765Y-38473428D01*
X23957030Y-38450329D01*
X23967520Y-38428150D01*
X23980132Y-38407107D01*
X23994747Y-38387401D01*
X24011223Y-38369223D01*
X24029401Y-38352747D01*
X24049107Y-38338132D01*
X24070150Y-38325520D01*
X24092329Y-38315030D01*
X24115428Y-38306765D01*
X24139227Y-38300804D01*
X24163495Y-38297204D01*
X24187999Y-38296000D01*
X25088001Y-38296000D01*
X25112505Y-38297204D01*
X25112505Y-38297204D01*
G37*
D14*
X24638000Y-38871000D03*
D15*
X23368000Y-37084000D03*
X24968200Y-27559000D03*
X29852421Y-34708692D03*
X26644600Y-24257002D03*
X24000000Y-40000000D03*
X35255200Y-41376600D03*
X36220400Y-30911800D03*
X36957000Y-31267400D03*
X36957000Y-32105600D03*
X36957000Y-32969200D03*
X25199990Y-30494553D03*
X25199990Y-32003999D03*
X25199990Y-29739830D03*
X25199990Y-31249276D03*
X22656800Y-44500800D03*
X26416000Y-44094400D03*
X34899600Y-46532800D03*
X33782000Y-46583600D03*
X30480000Y-38658800D03*
X28144289Y-39524012D03*
X29355012Y-30886400D03*
X35339859Y-34890362D03*
X31572200Y-38735000D03*
X29667200Y-33401000D03*
X27000000Y-26729966D03*
X29174686Y-28731818D03*
D16*
X36698000Y-27555000D02*
X36830000Y-27423000D01*
X34080000Y-27555000D02*
X36698000Y-27555000D01*
X24375000Y-37084000D02*
X24638000Y-36821000D01*
X23368000Y-37084000D02*
X24375000Y-37084000D01*
X26342000Y-36821000D02*
X26670000Y-37149000D01*
X24638000Y-36821000D02*
X26342000Y-36821000D01*
X26876000Y-27559000D02*
X26880000Y-27555000D01*
X24968200Y-27559000D02*
X26876000Y-27559000D01*
X27044599Y-23857003D02*
X26644600Y-24257002D01*
X33264003Y-23857003D02*
X27044599Y-23857003D01*
X36830000Y-27423000D02*
X33264003Y-23857003D01*
D17*
X29939002Y-32574398D02*
X29242998Y-32574398D01*
X34730000Y-33405000D02*
X35205000Y-33880000D01*
X29242998Y-32574398D02*
X28942198Y-32875198D01*
X35039542Y-35615364D02*
X34823157Y-35398980D01*
X28942198Y-32875198D02*
X28942198Y-33749002D01*
X34080000Y-33405000D02*
X34730000Y-33405000D01*
X35402501Y-33880000D02*
X36064861Y-34542360D01*
X28942198Y-33749002D02*
X29852421Y-34659225D01*
X29852421Y-34659225D02*
X29852421Y-34708692D01*
X35687861Y-35615364D02*
X35039542Y-35615364D01*
X34823157Y-35398980D02*
X32763584Y-35398980D01*
X32763584Y-35398980D02*
X29939002Y-32574398D01*
X36064861Y-35238364D02*
X35687861Y-35615364D01*
X35205000Y-33880000D02*
X35402501Y-33880000D01*
X36064861Y-34542360D02*
X36064861Y-35238364D01*
D16*
X24638000Y-39362000D02*
X24000000Y-40000000D01*
X24638000Y-38871000D02*
X24638000Y-39362000D01*
X34532800Y-42099000D02*
X35255200Y-41376600D01*
X34290000Y-42099000D02*
X34532800Y-42099000D01*
D17*
X34080000Y-29505000D02*
X35900000Y-29505000D01*
X35205000Y-31455000D02*
X35246000Y-31496000D01*
X34080000Y-31455000D02*
X35205000Y-31455000D01*
X35246000Y-31496000D02*
X35788600Y-31496000D01*
X26880000Y-31455000D02*
X25463790Y-31455000D01*
X26880000Y-29505000D02*
X25434820Y-29505000D01*
D16*
X23222200Y-45066200D02*
X22656800Y-44500800D01*
X24341200Y-45066200D02*
X23222200Y-45066200D01*
X22567999Y-42803999D02*
X22567999Y-36233001D01*
X25396000Y-33405000D02*
X26880000Y-33405000D01*
X22567999Y-36233001D02*
X25396000Y-33405000D01*
X25444200Y-45066200D02*
X26416000Y-44094400D01*
X25341200Y-45066200D02*
X25444200Y-45066200D01*
X25341200Y-44513366D02*
X24668234Y-43840400D01*
X25341200Y-45066200D02*
X25341200Y-44513366D01*
X23604400Y-43840400D02*
X22567999Y-42803999D01*
X24668234Y-43840400D02*
X23604400Y-43840400D01*
X27694890Y-25408510D02*
X28065600Y-25037800D01*
X25413233Y-25929965D02*
X27173435Y-25929965D01*
X24168199Y-27174999D02*
X25413233Y-25929965D01*
X24168199Y-27943001D02*
X24168199Y-27174999D01*
X25080198Y-28855000D02*
X24168199Y-27943001D01*
X27173435Y-25929965D02*
X27694890Y-25408510D01*
X26880000Y-28855000D02*
X25080198Y-28855000D01*
X26880000Y-32105000D02*
X27944678Y-32105000D01*
X27944678Y-32105000D02*
X28155001Y-31894677D01*
X28155001Y-28567501D02*
X29065600Y-27656902D01*
X28155001Y-31894677D02*
X28155001Y-28567501D01*
X29065600Y-25037800D02*
X29065600Y-26271600D01*
X29065600Y-26271600D02*
X29065600Y-25317200D01*
X29065600Y-27656902D02*
X29065600Y-26271600D01*
X32159224Y-30584970D02*
X32159224Y-31459224D01*
X32159224Y-31459224D02*
X32805000Y-32105000D01*
X32805000Y-32105000D02*
X34080000Y-32105000D01*
X32159224Y-30584970D02*
X30065600Y-28491346D01*
X30065600Y-25037800D02*
X30065600Y-26154000D01*
X30065600Y-26154000D02*
X30065600Y-25317200D01*
X30065600Y-28491346D02*
X30065600Y-26154000D01*
X32868200Y-28855000D02*
X31065600Y-27052400D01*
X34080000Y-28855000D02*
X32868200Y-28855000D01*
X31065600Y-25037800D02*
X31065600Y-26109800D01*
X31065600Y-26109800D02*
X31065600Y-25317200D01*
X31065600Y-27052400D02*
X31065600Y-26109800D01*
D17*
X34899600Y-45141000D02*
X34824800Y-45066200D01*
X34899600Y-46532800D02*
X34899600Y-45141000D01*
X34599790Y-43966190D02*
X34824800Y-44191200D01*
X33478042Y-43966190D02*
X34599790Y-43966190D01*
X33199790Y-44244442D02*
X33478042Y-43966190D01*
X34824800Y-44191200D02*
X34824800Y-45066200D01*
X33199790Y-44691210D02*
X33199790Y-44244442D01*
X32824800Y-45066200D02*
X33199790Y-44691210D01*
X33782000Y-45109000D02*
X33824800Y-45066200D01*
X33782000Y-46583600D02*
X33782000Y-45109000D01*
X31824800Y-45941200D02*
X31824800Y-45066200D01*
X33171558Y-46166210D02*
X32049810Y-46166210D01*
X33454090Y-45883678D02*
X33171558Y-46166210D01*
X32049810Y-46166210D02*
X31824800Y-45941200D01*
X33454090Y-45436910D02*
X33454090Y-45883678D01*
X33824800Y-45066200D02*
X33454090Y-45436910D01*
X35809601Y-28215001D02*
X35215001Y-28215001D01*
X36154705Y-28560105D02*
X35809601Y-28215001D01*
X36141820Y-28572990D02*
X36154705Y-28560105D01*
X35215001Y-28215001D02*
X35205000Y-28205000D01*
X34290000Y-37149000D02*
X35611602Y-37149000D01*
X37518180Y-28572990D02*
X36141820Y-28572990D01*
X35611602Y-37149000D02*
X38379400Y-34381202D01*
X35205000Y-28205000D02*
X34080000Y-28205000D01*
X38379400Y-34381202D02*
X38379400Y-29434210D01*
X38379400Y-29434210D02*
X37518180Y-28572990D01*
X30480000Y-37149000D02*
X30480000Y-38658800D01*
X26670000Y-40998301D02*
X27744290Y-39924011D01*
X27744290Y-39924011D02*
X28144289Y-39524012D01*
X26670000Y-42099000D02*
X26670000Y-40998301D01*
D18*
X34774174Y-34890362D02*
X35339859Y-34890362D01*
X33358974Y-34890362D02*
X34774174Y-34890362D01*
X29355012Y-30886400D02*
X33358974Y-34890362D01*
X31149990Y-34883790D02*
X30067199Y-33800999D01*
X31149990Y-38312790D02*
X31149990Y-34883790D01*
X30067199Y-33800999D02*
X29667200Y-33401000D01*
X31572200Y-38735000D02*
X31149990Y-38312790D01*
D17*
X31750000Y-37149000D02*
X32447000Y-37149000D01*
X32447000Y-37149000D02*
X33020000Y-37149000D01*
X35013999Y-32854999D02*
X34914000Y-32755000D01*
X34914000Y-32755000D02*
X34080000Y-32755000D01*
X35215001Y-32854999D02*
X35013999Y-32854999D01*
X35280001Y-33121001D02*
X35280001Y-32919999D01*
X35588902Y-33429902D02*
X35280001Y-33121001D01*
X34636758Y-35848990D02*
X34963981Y-36176213D01*
X34963981Y-36176213D02*
X35947981Y-36176213D01*
X32447000Y-37149000D02*
X33747009Y-35848991D01*
X36347400Y-35776794D02*
X36347400Y-35592236D01*
X33747009Y-35848991D02*
X34636758Y-35848990D01*
X35947981Y-36176213D02*
X36347400Y-35776794D01*
X36514870Y-34355959D02*
X35588902Y-33429991D01*
X36347400Y-35592236D02*
X36514872Y-35424764D01*
X35588902Y-33429991D02*
X35588902Y-33429902D01*
X35280001Y-32919999D02*
X35215001Y-32854999D01*
X36514872Y-35424764D02*
X36514870Y-34355959D01*
X27940000Y-41024000D02*
X29052000Y-39912000D01*
X27940000Y-42099000D02*
X27940000Y-41024000D01*
X27940000Y-38224000D02*
X27940000Y-37149000D01*
X29052000Y-39336000D02*
X27940000Y-38224000D01*
X29052000Y-39542200D02*
X29052000Y-39336000D01*
X29052000Y-39912000D02*
X29052000Y-39542200D01*
D18*
X29810010Y-36137598D02*
X29152411Y-35479999D01*
X28055001Y-27960379D02*
X28055001Y-27089999D01*
X29152411Y-35479999D02*
X29152410Y-34560270D01*
X29052000Y-39542200D02*
X29052000Y-38918412D01*
X28505012Y-32357112D02*
X28655012Y-32207112D01*
X28655012Y-32207112D02*
X28655012Y-29251492D01*
X27694968Y-26729966D02*
X27565685Y-26729966D01*
X28655012Y-29251492D02*
X28774687Y-29131817D01*
X26880000Y-28205000D02*
X27810380Y-28205000D01*
X28055001Y-27089999D02*
X27694968Y-26729966D01*
X27810380Y-28205000D02*
X28055001Y-27960379D01*
X29052000Y-38918412D02*
X29810010Y-38160402D01*
X28774687Y-29131817D02*
X29174686Y-28731818D01*
X29810010Y-38160402D02*
X29810010Y-36137598D01*
X29152410Y-34560270D02*
X28505012Y-33912872D01*
X28505012Y-33912872D02*
X28505012Y-32357112D01*
X27565685Y-26729966D02*
X27000000Y-26729966D01*
D17*
X28080001Y-34088917D02*
X28080001Y-32830001D01*
X28080001Y-32830001D02*
X28005000Y-32755000D01*
X28727400Y-34736316D02*
X28080001Y-34088917D01*
X28727400Y-36666400D02*
X28727400Y-34736316D01*
X29210000Y-37149000D02*
X28727400Y-36666400D01*
X28005000Y-32755000D02*
X26880000Y-32755000D01*
D19*
G36*
X23333063Y-27903363D02*
G01*
X23329159Y-27943001D01*
X23333199Y-27984019D01*
X23345281Y-28106689D01*
X23393027Y-28264087D01*
X23470563Y-28409146D01*
X23574908Y-28536292D01*
X23606778Y-28562447D01*
X24460756Y-29416426D01*
X24486907Y-29448291D01*
X24614052Y-29552636D01*
X24759111Y-29630172D01*
X24916509Y-29677918D01*
X25039179Y-29690000D01*
X25039189Y-29690000D01*
X25080197Y-29694039D01*
X25121205Y-29690000D01*
X25828393Y-29690000D01*
X25880518Y-29705812D01*
X26005000Y-29718072D01*
X27320002Y-29718072D01*
X27320001Y-31241928D01*
X26005000Y-31241928D01*
X25880518Y-31254188D01*
X25760820Y-31290498D01*
X25650506Y-31349463D01*
X25553815Y-31428815D01*
X25474463Y-31525506D01*
X25415498Y-31635820D01*
X25379188Y-31755518D01*
X25366928Y-31880000D01*
X25366928Y-32040198D01*
X20685000Y-35134691D01*
X20685000Y-26463188D01*
X23333063Y-27903363D01*
X23333063Y-27903363D01*
G37*
X23333063Y-27903363D02*
X23329159Y-27943001D01*
X23333199Y-27984019D01*
X23345281Y-28106689D01*
X23393027Y-28264087D01*
X23470563Y-28409146D01*
X23574908Y-28536292D01*
X23606778Y-28562447D01*
X24460756Y-29416426D01*
X24486907Y-29448291D01*
X24614052Y-29552636D01*
X24759111Y-29630172D01*
X24916509Y-29677918D01*
X25039179Y-29690000D01*
X25039189Y-29690000D01*
X25080197Y-29694039D01*
X25121205Y-29690000D01*
X25828393Y-29690000D01*
X25880518Y-29705812D01*
X26005000Y-29718072D01*
X27320002Y-29718072D01*
X27320001Y-31241928D01*
X26005000Y-31241928D01*
X25880518Y-31254188D01*
X25760820Y-31290498D01*
X25650506Y-31349463D01*
X25553815Y-31428815D01*
X25474463Y-31525506D01*
X25415498Y-31635820D01*
X25379188Y-31755518D01*
X25366928Y-31880000D01*
X25366928Y-32040198D01*
X20685000Y-35134691D01*
X20685000Y-26463188D01*
X23333063Y-27903363D01*
G36*
X35653750Y-29346000D02*
G01*
X36703000Y-29346000D01*
X36703000Y-29332990D01*
X36957000Y-29332990D01*
X36957000Y-29346000D01*
X36977000Y-29346000D01*
X36977000Y-29600000D01*
X36957000Y-29600000D01*
X36957000Y-30524250D01*
X37115750Y-30683000D01*
X37530000Y-30686072D01*
X37619401Y-30677267D01*
X37619400Y-34066399D01*
X37274869Y-34410930D01*
X37274869Y-34393300D01*
X37278547Y-34355959D01*
X37263873Y-34206973D01*
X37220416Y-34063712D01*
X37149844Y-33931683D01*
X37078669Y-33844956D01*
X37078664Y-33844951D01*
X37054869Y-33815957D01*
X37025878Y-33792165D01*
X36153112Y-32919400D01*
X36128903Y-32889901D01*
X36099899Y-32866098D01*
X36031647Y-32797846D01*
X36029004Y-32771014D01*
X35985547Y-32627753D01*
X35914975Y-32495723D01*
X35820002Y-32379998D01*
X35790998Y-32356195D01*
X35778805Y-32344002D01*
X35755002Y-32314998D01*
X35639277Y-32220025D01*
X35606794Y-32202663D01*
X35601133Y-32183999D01*
X35593072Y-32168918D01*
X35593072Y-31880000D01*
X35580812Y-31755518D01*
X35544502Y-31635820D01*
X35485537Y-31525506D01*
X35406185Y-31428815D01*
X35309494Y-31349463D01*
X35199180Y-31290498D01*
X35079482Y-31254188D01*
X34955000Y-31241928D01*
X33205000Y-31241928D01*
X33130166Y-31249298D01*
X32994224Y-31113357D01*
X32994224Y-30625977D01*
X32998263Y-30584969D01*
X32994224Y-30543961D01*
X32994224Y-30543951D01*
X32982142Y-30421281D01*
X32969200Y-30378617D01*
X32969200Y-30048000D01*
X35491928Y-30048000D01*
X35504188Y-30172482D01*
X35540498Y-30292180D01*
X35599463Y-30402494D01*
X35678815Y-30499185D01*
X35775506Y-30578537D01*
X35885820Y-30637502D01*
X36005518Y-30673812D01*
X36130000Y-30686072D01*
X36544250Y-30683000D01*
X36703000Y-30524250D01*
X36703000Y-29600000D01*
X35653750Y-29600000D01*
X35495000Y-29758750D01*
X35491928Y-30048000D01*
X32969200Y-30048000D01*
X32969200Y-29690000D01*
X33028393Y-29690000D01*
X33080518Y-29705812D01*
X33205000Y-29718072D01*
X34955000Y-29718072D01*
X35079482Y-29705812D01*
X35199180Y-29669502D01*
X35309494Y-29610537D01*
X35406185Y-29531185D01*
X35485537Y-29434494D01*
X35544502Y-29324180D01*
X35564850Y-29257100D01*
X35653750Y-29346000D01*
X35653750Y-29346000D01*
G37*
X35653750Y-29346000D02*
X36703000Y-29346000D01*
X36703000Y-29332990D01*
X36957000Y-29332990D01*
X36957000Y-29346000D01*
X36977000Y-29346000D01*
X36977000Y-29600000D01*
X36957000Y-29600000D01*
X36957000Y-30524250D01*
X37115750Y-30683000D01*
X37530000Y-30686072D01*
X37619401Y-30677267D01*
X37619400Y-34066399D01*
X37274869Y-34410930D01*
X37274869Y-34393300D01*
X37278547Y-34355959D01*
X37263873Y-34206973D01*
X37220416Y-34063712D01*
X37149844Y-33931683D01*
X37078669Y-33844956D01*
X37078664Y-33844951D01*
X37054869Y-33815957D01*
X37025878Y-33792165D01*
X36153112Y-32919400D01*
X36128903Y-32889901D01*
X36099899Y-32866098D01*
X36031647Y-32797846D01*
X36029004Y-32771014D01*
X35985547Y-32627753D01*
X35914975Y-32495723D01*
X35820002Y-32379998D01*
X35790998Y-32356195D01*
X35778805Y-32344002D01*
X35755002Y-32314998D01*
X35639277Y-32220025D01*
X35606794Y-32202663D01*
X35601133Y-32183999D01*
X35593072Y-32168918D01*
X35593072Y-31880000D01*
X35580812Y-31755518D01*
X35544502Y-31635820D01*
X35485537Y-31525506D01*
X35406185Y-31428815D01*
X35309494Y-31349463D01*
X35199180Y-31290498D01*
X35079482Y-31254188D01*
X34955000Y-31241928D01*
X33205000Y-31241928D01*
X33130166Y-31249298D01*
X32994224Y-31113357D01*
X32994224Y-30625977D01*
X32998263Y-30584969D01*
X32994224Y-30543961D01*
X32994224Y-30543951D01*
X32982142Y-30421281D01*
X32969200Y-30378617D01*
X32969200Y-30048000D01*
X35491928Y-30048000D01*
X35504188Y-30172482D01*
X35540498Y-30292180D01*
X35599463Y-30402494D01*
X35678815Y-30499185D01*
X35775506Y-30578537D01*
X35885820Y-30637502D01*
X36005518Y-30673812D01*
X36130000Y-30686072D01*
X36544250Y-30683000D01*
X36703000Y-30524250D01*
X36703000Y-29600000D01*
X35653750Y-29600000D01*
X35495000Y-29758750D01*
X35491928Y-30048000D01*
X32969200Y-30048000D01*
X32969200Y-29690000D01*
X33028393Y-29690000D01*
X33080518Y-29705812D01*
X33205000Y-29718072D01*
X34955000Y-29718072D01*
X35079482Y-29705812D01*
X35199180Y-29669502D01*
X35309494Y-29610537D01*
X35406185Y-29531185D01*
X35485537Y-29434494D01*
X35544502Y-29324180D01*
X35564850Y-29257100D01*
X35653750Y-29346000D01*
M02*
