G04 #@! TF.GenerationSoftware,KiCad,Pcbnew,5.1.2-f72e74a~84~ubuntu16.04.1*
G04 #@! TF.CreationDate,2019-06-21T14:24:11+02:00*
G04 #@! TF.ProjectId,microstepper,6d696372-6f73-4746-9570-7065722e6b69,rev?*
G04 #@! TF.SameCoordinates,Original*
G04 #@! TF.FileFunction,Copper,L2,Bot*
G04 #@! TF.FilePolarity,Positive*
%FSLAX46Y46*%
G04 Gerber Fmt 4.6, Leading zero omitted, Abs format (unit mm)*
G04 Created by KiCad (PCBNEW 5.1.2-f72e74a~84~ubuntu16.04.1) date 2019-06-21 14:24:11*
%MOMM*%
%LPD*%
G04 APERTURE LIST*
%ADD10C,0.100000*%
%ADD11C,1.150000*%
%ADD12C,0.600000*%
%ADD13R,0.900000X0.800000*%
%ADD14C,0.800000*%
%ADD15C,0.400000*%
%ADD16C,0.250000*%
%ADD17C,0.200000*%
%ADD18C,0.254000*%
G04 APERTURE END LIST*
D10*
G36*
X33665305Y-47535804D02*
G01*
X33689573Y-47539404D01*
X33713372Y-47545365D01*
X33736471Y-47553630D01*
X33758650Y-47564120D01*
X33779693Y-47576732D01*
X33799399Y-47591347D01*
X33817577Y-47607823D01*
X33834053Y-47626001D01*
X33848668Y-47645707D01*
X33861280Y-47666750D01*
X33871770Y-47688929D01*
X33880035Y-47712028D01*
X33885996Y-47735827D01*
X33889596Y-47760095D01*
X33890800Y-47784599D01*
X33890800Y-48684601D01*
X33889596Y-48709105D01*
X33885996Y-48733373D01*
X33880035Y-48757172D01*
X33871770Y-48780271D01*
X33861280Y-48802450D01*
X33848668Y-48823493D01*
X33834053Y-48843199D01*
X33817577Y-48861377D01*
X33799399Y-48877853D01*
X33779693Y-48892468D01*
X33758650Y-48905080D01*
X33736471Y-48915570D01*
X33713372Y-48923835D01*
X33689573Y-48929796D01*
X33665305Y-48933396D01*
X33640801Y-48934600D01*
X32990799Y-48934600D01*
X32966295Y-48933396D01*
X32942027Y-48929796D01*
X32918228Y-48923835D01*
X32895129Y-48915570D01*
X32872950Y-48905080D01*
X32851907Y-48892468D01*
X32832201Y-48877853D01*
X32814023Y-48861377D01*
X32797547Y-48843199D01*
X32782932Y-48823493D01*
X32770320Y-48802450D01*
X32759830Y-48780271D01*
X32751565Y-48757172D01*
X32745604Y-48733373D01*
X32742004Y-48709105D01*
X32740800Y-48684601D01*
X32740800Y-47784599D01*
X32742004Y-47760095D01*
X32745604Y-47735827D01*
X32751565Y-47712028D01*
X32759830Y-47688929D01*
X32770320Y-47666750D01*
X32782932Y-47645707D01*
X32797547Y-47626001D01*
X32814023Y-47607823D01*
X32832201Y-47591347D01*
X32851907Y-47576732D01*
X32872950Y-47564120D01*
X32895129Y-47553630D01*
X32918228Y-47545365D01*
X32942027Y-47539404D01*
X32966295Y-47535804D01*
X32990799Y-47534600D01*
X33640801Y-47534600D01*
X33665305Y-47535804D01*
X33665305Y-47535804D01*
G37*
D11*
X33315800Y-48234600D03*
D10*
G36*
X35715305Y-47535804D02*
G01*
X35739573Y-47539404D01*
X35763372Y-47545365D01*
X35786471Y-47553630D01*
X35808650Y-47564120D01*
X35829693Y-47576732D01*
X35849399Y-47591347D01*
X35867577Y-47607823D01*
X35884053Y-47626001D01*
X35898668Y-47645707D01*
X35911280Y-47666750D01*
X35921770Y-47688929D01*
X35930035Y-47712028D01*
X35935996Y-47735827D01*
X35939596Y-47760095D01*
X35940800Y-47784599D01*
X35940800Y-48684601D01*
X35939596Y-48709105D01*
X35935996Y-48733373D01*
X35930035Y-48757172D01*
X35921770Y-48780271D01*
X35911280Y-48802450D01*
X35898668Y-48823493D01*
X35884053Y-48843199D01*
X35867577Y-48861377D01*
X35849399Y-48877853D01*
X35829693Y-48892468D01*
X35808650Y-48905080D01*
X35786471Y-48915570D01*
X35763372Y-48923835D01*
X35739573Y-48929796D01*
X35715305Y-48933396D01*
X35690801Y-48934600D01*
X35040799Y-48934600D01*
X35016295Y-48933396D01*
X34992027Y-48929796D01*
X34968228Y-48923835D01*
X34945129Y-48915570D01*
X34922950Y-48905080D01*
X34901907Y-48892468D01*
X34882201Y-48877853D01*
X34864023Y-48861377D01*
X34847547Y-48843199D01*
X34832932Y-48823493D01*
X34820320Y-48802450D01*
X34809830Y-48780271D01*
X34801565Y-48757172D01*
X34795604Y-48733373D01*
X34792004Y-48709105D01*
X34790800Y-48684601D01*
X34790800Y-47784599D01*
X34792004Y-47760095D01*
X34795604Y-47735827D01*
X34801565Y-47712028D01*
X34809830Y-47688929D01*
X34820320Y-47666750D01*
X34832932Y-47645707D01*
X34847547Y-47626001D01*
X34864023Y-47607823D01*
X34882201Y-47591347D01*
X34901907Y-47576732D01*
X34922950Y-47564120D01*
X34945129Y-47553630D01*
X34968228Y-47545365D01*
X34992027Y-47539404D01*
X35016295Y-47535804D01*
X35040799Y-47534600D01*
X35690801Y-47534600D01*
X35715305Y-47535804D01*
X35715305Y-47535804D01*
G37*
D11*
X35365800Y-48234600D03*
D10*
G36*
X33794703Y-33101722D02*
G01*
X33809264Y-33103882D01*
X33823543Y-33107459D01*
X33837403Y-33112418D01*
X33850710Y-33118712D01*
X33863336Y-33126280D01*
X33875159Y-33135048D01*
X33886066Y-33144934D01*
X33895952Y-33155841D01*
X33904720Y-33167664D01*
X33912288Y-33180290D01*
X33918582Y-33193597D01*
X33923541Y-33207457D01*
X33927118Y-33221736D01*
X33929278Y-33236297D01*
X33930000Y-33251000D01*
X33930000Y-33551000D01*
X33929278Y-33565703D01*
X33927118Y-33580264D01*
X33923541Y-33594543D01*
X33918582Y-33608403D01*
X33912288Y-33621710D01*
X33904720Y-33634336D01*
X33895952Y-33646159D01*
X33886066Y-33657066D01*
X33875159Y-33666952D01*
X33863336Y-33675720D01*
X33850710Y-33683288D01*
X33837403Y-33689582D01*
X33823543Y-33694541D01*
X33809264Y-33698118D01*
X33794703Y-33700278D01*
X33780000Y-33701000D01*
X32130000Y-33701000D01*
X32115297Y-33700278D01*
X32100736Y-33698118D01*
X32086457Y-33694541D01*
X32072597Y-33689582D01*
X32059290Y-33683288D01*
X32046664Y-33675720D01*
X32034841Y-33666952D01*
X32023934Y-33657066D01*
X32014048Y-33646159D01*
X32005280Y-33634336D01*
X31997712Y-33621710D01*
X31991418Y-33608403D01*
X31986459Y-33594543D01*
X31982882Y-33580264D01*
X31980722Y-33565703D01*
X31980000Y-33551000D01*
X31980000Y-33251000D01*
X31980722Y-33236297D01*
X31982882Y-33221736D01*
X31986459Y-33207457D01*
X31991418Y-33193597D01*
X31997712Y-33180290D01*
X32005280Y-33167664D01*
X32014048Y-33155841D01*
X32023934Y-33144934D01*
X32034841Y-33135048D01*
X32046664Y-33126280D01*
X32059290Y-33118712D01*
X32072597Y-33112418D01*
X32086457Y-33107459D01*
X32100736Y-33103882D01*
X32115297Y-33101722D01*
X32130000Y-33101000D01*
X33780000Y-33101000D01*
X33794703Y-33101722D01*
X33794703Y-33101722D01*
G37*
D12*
X32955000Y-33401000D03*
D10*
G36*
X33794703Y-31831722D02*
G01*
X33809264Y-31833882D01*
X33823543Y-31837459D01*
X33837403Y-31842418D01*
X33850710Y-31848712D01*
X33863336Y-31856280D01*
X33875159Y-31865048D01*
X33886066Y-31874934D01*
X33895952Y-31885841D01*
X33904720Y-31897664D01*
X33912288Y-31910290D01*
X33918582Y-31923597D01*
X33923541Y-31937457D01*
X33927118Y-31951736D01*
X33929278Y-31966297D01*
X33930000Y-31981000D01*
X33930000Y-32281000D01*
X33929278Y-32295703D01*
X33927118Y-32310264D01*
X33923541Y-32324543D01*
X33918582Y-32338403D01*
X33912288Y-32351710D01*
X33904720Y-32364336D01*
X33895952Y-32376159D01*
X33886066Y-32387066D01*
X33875159Y-32396952D01*
X33863336Y-32405720D01*
X33850710Y-32413288D01*
X33837403Y-32419582D01*
X33823543Y-32424541D01*
X33809264Y-32428118D01*
X33794703Y-32430278D01*
X33780000Y-32431000D01*
X32130000Y-32431000D01*
X32115297Y-32430278D01*
X32100736Y-32428118D01*
X32086457Y-32424541D01*
X32072597Y-32419582D01*
X32059290Y-32413288D01*
X32046664Y-32405720D01*
X32034841Y-32396952D01*
X32023934Y-32387066D01*
X32014048Y-32376159D01*
X32005280Y-32364336D01*
X31997712Y-32351710D01*
X31991418Y-32338403D01*
X31986459Y-32324543D01*
X31982882Y-32310264D01*
X31980722Y-32295703D01*
X31980000Y-32281000D01*
X31980000Y-31981000D01*
X31980722Y-31966297D01*
X31982882Y-31951736D01*
X31986459Y-31937457D01*
X31991418Y-31923597D01*
X31997712Y-31910290D01*
X32005280Y-31897664D01*
X32014048Y-31885841D01*
X32023934Y-31874934D01*
X32034841Y-31865048D01*
X32046664Y-31856280D01*
X32059290Y-31848712D01*
X32072597Y-31842418D01*
X32086457Y-31837459D01*
X32100736Y-31833882D01*
X32115297Y-31831722D01*
X32130000Y-31831000D01*
X33780000Y-31831000D01*
X33794703Y-31831722D01*
X33794703Y-31831722D01*
G37*
D12*
X32955000Y-32131000D03*
D10*
G36*
X33794703Y-30561722D02*
G01*
X33809264Y-30563882D01*
X33823543Y-30567459D01*
X33837403Y-30572418D01*
X33850710Y-30578712D01*
X33863336Y-30586280D01*
X33875159Y-30595048D01*
X33886066Y-30604934D01*
X33895952Y-30615841D01*
X33904720Y-30627664D01*
X33912288Y-30640290D01*
X33918582Y-30653597D01*
X33923541Y-30667457D01*
X33927118Y-30681736D01*
X33929278Y-30696297D01*
X33930000Y-30711000D01*
X33930000Y-31011000D01*
X33929278Y-31025703D01*
X33927118Y-31040264D01*
X33923541Y-31054543D01*
X33918582Y-31068403D01*
X33912288Y-31081710D01*
X33904720Y-31094336D01*
X33895952Y-31106159D01*
X33886066Y-31117066D01*
X33875159Y-31126952D01*
X33863336Y-31135720D01*
X33850710Y-31143288D01*
X33837403Y-31149582D01*
X33823543Y-31154541D01*
X33809264Y-31158118D01*
X33794703Y-31160278D01*
X33780000Y-31161000D01*
X32130000Y-31161000D01*
X32115297Y-31160278D01*
X32100736Y-31158118D01*
X32086457Y-31154541D01*
X32072597Y-31149582D01*
X32059290Y-31143288D01*
X32046664Y-31135720D01*
X32034841Y-31126952D01*
X32023934Y-31117066D01*
X32014048Y-31106159D01*
X32005280Y-31094336D01*
X31997712Y-31081710D01*
X31991418Y-31068403D01*
X31986459Y-31054543D01*
X31982882Y-31040264D01*
X31980722Y-31025703D01*
X31980000Y-31011000D01*
X31980000Y-30711000D01*
X31980722Y-30696297D01*
X31982882Y-30681736D01*
X31986459Y-30667457D01*
X31991418Y-30653597D01*
X31997712Y-30640290D01*
X32005280Y-30627664D01*
X32014048Y-30615841D01*
X32023934Y-30604934D01*
X32034841Y-30595048D01*
X32046664Y-30586280D01*
X32059290Y-30578712D01*
X32072597Y-30572418D01*
X32086457Y-30567459D01*
X32100736Y-30563882D01*
X32115297Y-30561722D01*
X32130000Y-30561000D01*
X33780000Y-30561000D01*
X33794703Y-30561722D01*
X33794703Y-30561722D01*
G37*
D12*
X32955000Y-30861000D03*
D10*
G36*
X33794703Y-29291722D02*
G01*
X33809264Y-29293882D01*
X33823543Y-29297459D01*
X33837403Y-29302418D01*
X33850710Y-29308712D01*
X33863336Y-29316280D01*
X33875159Y-29325048D01*
X33886066Y-29334934D01*
X33895952Y-29345841D01*
X33904720Y-29357664D01*
X33912288Y-29370290D01*
X33918582Y-29383597D01*
X33923541Y-29397457D01*
X33927118Y-29411736D01*
X33929278Y-29426297D01*
X33930000Y-29441000D01*
X33930000Y-29741000D01*
X33929278Y-29755703D01*
X33927118Y-29770264D01*
X33923541Y-29784543D01*
X33918582Y-29798403D01*
X33912288Y-29811710D01*
X33904720Y-29824336D01*
X33895952Y-29836159D01*
X33886066Y-29847066D01*
X33875159Y-29856952D01*
X33863336Y-29865720D01*
X33850710Y-29873288D01*
X33837403Y-29879582D01*
X33823543Y-29884541D01*
X33809264Y-29888118D01*
X33794703Y-29890278D01*
X33780000Y-29891000D01*
X32130000Y-29891000D01*
X32115297Y-29890278D01*
X32100736Y-29888118D01*
X32086457Y-29884541D01*
X32072597Y-29879582D01*
X32059290Y-29873288D01*
X32046664Y-29865720D01*
X32034841Y-29856952D01*
X32023934Y-29847066D01*
X32014048Y-29836159D01*
X32005280Y-29824336D01*
X31997712Y-29811710D01*
X31991418Y-29798403D01*
X31986459Y-29784543D01*
X31982882Y-29770264D01*
X31980722Y-29755703D01*
X31980000Y-29741000D01*
X31980000Y-29441000D01*
X31980722Y-29426297D01*
X31982882Y-29411736D01*
X31986459Y-29397457D01*
X31991418Y-29383597D01*
X31997712Y-29370290D01*
X32005280Y-29357664D01*
X32014048Y-29345841D01*
X32023934Y-29334934D01*
X32034841Y-29325048D01*
X32046664Y-29316280D01*
X32059290Y-29308712D01*
X32072597Y-29302418D01*
X32086457Y-29297459D01*
X32100736Y-29293882D01*
X32115297Y-29291722D01*
X32130000Y-29291000D01*
X33780000Y-29291000D01*
X33794703Y-29291722D01*
X33794703Y-29291722D01*
G37*
D12*
X32955000Y-29591000D03*
D10*
G36*
X28844703Y-29291722D02*
G01*
X28859264Y-29293882D01*
X28873543Y-29297459D01*
X28887403Y-29302418D01*
X28900710Y-29308712D01*
X28913336Y-29316280D01*
X28925159Y-29325048D01*
X28936066Y-29334934D01*
X28945952Y-29345841D01*
X28954720Y-29357664D01*
X28962288Y-29370290D01*
X28968582Y-29383597D01*
X28973541Y-29397457D01*
X28977118Y-29411736D01*
X28979278Y-29426297D01*
X28980000Y-29441000D01*
X28980000Y-29741000D01*
X28979278Y-29755703D01*
X28977118Y-29770264D01*
X28973541Y-29784543D01*
X28968582Y-29798403D01*
X28962288Y-29811710D01*
X28954720Y-29824336D01*
X28945952Y-29836159D01*
X28936066Y-29847066D01*
X28925159Y-29856952D01*
X28913336Y-29865720D01*
X28900710Y-29873288D01*
X28887403Y-29879582D01*
X28873543Y-29884541D01*
X28859264Y-29888118D01*
X28844703Y-29890278D01*
X28830000Y-29891000D01*
X27180000Y-29891000D01*
X27165297Y-29890278D01*
X27150736Y-29888118D01*
X27136457Y-29884541D01*
X27122597Y-29879582D01*
X27109290Y-29873288D01*
X27096664Y-29865720D01*
X27084841Y-29856952D01*
X27073934Y-29847066D01*
X27064048Y-29836159D01*
X27055280Y-29824336D01*
X27047712Y-29811710D01*
X27041418Y-29798403D01*
X27036459Y-29784543D01*
X27032882Y-29770264D01*
X27030722Y-29755703D01*
X27030000Y-29741000D01*
X27030000Y-29441000D01*
X27030722Y-29426297D01*
X27032882Y-29411736D01*
X27036459Y-29397457D01*
X27041418Y-29383597D01*
X27047712Y-29370290D01*
X27055280Y-29357664D01*
X27064048Y-29345841D01*
X27073934Y-29334934D01*
X27084841Y-29325048D01*
X27096664Y-29316280D01*
X27109290Y-29308712D01*
X27122597Y-29302418D01*
X27136457Y-29297459D01*
X27150736Y-29293882D01*
X27165297Y-29291722D01*
X27180000Y-29291000D01*
X28830000Y-29291000D01*
X28844703Y-29291722D01*
X28844703Y-29291722D01*
G37*
D12*
X28005000Y-29591000D03*
D10*
G36*
X28844703Y-30561722D02*
G01*
X28859264Y-30563882D01*
X28873543Y-30567459D01*
X28887403Y-30572418D01*
X28900710Y-30578712D01*
X28913336Y-30586280D01*
X28925159Y-30595048D01*
X28936066Y-30604934D01*
X28945952Y-30615841D01*
X28954720Y-30627664D01*
X28962288Y-30640290D01*
X28968582Y-30653597D01*
X28973541Y-30667457D01*
X28977118Y-30681736D01*
X28979278Y-30696297D01*
X28980000Y-30711000D01*
X28980000Y-31011000D01*
X28979278Y-31025703D01*
X28977118Y-31040264D01*
X28973541Y-31054543D01*
X28968582Y-31068403D01*
X28962288Y-31081710D01*
X28954720Y-31094336D01*
X28945952Y-31106159D01*
X28936066Y-31117066D01*
X28925159Y-31126952D01*
X28913336Y-31135720D01*
X28900710Y-31143288D01*
X28887403Y-31149582D01*
X28873543Y-31154541D01*
X28859264Y-31158118D01*
X28844703Y-31160278D01*
X28830000Y-31161000D01*
X27180000Y-31161000D01*
X27165297Y-31160278D01*
X27150736Y-31158118D01*
X27136457Y-31154541D01*
X27122597Y-31149582D01*
X27109290Y-31143288D01*
X27096664Y-31135720D01*
X27084841Y-31126952D01*
X27073934Y-31117066D01*
X27064048Y-31106159D01*
X27055280Y-31094336D01*
X27047712Y-31081710D01*
X27041418Y-31068403D01*
X27036459Y-31054543D01*
X27032882Y-31040264D01*
X27030722Y-31025703D01*
X27030000Y-31011000D01*
X27030000Y-30711000D01*
X27030722Y-30696297D01*
X27032882Y-30681736D01*
X27036459Y-30667457D01*
X27041418Y-30653597D01*
X27047712Y-30640290D01*
X27055280Y-30627664D01*
X27064048Y-30615841D01*
X27073934Y-30604934D01*
X27084841Y-30595048D01*
X27096664Y-30586280D01*
X27109290Y-30578712D01*
X27122597Y-30572418D01*
X27136457Y-30567459D01*
X27150736Y-30563882D01*
X27165297Y-30561722D01*
X27180000Y-30561000D01*
X28830000Y-30561000D01*
X28844703Y-30561722D01*
X28844703Y-30561722D01*
G37*
D12*
X28005000Y-30861000D03*
D10*
G36*
X28844703Y-31831722D02*
G01*
X28859264Y-31833882D01*
X28873543Y-31837459D01*
X28887403Y-31842418D01*
X28900710Y-31848712D01*
X28913336Y-31856280D01*
X28925159Y-31865048D01*
X28936066Y-31874934D01*
X28945952Y-31885841D01*
X28954720Y-31897664D01*
X28962288Y-31910290D01*
X28968582Y-31923597D01*
X28973541Y-31937457D01*
X28977118Y-31951736D01*
X28979278Y-31966297D01*
X28980000Y-31981000D01*
X28980000Y-32281000D01*
X28979278Y-32295703D01*
X28977118Y-32310264D01*
X28973541Y-32324543D01*
X28968582Y-32338403D01*
X28962288Y-32351710D01*
X28954720Y-32364336D01*
X28945952Y-32376159D01*
X28936066Y-32387066D01*
X28925159Y-32396952D01*
X28913336Y-32405720D01*
X28900710Y-32413288D01*
X28887403Y-32419582D01*
X28873543Y-32424541D01*
X28859264Y-32428118D01*
X28844703Y-32430278D01*
X28830000Y-32431000D01*
X27180000Y-32431000D01*
X27165297Y-32430278D01*
X27150736Y-32428118D01*
X27136457Y-32424541D01*
X27122597Y-32419582D01*
X27109290Y-32413288D01*
X27096664Y-32405720D01*
X27084841Y-32396952D01*
X27073934Y-32387066D01*
X27064048Y-32376159D01*
X27055280Y-32364336D01*
X27047712Y-32351710D01*
X27041418Y-32338403D01*
X27036459Y-32324543D01*
X27032882Y-32310264D01*
X27030722Y-32295703D01*
X27030000Y-32281000D01*
X27030000Y-31981000D01*
X27030722Y-31966297D01*
X27032882Y-31951736D01*
X27036459Y-31937457D01*
X27041418Y-31923597D01*
X27047712Y-31910290D01*
X27055280Y-31897664D01*
X27064048Y-31885841D01*
X27073934Y-31874934D01*
X27084841Y-31865048D01*
X27096664Y-31856280D01*
X27109290Y-31848712D01*
X27122597Y-31842418D01*
X27136457Y-31837459D01*
X27150736Y-31833882D01*
X27165297Y-31831722D01*
X27180000Y-31831000D01*
X28830000Y-31831000D01*
X28844703Y-31831722D01*
X28844703Y-31831722D01*
G37*
D12*
X28005000Y-32131000D03*
D10*
G36*
X28844703Y-33101722D02*
G01*
X28859264Y-33103882D01*
X28873543Y-33107459D01*
X28887403Y-33112418D01*
X28900710Y-33118712D01*
X28913336Y-33126280D01*
X28925159Y-33135048D01*
X28936066Y-33144934D01*
X28945952Y-33155841D01*
X28954720Y-33167664D01*
X28962288Y-33180290D01*
X28968582Y-33193597D01*
X28973541Y-33207457D01*
X28977118Y-33221736D01*
X28979278Y-33236297D01*
X28980000Y-33251000D01*
X28980000Y-33551000D01*
X28979278Y-33565703D01*
X28977118Y-33580264D01*
X28973541Y-33594543D01*
X28968582Y-33608403D01*
X28962288Y-33621710D01*
X28954720Y-33634336D01*
X28945952Y-33646159D01*
X28936066Y-33657066D01*
X28925159Y-33666952D01*
X28913336Y-33675720D01*
X28900710Y-33683288D01*
X28887403Y-33689582D01*
X28873543Y-33694541D01*
X28859264Y-33698118D01*
X28844703Y-33700278D01*
X28830000Y-33701000D01*
X27180000Y-33701000D01*
X27165297Y-33700278D01*
X27150736Y-33698118D01*
X27136457Y-33694541D01*
X27122597Y-33689582D01*
X27109290Y-33683288D01*
X27096664Y-33675720D01*
X27084841Y-33666952D01*
X27073934Y-33657066D01*
X27064048Y-33646159D01*
X27055280Y-33634336D01*
X27047712Y-33621710D01*
X27041418Y-33608403D01*
X27036459Y-33594543D01*
X27032882Y-33580264D01*
X27030722Y-33565703D01*
X27030000Y-33551000D01*
X27030000Y-33251000D01*
X27030722Y-33236297D01*
X27032882Y-33221736D01*
X27036459Y-33207457D01*
X27041418Y-33193597D01*
X27047712Y-33180290D01*
X27055280Y-33167664D01*
X27064048Y-33155841D01*
X27073934Y-33144934D01*
X27084841Y-33135048D01*
X27096664Y-33126280D01*
X27109290Y-33118712D01*
X27122597Y-33112418D01*
X27136457Y-33107459D01*
X27150736Y-33103882D01*
X27165297Y-33101722D01*
X27180000Y-33101000D01*
X28830000Y-33101000D01*
X28844703Y-33101722D01*
X28844703Y-33101722D01*
G37*
D12*
X28005000Y-33401000D03*
D10*
G36*
X32549703Y-42648722D02*
G01*
X32564264Y-42650882D01*
X32578543Y-42654459D01*
X32592403Y-42659418D01*
X32605710Y-42665712D01*
X32618336Y-42673280D01*
X32630159Y-42682048D01*
X32641066Y-42691934D01*
X32650952Y-42702841D01*
X32659720Y-42714664D01*
X32667288Y-42727290D01*
X32673582Y-42740597D01*
X32678541Y-42754457D01*
X32682118Y-42768736D01*
X32684278Y-42783297D01*
X32685000Y-42798000D01*
X32685000Y-44448000D01*
X32684278Y-44462703D01*
X32682118Y-44477264D01*
X32678541Y-44491543D01*
X32673582Y-44505403D01*
X32667288Y-44518710D01*
X32659720Y-44531336D01*
X32650952Y-44543159D01*
X32641066Y-44554066D01*
X32630159Y-44563952D01*
X32618336Y-44572720D01*
X32605710Y-44580288D01*
X32592403Y-44586582D01*
X32578543Y-44591541D01*
X32564264Y-44595118D01*
X32549703Y-44597278D01*
X32535000Y-44598000D01*
X32235000Y-44598000D01*
X32220297Y-44597278D01*
X32205736Y-44595118D01*
X32191457Y-44591541D01*
X32177597Y-44586582D01*
X32164290Y-44580288D01*
X32151664Y-44572720D01*
X32139841Y-44563952D01*
X32128934Y-44554066D01*
X32119048Y-44543159D01*
X32110280Y-44531336D01*
X32102712Y-44518710D01*
X32096418Y-44505403D01*
X32091459Y-44491543D01*
X32087882Y-44477264D01*
X32085722Y-44462703D01*
X32085000Y-44448000D01*
X32085000Y-42798000D01*
X32085722Y-42783297D01*
X32087882Y-42768736D01*
X32091459Y-42754457D01*
X32096418Y-42740597D01*
X32102712Y-42727290D01*
X32110280Y-42714664D01*
X32119048Y-42702841D01*
X32128934Y-42691934D01*
X32139841Y-42682048D01*
X32151664Y-42673280D01*
X32164290Y-42665712D01*
X32177597Y-42659418D01*
X32191457Y-42654459D01*
X32205736Y-42650882D01*
X32220297Y-42648722D01*
X32235000Y-42648000D01*
X32535000Y-42648000D01*
X32549703Y-42648722D01*
X32549703Y-42648722D01*
G37*
D12*
X32385000Y-43623000D03*
D10*
G36*
X33819703Y-42648722D02*
G01*
X33834264Y-42650882D01*
X33848543Y-42654459D01*
X33862403Y-42659418D01*
X33875710Y-42665712D01*
X33888336Y-42673280D01*
X33900159Y-42682048D01*
X33911066Y-42691934D01*
X33920952Y-42702841D01*
X33929720Y-42714664D01*
X33937288Y-42727290D01*
X33943582Y-42740597D01*
X33948541Y-42754457D01*
X33952118Y-42768736D01*
X33954278Y-42783297D01*
X33955000Y-42798000D01*
X33955000Y-44448000D01*
X33954278Y-44462703D01*
X33952118Y-44477264D01*
X33948541Y-44491543D01*
X33943582Y-44505403D01*
X33937288Y-44518710D01*
X33929720Y-44531336D01*
X33920952Y-44543159D01*
X33911066Y-44554066D01*
X33900159Y-44563952D01*
X33888336Y-44572720D01*
X33875710Y-44580288D01*
X33862403Y-44586582D01*
X33848543Y-44591541D01*
X33834264Y-44595118D01*
X33819703Y-44597278D01*
X33805000Y-44598000D01*
X33505000Y-44598000D01*
X33490297Y-44597278D01*
X33475736Y-44595118D01*
X33461457Y-44591541D01*
X33447597Y-44586582D01*
X33434290Y-44580288D01*
X33421664Y-44572720D01*
X33409841Y-44563952D01*
X33398934Y-44554066D01*
X33389048Y-44543159D01*
X33380280Y-44531336D01*
X33372712Y-44518710D01*
X33366418Y-44505403D01*
X33361459Y-44491543D01*
X33357882Y-44477264D01*
X33355722Y-44462703D01*
X33355000Y-44448000D01*
X33355000Y-42798000D01*
X33355722Y-42783297D01*
X33357882Y-42768736D01*
X33361459Y-42754457D01*
X33366418Y-42740597D01*
X33372712Y-42727290D01*
X33380280Y-42714664D01*
X33389048Y-42702841D01*
X33398934Y-42691934D01*
X33409841Y-42682048D01*
X33421664Y-42673280D01*
X33434290Y-42665712D01*
X33447597Y-42659418D01*
X33461457Y-42654459D01*
X33475736Y-42650882D01*
X33490297Y-42648722D01*
X33505000Y-42648000D01*
X33805000Y-42648000D01*
X33819703Y-42648722D01*
X33819703Y-42648722D01*
G37*
D12*
X33655000Y-43623000D03*
D10*
G36*
X35089703Y-42648722D02*
G01*
X35104264Y-42650882D01*
X35118543Y-42654459D01*
X35132403Y-42659418D01*
X35145710Y-42665712D01*
X35158336Y-42673280D01*
X35170159Y-42682048D01*
X35181066Y-42691934D01*
X35190952Y-42702841D01*
X35199720Y-42714664D01*
X35207288Y-42727290D01*
X35213582Y-42740597D01*
X35218541Y-42754457D01*
X35222118Y-42768736D01*
X35224278Y-42783297D01*
X35225000Y-42798000D01*
X35225000Y-44448000D01*
X35224278Y-44462703D01*
X35222118Y-44477264D01*
X35218541Y-44491543D01*
X35213582Y-44505403D01*
X35207288Y-44518710D01*
X35199720Y-44531336D01*
X35190952Y-44543159D01*
X35181066Y-44554066D01*
X35170159Y-44563952D01*
X35158336Y-44572720D01*
X35145710Y-44580288D01*
X35132403Y-44586582D01*
X35118543Y-44591541D01*
X35104264Y-44595118D01*
X35089703Y-44597278D01*
X35075000Y-44598000D01*
X34775000Y-44598000D01*
X34760297Y-44597278D01*
X34745736Y-44595118D01*
X34731457Y-44591541D01*
X34717597Y-44586582D01*
X34704290Y-44580288D01*
X34691664Y-44572720D01*
X34679841Y-44563952D01*
X34668934Y-44554066D01*
X34659048Y-44543159D01*
X34650280Y-44531336D01*
X34642712Y-44518710D01*
X34636418Y-44505403D01*
X34631459Y-44491543D01*
X34627882Y-44477264D01*
X34625722Y-44462703D01*
X34625000Y-44448000D01*
X34625000Y-42798000D01*
X34625722Y-42783297D01*
X34627882Y-42768736D01*
X34631459Y-42754457D01*
X34636418Y-42740597D01*
X34642712Y-42727290D01*
X34650280Y-42714664D01*
X34659048Y-42702841D01*
X34668934Y-42691934D01*
X34679841Y-42682048D01*
X34691664Y-42673280D01*
X34704290Y-42665712D01*
X34717597Y-42659418D01*
X34731457Y-42654459D01*
X34745736Y-42650882D01*
X34760297Y-42648722D01*
X34775000Y-42648000D01*
X35075000Y-42648000D01*
X35089703Y-42648722D01*
X35089703Y-42648722D01*
G37*
D12*
X34925000Y-43623000D03*
D10*
G36*
X36359703Y-42648722D02*
G01*
X36374264Y-42650882D01*
X36388543Y-42654459D01*
X36402403Y-42659418D01*
X36415710Y-42665712D01*
X36428336Y-42673280D01*
X36440159Y-42682048D01*
X36451066Y-42691934D01*
X36460952Y-42702841D01*
X36469720Y-42714664D01*
X36477288Y-42727290D01*
X36483582Y-42740597D01*
X36488541Y-42754457D01*
X36492118Y-42768736D01*
X36494278Y-42783297D01*
X36495000Y-42798000D01*
X36495000Y-44448000D01*
X36494278Y-44462703D01*
X36492118Y-44477264D01*
X36488541Y-44491543D01*
X36483582Y-44505403D01*
X36477288Y-44518710D01*
X36469720Y-44531336D01*
X36460952Y-44543159D01*
X36451066Y-44554066D01*
X36440159Y-44563952D01*
X36428336Y-44572720D01*
X36415710Y-44580288D01*
X36402403Y-44586582D01*
X36388543Y-44591541D01*
X36374264Y-44595118D01*
X36359703Y-44597278D01*
X36345000Y-44598000D01*
X36045000Y-44598000D01*
X36030297Y-44597278D01*
X36015736Y-44595118D01*
X36001457Y-44591541D01*
X35987597Y-44586582D01*
X35974290Y-44580288D01*
X35961664Y-44572720D01*
X35949841Y-44563952D01*
X35938934Y-44554066D01*
X35929048Y-44543159D01*
X35920280Y-44531336D01*
X35912712Y-44518710D01*
X35906418Y-44505403D01*
X35901459Y-44491543D01*
X35897882Y-44477264D01*
X35895722Y-44462703D01*
X35895000Y-44448000D01*
X35895000Y-42798000D01*
X35895722Y-42783297D01*
X35897882Y-42768736D01*
X35901459Y-42754457D01*
X35906418Y-42740597D01*
X35912712Y-42727290D01*
X35920280Y-42714664D01*
X35929048Y-42702841D01*
X35938934Y-42691934D01*
X35949841Y-42682048D01*
X35961664Y-42673280D01*
X35974290Y-42665712D01*
X35987597Y-42659418D01*
X36001457Y-42654459D01*
X36015736Y-42650882D01*
X36030297Y-42648722D01*
X36045000Y-42648000D01*
X36345000Y-42648000D01*
X36359703Y-42648722D01*
X36359703Y-42648722D01*
G37*
D12*
X36195000Y-43623000D03*
D10*
G36*
X36359703Y-37698722D02*
G01*
X36374264Y-37700882D01*
X36388543Y-37704459D01*
X36402403Y-37709418D01*
X36415710Y-37715712D01*
X36428336Y-37723280D01*
X36440159Y-37732048D01*
X36451066Y-37741934D01*
X36460952Y-37752841D01*
X36469720Y-37764664D01*
X36477288Y-37777290D01*
X36483582Y-37790597D01*
X36488541Y-37804457D01*
X36492118Y-37818736D01*
X36494278Y-37833297D01*
X36495000Y-37848000D01*
X36495000Y-39498000D01*
X36494278Y-39512703D01*
X36492118Y-39527264D01*
X36488541Y-39541543D01*
X36483582Y-39555403D01*
X36477288Y-39568710D01*
X36469720Y-39581336D01*
X36460952Y-39593159D01*
X36451066Y-39604066D01*
X36440159Y-39613952D01*
X36428336Y-39622720D01*
X36415710Y-39630288D01*
X36402403Y-39636582D01*
X36388543Y-39641541D01*
X36374264Y-39645118D01*
X36359703Y-39647278D01*
X36345000Y-39648000D01*
X36045000Y-39648000D01*
X36030297Y-39647278D01*
X36015736Y-39645118D01*
X36001457Y-39641541D01*
X35987597Y-39636582D01*
X35974290Y-39630288D01*
X35961664Y-39622720D01*
X35949841Y-39613952D01*
X35938934Y-39604066D01*
X35929048Y-39593159D01*
X35920280Y-39581336D01*
X35912712Y-39568710D01*
X35906418Y-39555403D01*
X35901459Y-39541543D01*
X35897882Y-39527264D01*
X35895722Y-39512703D01*
X35895000Y-39498000D01*
X35895000Y-37848000D01*
X35895722Y-37833297D01*
X35897882Y-37818736D01*
X35901459Y-37804457D01*
X35906418Y-37790597D01*
X35912712Y-37777290D01*
X35920280Y-37764664D01*
X35929048Y-37752841D01*
X35938934Y-37741934D01*
X35949841Y-37732048D01*
X35961664Y-37723280D01*
X35974290Y-37715712D01*
X35987597Y-37709418D01*
X36001457Y-37704459D01*
X36015736Y-37700882D01*
X36030297Y-37698722D01*
X36045000Y-37698000D01*
X36345000Y-37698000D01*
X36359703Y-37698722D01*
X36359703Y-37698722D01*
G37*
D12*
X36195000Y-38673000D03*
D10*
G36*
X35089703Y-37698722D02*
G01*
X35104264Y-37700882D01*
X35118543Y-37704459D01*
X35132403Y-37709418D01*
X35145710Y-37715712D01*
X35158336Y-37723280D01*
X35170159Y-37732048D01*
X35181066Y-37741934D01*
X35190952Y-37752841D01*
X35199720Y-37764664D01*
X35207288Y-37777290D01*
X35213582Y-37790597D01*
X35218541Y-37804457D01*
X35222118Y-37818736D01*
X35224278Y-37833297D01*
X35225000Y-37848000D01*
X35225000Y-39498000D01*
X35224278Y-39512703D01*
X35222118Y-39527264D01*
X35218541Y-39541543D01*
X35213582Y-39555403D01*
X35207288Y-39568710D01*
X35199720Y-39581336D01*
X35190952Y-39593159D01*
X35181066Y-39604066D01*
X35170159Y-39613952D01*
X35158336Y-39622720D01*
X35145710Y-39630288D01*
X35132403Y-39636582D01*
X35118543Y-39641541D01*
X35104264Y-39645118D01*
X35089703Y-39647278D01*
X35075000Y-39648000D01*
X34775000Y-39648000D01*
X34760297Y-39647278D01*
X34745736Y-39645118D01*
X34731457Y-39641541D01*
X34717597Y-39636582D01*
X34704290Y-39630288D01*
X34691664Y-39622720D01*
X34679841Y-39613952D01*
X34668934Y-39604066D01*
X34659048Y-39593159D01*
X34650280Y-39581336D01*
X34642712Y-39568710D01*
X34636418Y-39555403D01*
X34631459Y-39541543D01*
X34627882Y-39527264D01*
X34625722Y-39512703D01*
X34625000Y-39498000D01*
X34625000Y-37848000D01*
X34625722Y-37833297D01*
X34627882Y-37818736D01*
X34631459Y-37804457D01*
X34636418Y-37790597D01*
X34642712Y-37777290D01*
X34650280Y-37764664D01*
X34659048Y-37752841D01*
X34668934Y-37741934D01*
X34679841Y-37732048D01*
X34691664Y-37723280D01*
X34704290Y-37715712D01*
X34717597Y-37709418D01*
X34731457Y-37704459D01*
X34745736Y-37700882D01*
X34760297Y-37698722D01*
X34775000Y-37698000D01*
X35075000Y-37698000D01*
X35089703Y-37698722D01*
X35089703Y-37698722D01*
G37*
D12*
X34925000Y-38673000D03*
D10*
G36*
X33819703Y-37698722D02*
G01*
X33834264Y-37700882D01*
X33848543Y-37704459D01*
X33862403Y-37709418D01*
X33875710Y-37715712D01*
X33888336Y-37723280D01*
X33900159Y-37732048D01*
X33911066Y-37741934D01*
X33920952Y-37752841D01*
X33929720Y-37764664D01*
X33937288Y-37777290D01*
X33943582Y-37790597D01*
X33948541Y-37804457D01*
X33952118Y-37818736D01*
X33954278Y-37833297D01*
X33955000Y-37848000D01*
X33955000Y-39498000D01*
X33954278Y-39512703D01*
X33952118Y-39527264D01*
X33948541Y-39541543D01*
X33943582Y-39555403D01*
X33937288Y-39568710D01*
X33929720Y-39581336D01*
X33920952Y-39593159D01*
X33911066Y-39604066D01*
X33900159Y-39613952D01*
X33888336Y-39622720D01*
X33875710Y-39630288D01*
X33862403Y-39636582D01*
X33848543Y-39641541D01*
X33834264Y-39645118D01*
X33819703Y-39647278D01*
X33805000Y-39648000D01*
X33505000Y-39648000D01*
X33490297Y-39647278D01*
X33475736Y-39645118D01*
X33461457Y-39641541D01*
X33447597Y-39636582D01*
X33434290Y-39630288D01*
X33421664Y-39622720D01*
X33409841Y-39613952D01*
X33398934Y-39604066D01*
X33389048Y-39593159D01*
X33380280Y-39581336D01*
X33372712Y-39568710D01*
X33366418Y-39555403D01*
X33361459Y-39541543D01*
X33357882Y-39527264D01*
X33355722Y-39512703D01*
X33355000Y-39498000D01*
X33355000Y-37848000D01*
X33355722Y-37833297D01*
X33357882Y-37818736D01*
X33361459Y-37804457D01*
X33366418Y-37790597D01*
X33372712Y-37777290D01*
X33380280Y-37764664D01*
X33389048Y-37752841D01*
X33398934Y-37741934D01*
X33409841Y-37732048D01*
X33421664Y-37723280D01*
X33434290Y-37715712D01*
X33447597Y-37709418D01*
X33461457Y-37704459D01*
X33475736Y-37700882D01*
X33490297Y-37698722D01*
X33505000Y-37698000D01*
X33805000Y-37698000D01*
X33819703Y-37698722D01*
X33819703Y-37698722D01*
G37*
D12*
X33655000Y-38673000D03*
D10*
G36*
X32549703Y-37698722D02*
G01*
X32564264Y-37700882D01*
X32578543Y-37704459D01*
X32592403Y-37709418D01*
X32605710Y-37715712D01*
X32618336Y-37723280D01*
X32630159Y-37732048D01*
X32641066Y-37741934D01*
X32650952Y-37752841D01*
X32659720Y-37764664D01*
X32667288Y-37777290D01*
X32673582Y-37790597D01*
X32678541Y-37804457D01*
X32682118Y-37818736D01*
X32684278Y-37833297D01*
X32685000Y-37848000D01*
X32685000Y-39498000D01*
X32684278Y-39512703D01*
X32682118Y-39527264D01*
X32678541Y-39541543D01*
X32673582Y-39555403D01*
X32667288Y-39568710D01*
X32659720Y-39581336D01*
X32650952Y-39593159D01*
X32641066Y-39604066D01*
X32630159Y-39613952D01*
X32618336Y-39622720D01*
X32605710Y-39630288D01*
X32592403Y-39636582D01*
X32578543Y-39641541D01*
X32564264Y-39645118D01*
X32549703Y-39647278D01*
X32535000Y-39648000D01*
X32235000Y-39648000D01*
X32220297Y-39647278D01*
X32205736Y-39645118D01*
X32191457Y-39641541D01*
X32177597Y-39636582D01*
X32164290Y-39630288D01*
X32151664Y-39622720D01*
X32139841Y-39613952D01*
X32128934Y-39604066D01*
X32119048Y-39593159D01*
X32110280Y-39581336D01*
X32102712Y-39568710D01*
X32096418Y-39555403D01*
X32091459Y-39541543D01*
X32087882Y-39527264D01*
X32085722Y-39512703D01*
X32085000Y-39498000D01*
X32085000Y-37848000D01*
X32085722Y-37833297D01*
X32087882Y-37818736D01*
X32091459Y-37804457D01*
X32096418Y-37790597D01*
X32102712Y-37777290D01*
X32110280Y-37764664D01*
X32119048Y-37752841D01*
X32128934Y-37741934D01*
X32139841Y-37732048D01*
X32151664Y-37723280D01*
X32164290Y-37715712D01*
X32177597Y-37709418D01*
X32191457Y-37704459D01*
X32205736Y-37700882D01*
X32220297Y-37698722D01*
X32235000Y-37698000D01*
X32535000Y-37698000D01*
X32549703Y-37698722D01*
X32549703Y-37698722D01*
G37*
D12*
X32385000Y-38673000D03*
D13*
X26425400Y-39878000D03*
X24425400Y-38928000D03*
X24425400Y-40828000D03*
D10*
G36*
X30954505Y-43377204D02*
G01*
X30978773Y-43380804D01*
X31002572Y-43386765D01*
X31025671Y-43395030D01*
X31047850Y-43405520D01*
X31068893Y-43418132D01*
X31088599Y-43432747D01*
X31106777Y-43449223D01*
X31123253Y-43467401D01*
X31137868Y-43487107D01*
X31150480Y-43508150D01*
X31160970Y-43530329D01*
X31169235Y-43553428D01*
X31175196Y-43577227D01*
X31178796Y-43601495D01*
X31180000Y-43625999D01*
X31180000Y-44276001D01*
X31178796Y-44300505D01*
X31175196Y-44324773D01*
X31169235Y-44348572D01*
X31160970Y-44371671D01*
X31150480Y-44393850D01*
X31137868Y-44414893D01*
X31123253Y-44434599D01*
X31106777Y-44452777D01*
X31088599Y-44469253D01*
X31068893Y-44483868D01*
X31047850Y-44496480D01*
X31025671Y-44506970D01*
X31002572Y-44515235D01*
X30978773Y-44521196D01*
X30954505Y-44524796D01*
X30930001Y-44526000D01*
X30029999Y-44526000D01*
X30005495Y-44524796D01*
X29981227Y-44521196D01*
X29957428Y-44515235D01*
X29934329Y-44506970D01*
X29912150Y-44496480D01*
X29891107Y-44483868D01*
X29871401Y-44469253D01*
X29853223Y-44452777D01*
X29836747Y-44434599D01*
X29822132Y-44414893D01*
X29809520Y-44393850D01*
X29799030Y-44371671D01*
X29790765Y-44348572D01*
X29784804Y-44324773D01*
X29781204Y-44300505D01*
X29780000Y-44276001D01*
X29780000Y-43625999D01*
X29781204Y-43601495D01*
X29784804Y-43577227D01*
X29790765Y-43553428D01*
X29799030Y-43530329D01*
X29809520Y-43508150D01*
X29822132Y-43487107D01*
X29836747Y-43467401D01*
X29853223Y-43449223D01*
X29871401Y-43432747D01*
X29891107Y-43418132D01*
X29912150Y-43405520D01*
X29934329Y-43395030D01*
X29957428Y-43386765D01*
X29981227Y-43380804D01*
X30005495Y-43377204D01*
X30029999Y-43376000D01*
X30930001Y-43376000D01*
X30954505Y-43377204D01*
X30954505Y-43377204D01*
G37*
D11*
X30480000Y-43951000D03*
D10*
G36*
X30954505Y-41327204D02*
G01*
X30978773Y-41330804D01*
X31002572Y-41336765D01*
X31025671Y-41345030D01*
X31047850Y-41355520D01*
X31068893Y-41368132D01*
X31088599Y-41382747D01*
X31106777Y-41399223D01*
X31123253Y-41417401D01*
X31137868Y-41437107D01*
X31150480Y-41458150D01*
X31160970Y-41480329D01*
X31169235Y-41503428D01*
X31175196Y-41527227D01*
X31178796Y-41551495D01*
X31180000Y-41575999D01*
X31180000Y-42226001D01*
X31178796Y-42250505D01*
X31175196Y-42274773D01*
X31169235Y-42298572D01*
X31160970Y-42321671D01*
X31150480Y-42343850D01*
X31137868Y-42364893D01*
X31123253Y-42384599D01*
X31106777Y-42402777D01*
X31088599Y-42419253D01*
X31068893Y-42433868D01*
X31047850Y-42446480D01*
X31025671Y-42456970D01*
X31002572Y-42465235D01*
X30978773Y-42471196D01*
X30954505Y-42474796D01*
X30930001Y-42476000D01*
X30029999Y-42476000D01*
X30005495Y-42474796D01*
X29981227Y-42471196D01*
X29957428Y-42465235D01*
X29934329Y-42456970D01*
X29912150Y-42446480D01*
X29891107Y-42433868D01*
X29871401Y-42419253D01*
X29853223Y-42402777D01*
X29836747Y-42384599D01*
X29822132Y-42364893D01*
X29809520Y-42343850D01*
X29799030Y-42321671D01*
X29790765Y-42298572D01*
X29784804Y-42274773D01*
X29781204Y-42250505D01*
X29780000Y-42226001D01*
X29780000Y-41575999D01*
X29781204Y-41551495D01*
X29784804Y-41527227D01*
X29790765Y-41503428D01*
X29799030Y-41480329D01*
X29809520Y-41458150D01*
X29822132Y-41437107D01*
X29836747Y-41417401D01*
X29853223Y-41399223D01*
X29871401Y-41382747D01*
X29891107Y-41368132D01*
X29912150Y-41355520D01*
X29934329Y-41345030D01*
X29957428Y-41336765D01*
X29981227Y-41330804D01*
X30005495Y-41327204D01*
X30029999Y-41326000D01*
X30930001Y-41326000D01*
X30954505Y-41327204D01*
X30954505Y-41327204D01*
G37*
D11*
X30480000Y-41901000D03*
D10*
G36*
X29296505Y-34861204D02*
G01*
X29320773Y-34864804D01*
X29344572Y-34870765D01*
X29367671Y-34879030D01*
X29389850Y-34889520D01*
X29410893Y-34902132D01*
X29430599Y-34916747D01*
X29448777Y-34933223D01*
X29465253Y-34951401D01*
X29479868Y-34971107D01*
X29492480Y-34992150D01*
X29502970Y-35014329D01*
X29511235Y-35037428D01*
X29517196Y-35061227D01*
X29520796Y-35085495D01*
X29522000Y-35109999D01*
X29522000Y-36010001D01*
X29520796Y-36034505D01*
X29517196Y-36058773D01*
X29511235Y-36082572D01*
X29502970Y-36105671D01*
X29492480Y-36127850D01*
X29479868Y-36148893D01*
X29465253Y-36168599D01*
X29448777Y-36186777D01*
X29430599Y-36203253D01*
X29410893Y-36217868D01*
X29389850Y-36230480D01*
X29367671Y-36240970D01*
X29344572Y-36249235D01*
X29320773Y-36255196D01*
X29296505Y-36258796D01*
X29272001Y-36260000D01*
X28621999Y-36260000D01*
X28597495Y-36258796D01*
X28573227Y-36255196D01*
X28549428Y-36249235D01*
X28526329Y-36240970D01*
X28504150Y-36230480D01*
X28483107Y-36217868D01*
X28463401Y-36203253D01*
X28445223Y-36186777D01*
X28428747Y-36168599D01*
X28414132Y-36148893D01*
X28401520Y-36127850D01*
X28391030Y-36105671D01*
X28382765Y-36082572D01*
X28376804Y-36058773D01*
X28373204Y-36034505D01*
X28372000Y-36010001D01*
X28372000Y-35109999D01*
X28373204Y-35085495D01*
X28376804Y-35061227D01*
X28382765Y-35037428D01*
X28391030Y-35014329D01*
X28401520Y-34992150D01*
X28414132Y-34971107D01*
X28428747Y-34951401D01*
X28445223Y-34933223D01*
X28463401Y-34916747D01*
X28483107Y-34902132D01*
X28504150Y-34889520D01*
X28526329Y-34879030D01*
X28549428Y-34870765D01*
X28573227Y-34864804D01*
X28597495Y-34861204D01*
X28621999Y-34860000D01*
X29272001Y-34860000D01*
X29296505Y-34861204D01*
X29296505Y-34861204D01*
G37*
D11*
X28947000Y-35560000D03*
D10*
G36*
X31346505Y-34861204D02*
G01*
X31370773Y-34864804D01*
X31394572Y-34870765D01*
X31417671Y-34879030D01*
X31439850Y-34889520D01*
X31460893Y-34902132D01*
X31480599Y-34916747D01*
X31498777Y-34933223D01*
X31515253Y-34951401D01*
X31529868Y-34971107D01*
X31542480Y-34992150D01*
X31552970Y-35014329D01*
X31561235Y-35037428D01*
X31567196Y-35061227D01*
X31570796Y-35085495D01*
X31572000Y-35109999D01*
X31572000Y-36010001D01*
X31570796Y-36034505D01*
X31567196Y-36058773D01*
X31561235Y-36082572D01*
X31552970Y-36105671D01*
X31542480Y-36127850D01*
X31529868Y-36148893D01*
X31515253Y-36168599D01*
X31498777Y-36186777D01*
X31480599Y-36203253D01*
X31460893Y-36217868D01*
X31439850Y-36230480D01*
X31417671Y-36240970D01*
X31394572Y-36249235D01*
X31370773Y-36255196D01*
X31346505Y-36258796D01*
X31322001Y-36260000D01*
X30671999Y-36260000D01*
X30647495Y-36258796D01*
X30623227Y-36255196D01*
X30599428Y-36249235D01*
X30576329Y-36240970D01*
X30554150Y-36230480D01*
X30533107Y-36217868D01*
X30513401Y-36203253D01*
X30495223Y-36186777D01*
X30478747Y-36168599D01*
X30464132Y-36148893D01*
X30451520Y-36127850D01*
X30441030Y-36105671D01*
X30432765Y-36082572D01*
X30426804Y-36058773D01*
X30423204Y-36034505D01*
X30422000Y-36010001D01*
X30422000Y-35109999D01*
X30423204Y-35085495D01*
X30426804Y-35061227D01*
X30432765Y-35037428D01*
X30441030Y-35014329D01*
X30451520Y-34992150D01*
X30464132Y-34971107D01*
X30478747Y-34951401D01*
X30495223Y-34933223D01*
X30513401Y-34916747D01*
X30533107Y-34902132D01*
X30554150Y-34889520D01*
X30576329Y-34879030D01*
X30599428Y-34870765D01*
X30623227Y-34864804D01*
X30647495Y-34861204D01*
X30671999Y-34860000D01*
X31322001Y-34860000D01*
X31346505Y-34861204D01*
X31346505Y-34861204D01*
G37*
D11*
X30997000Y-35560000D03*
D10*
G36*
X23055105Y-40227604D02*
G01*
X23079373Y-40231204D01*
X23103172Y-40237165D01*
X23126271Y-40245430D01*
X23148450Y-40255920D01*
X23169493Y-40268532D01*
X23189199Y-40283147D01*
X23207377Y-40299623D01*
X23223853Y-40317801D01*
X23238468Y-40337507D01*
X23251080Y-40358550D01*
X23261570Y-40380729D01*
X23269835Y-40403828D01*
X23275796Y-40427627D01*
X23279396Y-40451895D01*
X23280600Y-40476399D01*
X23280600Y-41126401D01*
X23279396Y-41150905D01*
X23275796Y-41175173D01*
X23269835Y-41198972D01*
X23261570Y-41222071D01*
X23251080Y-41244250D01*
X23238468Y-41265293D01*
X23223853Y-41284999D01*
X23207377Y-41303177D01*
X23189199Y-41319653D01*
X23169493Y-41334268D01*
X23148450Y-41346880D01*
X23126271Y-41357370D01*
X23103172Y-41365635D01*
X23079373Y-41371596D01*
X23055105Y-41375196D01*
X23030601Y-41376400D01*
X22130599Y-41376400D01*
X22106095Y-41375196D01*
X22081827Y-41371596D01*
X22058028Y-41365635D01*
X22034929Y-41357370D01*
X22012750Y-41346880D01*
X21991707Y-41334268D01*
X21972001Y-41319653D01*
X21953823Y-41303177D01*
X21937347Y-41284999D01*
X21922732Y-41265293D01*
X21910120Y-41244250D01*
X21899630Y-41222071D01*
X21891365Y-41198972D01*
X21885404Y-41175173D01*
X21881804Y-41150905D01*
X21880600Y-41126401D01*
X21880600Y-40476399D01*
X21881804Y-40451895D01*
X21885404Y-40427627D01*
X21891365Y-40403828D01*
X21899630Y-40380729D01*
X21910120Y-40358550D01*
X21922732Y-40337507D01*
X21937347Y-40317801D01*
X21953823Y-40299623D01*
X21972001Y-40283147D01*
X21991707Y-40268532D01*
X22012750Y-40255920D01*
X22034929Y-40245430D01*
X22058028Y-40237165D01*
X22081827Y-40231204D01*
X22106095Y-40227604D01*
X22130599Y-40226400D01*
X23030601Y-40226400D01*
X23055105Y-40227604D01*
X23055105Y-40227604D01*
G37*
D11*
X22580600Y-40801400D03*
D10*
G36*
X23055105Y-38177604D02*
G01*
X23079373Y-38181204D01*
X23103172Y-38187165D01*
X23126271Y-38195430D01*
X23148450Y-38205920D01*
X23169493Y-38218532D01*
X23189199Y-38233147D01*
X23207377Y-38249623D01*
X23223853Y-38267801D01*
X23238468Y-38287507D01*
X23251080Y-38308550D01*
X23261570Y-38330729D01*
X23269835Y-38353828D01*
X23275796Y-38377627D01*
X23279396Y-38401895D01*
X23280600Y-38426399D01*
X23280600Y-39076401D01*
X23279396Y-39100905D01*
X23275796Y-39125173D01*
X23269835Y-39148972D01*
X23261570Y-39172071D01*
X23251080Y-39194250D01*
X23238468Y-39215293D01*
X23223853Y-39234999D01*
X23207377Y-39253177D01*
X23189199Y-39269653D01*
X23169493Y-39284268D01*
X23148450Y-39296880D01*
X23126271Y-39307370D01*
X23103172Y-39315635D01*
X23079373Y-39321596D01*
X23055105Y-39325196D01*
X23030601Y-39326400D01*
X22130599Y-39326400D01*
X22106095Y-39325196D01*
X22081827Y-39321596D01*
X22058028Y-39315635D01*
X22034929Y-39307370D01*
X22012750Y-39296880D01*
X21991707Y-39284268D01*
X21972001Y-39269653D01*
X21953823Y-39253177D01*
X21937347Y-39234999D01*
X21922732Y-39215293D01*
X21910120Y-39194250D01*
X21899630Y-39172071D01*
X21891365Y-39148972D01*
X21885404Y-39125173D01*
X21881804Y-39100905D01*
X21880600Y-39076401D01*
X21880600Y-38426399D01*
X21881804Y-38401895D01*
X21885404Y-38377627D01*
X21891365Y-38353828D01*
X21899630Y-38330729D01*
X21910120Y-38308550D01*
X21922732Y-38287507D01*
X21937347Y-38267801D01*
X21953823Y-38249623D01*
X21972001Y-38233147D01*
X21991707Y-38218532D01*
X22012750Y-38205920D01*
X22034929Y-38195430D01*
X22058028Y-38187165D01*
X22081827Y-38181204D01*
X22106095Y-38177604D01*
X22130599Y-38176400D01*
X23030601Y-38176400D01*
X23055105Y-38177604D01*
X23055105Y-38177604D01*
G37*
D11*
X22580600Y-38751400D03*
D10*
G36*
X24749905Y-41998604D02*
G01*
X24774173Y-42002204D01*
X24797972Y-42008165D01*
X24821071Y-42016430D01*
X24843250Y-42026920D01*
X24864293Y-42039532D01*
X24883999Y-42054147D01*
X24902177Y-42070623D01*
X24918653Y-42088801D01*
X24933268Y-42108507D01*
X24945880Y-42129550D01*
X24956370Y-42151729D01*
X24964635Y-42174828D01*
X24970596Y-42198627D01*
X24974196Y-42222895D01*
X24975400Y-42247399D01*
X24975400Y-43147401D01*
X24974196Y-43171905D01*
X24970596Y-43196173D01*
X24964635Y-43219972D01*
X24956370Y-43243071D01*
X24945880Y-43265250D01*
X24933268Y-43286293D01*
X24918653Y-43305999D01*
X24902177Y-43324177D01*
X24883999Y-43340653D01*
X24864293Y-43355268D01*
X24843250Y-43367880D01*
X24821071Y-43378370D01*
X24797972Y-43386635D01*
X24774173Y-43392596D01*
X24749905Y-43396196D01*
X24725401Y-43397400D01*
X24075399Y-43397400D01*
X24050895Y-43396196D01*
X24026627Y-43392596D01*
X24002828Y-43386635D01*
X23979729Y-43378370D01*
X23957550Y-43367880D01*
X23936507Y-43355268D01*
X23916801Y-43340653D01*
X23898623Y-43324177D01*
X23882147Y-43305999D01*
X23867532Y-43286293D01*
X23854920Y-43265250D01*
X23844430Y-43243071D01*
X23836165Y-43219972D01*
X23830204Y-43196173D01*
X23826604Y-43171905D01*
X23825400Y-43147401D01*
X23825400Y-42247399D01*
X23826604Y-42222895D01*
X23830204Y-42198627D01*
X23836165Y-42174828D01*
X23844430Y-42151729D01*
X23854920Y-42129550D01*
X23867532Y-42108507D01*
X23882147Y-42088801D01*
X23898623Y-42070623D01*
X23916801Y-42054147D01*
X23936507Y-42039532D01*
X23957550Y-42026920D01*
X23979729Y-42016430D01*
X24002828Y-42008165D01*
X24026627Y-42002204D01*
X24050895Y-41998604D01*
X24075399Y-41997400D01*
X24725401Y-41997400D01*
X24749905Y-41998604D01*
X24749905Y-41998604D01*
G37*
D11*
X24400400Y-42697400D03*
D10*
G36*
X26799905Y-41998604D02*
G01*
X26824173Y-42002204D01*
X26847972Y-42008165D01*
X26871071Y-42016430D01*
X26893250Y-42026920D01*
X26914293Y-42039532D01*
X26933999Y-42054147D01*
X26952177Y-42070623D01*
X26968653Y-42088801D01*
X26983268Y-42108507D01*
X26995880Y-42129550D01*
X27006370Y-42151729D01*
X27014635Y-42174828D01*
X27020596Y-42198627D01*
X27024196Y-42222895D01*
X27025400Y-42247399D01*
X27025400Y-43147401D01*
X27024196Y-43171905D01*
X27020596Y-43196173D01*
X27014635Y-43219972D01*
X27006370Y-43243071D01*
X26995880Y-43265250D01*
X26983268Y-43286293D01*
X26968653Y-43305999D01*
X26952177Y-43324177D01*
X26933999Y-43340653D01*
X26914293Y-43355268D01*
X26893250Y-43367880D01*
X26871071Y-43378370D01*
X26847972Y-43386635D01*
X26824173Y-43392596D01*
X26799905Y-43396196D01*
X26775401Y-43397400D01*
X26125399Y-43397400D01*
X26100895Y-43396196D01*
X26076627Y-43392596D01*
X26052828Y-43386635D01*
X26029729Y-43378370D01*
X26007550Y-43367880D01*
X25986507Y-43355268D01*
X25966801Y-43340653D01*
X25948623Y-43324177D01*
X25932147Y-43305999D01*
X25917532Y-43286293D01*
X25904920Y-43265250D01*
X25894430Y-43243071D01*
X25886165Y-43219972D01*
X25880204Y-43196173D01*
X25876604Y-43171905D01*
X25875400Y-43147401D01*
X25875400Y-42247399D01*
X25876604Y-42222895D01*
X25880204Y-42198627D01*
X25886165Y-42174828D01*
X25894430Y-42151729D01*
X25904920Y-42129550D01*
X25917532Y-42108507D01*
X25932147Y-42088801D01*
X25948623Y-42070623D01*
X25966801Y-42054147D01*
X25986507Y-42039532D01*
X26007550Y-42026920D01*
X26029729Y-42016430D01*
X26052828Y-42008165D01*
X26076627Y-42002204D01*
X26100895Y-41998604D01*
X26125399Y-41997400D01*
X26775401Y-41997400D01*
X26799905Y-41998604D01*
X26799905Y-41998604D01*
G37*
D11*
X26450400Y-42697400D03*
D14*
X23368000Y-37084000D03*
X24968200Y-27559000D03*
X29852421Y-34708692D03*
X26644600Y-24257002D03*
X24000000Y-40000000D03*
X35255200Y-41376600D03*
X36220400Y-30911800D03*
X36957000Y-31267400D03*
X36957000Y-32105600D03*
X36957000Y-32969200D03*
X25199990Y-30494553D03*
X25199990Y-32003999D03*
X25199990Y-29739830D03*
X25199990Y-31249276D03*
X22656800Y-44500800D03*
X26416000Y-44094400D03*
X34899600Y-46532800D03*
X33782000Y-46583600D03*
X30480000Y-38658800D03*
X28144289Y-39524012D03*
X29355012Y-30886400D03*
X35339859Y-34890362D03*
X31572200Y-38735000D03*
X29667200Y-33401000D03*
X27000000Y-26729966D03*
X29174686Y-28731818D03*
D15*
X32057000Y-43951000D02*
X32385000Y-43623000D01*
X30480000Y-43951000D02*
X32057000Y-43951000D01*
X23384000Y-37100000D02*
X23368000Y-37084000D01*
X24892000Y-35560000D02*
X28947000Y-35560000D01*
X23368000Y-37084000D02*
X24892000Y-35560000D01*
X28947000Y-34343000D02*
X28005000Y-33401000D01*
X28947000Y-35560000D02*
X28947000Y-34343000D01*
X22757200Y-38928000D02*
X22580600Y-38751400D01*
X23368000Y-38917800D02*
X23368000Y-37084000D01*
X24425400Y-38928000D02*
X23378200Y-38928000D01*
X23378200Y-38928000D02*
X23368000Y-38917800D01*
X23378200Y-38928000D02*
X22757200Y-38928000D01*
D16*
X28947000Y-35560000D02*
X29798308Y-34708692D01*
X29798308Y-34708692D02*
X29852421Y-34708692D01*
D15*
X29117400Y-43951000D02*
X30480000Y-43951000D01*
X27508200Y-42341800D02*
X29117400Y-43951000D01*
X24425400Y-38928000D02*
X27045402Y-38928000D01*
X27045402Y-38928000D02*
X27344288Y-39226886D01*
X27508200Y-40979200D02*
X27508200Y-42341800D01*
X27344288Y-39226886D02*
X27344288Y-40815288D01*
X27344288Y-40815288D02*
X27508200Y-40979200D01*
X26000000Y-28590800D02*
X24968200Y-27559000D01*
X23368000Y-37084000D02*
X26000000Y-34452000D01*
X26000000Y-34452000D02*
X26000000Y-28590800D01*
X26000000Y-28590800D02*
X26000000Y-24901602D01*
X26000000Y-24901602D02*
X26244601Y-24657001D01*
X26244601Y-24657001D02*
X26644600Y-24257002D01*
X21665000Y-40828000D02*
X21590000Y-40903000D01*
X23662000Y-43435800D02*
X24400400Y-42697400D01*
X24000000Y-40402600D02*
X24425400Y-40828000D01*
X24000000Y-40000000D02*
X24000000Y-40402600D01*
D16*
X36595000Y-43623000D02*
X36634600Y-43662600D01*
X36195000Y-43623000D02*
X36595000Y-43623000D01*
X36634600Y-43662600D02*
X37795200Y-43662600D01*
X36195000Y-41750715D02*
X36195000Y-43623000D01*
X35820885Y-41376600D02*
X36195000Y-41750715D01*
X35255200Y-41376600D02*
X35820885Y-41376600D01*
D15*
X26450400Y-39903000D02*
X26425400Y-39878000D01*
X26450400Y-42697400D02*
X26450400Y-39903000D01*
X26162000Y-42985800D02*
X26450400Y-42697400D01*
X26416000Y-42731800D02*
X26450400Y-42697400D01*
X26416000Y-44094400D02*
X26416000Y-42731800D01*
D16*
X34925000Y-43623000D02*
X34925000Y-46507400D01*
X34925000Y-46507400D02*
X34899600Y-46532800D01*
X35365800Y-46999000D02*
X34899600Y-46532800D01*
X35365800Y-48234600D02*
X35365800Y-46999000D01*
X33655000Y-43623000D02*
X33655000Y-46456600D01*
X33655000Y-46456600D02*
X33782000Y-46583600D01*
X33315800Y-47049800D02*
X33782000Y-46583600D01*
X33315800Y-48234600D02*
X33315800Y-47049800D01*
X34705021Y-33934158D02*
X34705021Y-31536021D01*
X33495187Y-35143992D02*
X34705021Y-33934158D01*
X34705021Y-31536021D02*
X34030000Y-30861000D01*
X33495187Y-35643613D02*
X33495187Y-35143992D01*
X30480000Y-38658800D02*
X33495187Y-35643613D01*
X34030000Y-30861000D02*
X32955000Y-30861000D01*
X34030000Y-32131000D02*
X34255010Y-32356010D01*
X31083291Y-36585010D02*
X28544288Y-39124013D01*
X34255010Y-33747758D02*
X31897010Y-36105758D01*
X31897010Y-36248180D02*
X31560180Y-36585010D01*
X31560180Y-36585010D02*
X31083291Y-36585010D01*
X31897010Y-36105758D02*
X31897010Y-36248180D01*
X34255010Y-32356010D02*
X34255010Y-33747758D01*
X32955000Y-32131000D02*
X34030000Y-32131000D01*
X28544288Y-39124013D02*
X28144289Y-39524012D01*
D17*
X29329612Y-30861000D02*
X29355012Y-30886400D01*
X28005000Y-30861000D02*
X29329612Y-30861000D01*
X36195000Y-38673000D02*
X36195000Y-35745503D01*
X36195000Y-35745503D02*
X35739858Y-35290361D01*
X35739858Y-35290361D02*
X35339859Y-34890362D01*
D16*
X33655000Y-38673000D02*
X34925000Y-38673000D01*
X33985200Y-29591000D02*
X34036000Y-29641800D01*
X32955000Y-29591000D02*
X33985200Y-29591000D01*
D17*
X34554290Y-34685945D02*
X35130032Y-34110203D01*
X35130032Y-30735832D02*
X34036000Y-29641800D01*
X34554290Y-38302290D02*
X34554290Y-34685945D01*
X35130032Y-34110203D02*
X35130032Y-30735832D01*
X34925000Y-38673000D02*
X34554290Y-38302290D01*
X31634200Y-38673000D02*
X31572200Y-38735000D01*
X32385000Y-38673000D02*
X31634200Y-38673000D01*
X28375710Y-32501710D02*
X28767910Y-32501710D01*
X28005000Y-32131000D02*
X28375710Y-32501710D01*
X28767910Y-32501710D02*
X29667200Y-33401000D01*
X27000000Y-26729966D02*
X29001852Y-28731818D01*
X29001852Y-28731818D02*
X29174686Y-28731818D01*
D18*
G36*
X38315001Y-44829137D02*
G01*
X37089449Y-44825873D01*
X37120812Y-44722482D01*
X37133072Y-44598000D01*
X37130000Y-43908750D01*
X36971250Y-43750000D01*
X36322000Y-43750000D01*
X36322000Y-43770000D01*
X36068000Y-43770000D01*
X36068000Y-43750000D01*
X36048000Y-43750000D01*
X36048000Y-43496000D01*
X36068000Y-43496000D01*
X36068000Y-42171750D01*
X36322000Y-42171750D01*
X36322000Y-43496000D01*
X36971250Y-43496000D01*
X37130000Y-43337250D01*
X37133072Y-42648000D01*
X37120812Y-42523518D01*
X37084502Y-42403820D01*
X37025537Y-42293506D01*
X36946185Y-42196815D01*
X36849494Y-42117463D01*
X36739180Y-42058498D01*
X36619482Y-42022188D01*
X36495000Y-42009928D01*
X36480750Y-42013000D01*
X36322000Y-42171750D01*
X36068000Y-42171750D01*
X35909250Y-42013000D01*
X35895000Y-42009928D01*
X35770518Y-42022188D01*
X35650820Y-42058498D01*
X35540506Y-42117463D01*
X35510936Y-42141730D01*
X35376582Y-42069916D01*
X35228745Y-42025071D01*
X35075000Y-42009928D01*
X34775000Y-42009928D01*
X34621255Y-42025071D01*
X34473418Y-42069916D01*
X34337171Y-42142742D01*
X34290000Y-42181454D01*
X34242829Y-42142742D01*
X34106582Y-42069916D01*
X33958745Y-42025071D01*
X33805000Y-42009928D01*
X33505000Y-42009928D01*
X33351255Y-42025071D01*
X33203418Y-42069916D01*
X33067171Y-42142742D01*
X33020000Y-42181454D01*
X32972829Y-42142742D01*
X32836582Y-42069916D01*
X32688745Y-42025071D01*
X32535000Y-42009928D01*
X32235000Y-42009928D01*
X32081255Y-42025071D01*
X31933418Y-42069916D01*
X31797171Y-42142742D01*
X31782792Y-42154542D01*
X31656250Y-42028000D01*
X30607000Y-42028000D01*
X30607000Y-42048000D01*
X30353000Y-42048000D01*
X30353000Y-42028000D01*
X29303750Y-42028000D01*
X29145000Y-42186750D01*
X29141928Y-42476000D01*
X29154188Y-42600482D01*
X29190498Y-42720180D01*
X29249463Y-42830494D01*
X29328815Y-42927185D01*
X29408594Y-42992658D01*
X29402038Y-42998038D01*
X29376466Y-43029198D01*
X28343200Y-41995933D01*
X28343200Y-41326000D01*
X29141928Y-41326000D01*
X29145000Y-41615250D01*
X29303750Y-41774000D01*
X30353000Y-41774000D01*
X30353000Y-40849750D01*
X30607000Y-40849750D01*
X30607000Y-41774000D01*
X31656250Y-41774000D01*
X31815000Y-41615250D01*
X31818072Y-41326000D01*
X31805812Y-41201518D01*
X31769502Y-41081820D01*
X31710537Y-40971506D01*
X31631185Y-40874815D01*
X31534494Y-40795463D01*
X31424180Y-40736498D01*
X31304482Y-40700188D01*
X31180000Y-40687928D01*
X30765750Y-40691000D01*
X30607000Y-40849750D01*
X30353000Y-40849750D01*
X30194250Y-40691000D01*
X29780000Y-40687928D01*
X29655518Y-40700188D01*
X29535820Y-40736498D01*
X29425506Y-40795463D01*
X29328815Y-40874815D01*
X29249463Y-40971506D01*
X29190498Y-41081820D01*
X29154188Y-41201518D01*
X29141928Y-41326000D01*
X28343200Y-41326000D01*
X28343200Y-41020218D01*
X28347240Y-40979200D01*
X28331118Y-40815512D01*
X28329002Y-40808537D01*
X28283372Y-40658113D01*
X28230401Y-40559012D01*
X28246228Y-40559012D01*
X28446187Y-40519238D01*
X28634545Y-40441217D01*
X28804063Y-40327949D01*
X28948226Y-40183786D01*
X29061494Y-40014268D01*
X29139515Y-39825910D01*
X29179289Y-39625951D01*
X29179289Y-39563813D01*
X29575313Y-39167790D01*
X29676063Y-39318574D01*
X29820226Y-39462737D01*
X29989744Y-39576005D01*
X30178102Y-39654026D01*
X30378061Y-39693800D01*
X30581939Y-39693800D01*
X30781898Y-39654026D01*
X30968803Y-39576607D01*
X31081944Y-39652205D01*
X31270302Y-39730226D01*
X31470261Y-39770000D01*
X31497943Y-39770000D01*
X31506916Y-39799582D01*
X31579742Y-39935829D01*
X31677749Y-40055251D01*
X31797171Y-40153258D01*
X31933418Y-40226084D01*
X32081255Y-40270929D01*
X32235000Y-40286072D01*
X32535000Y-40286072D01*
X32688745Y-40270929D01*
X32836582Y-40226084D01*
X32972829Y-40153258D01*
X33020000Y-40114546D01*
X33067171Y-40153258D01*
X33203418Y-40226084D01*
X33351255Y-40270929D01*
X33505000Y-40286072D01*
X33805000Y-40286072D01*
X33958745Y-40270929D01*
X34106582Y-40226084D01*
X34242829Y-40153258D01*
X34290000Y-40114546D01*
X34337171Y-40153258D01*
X34473418Y-40226084D01*
X34621255Y-40270929D01*
X34775000Y-40286072D01*
X35075000Y-40286072D01*
X35228745Y-40270929D01*
X35376582Y-40226084D01*
X35512829Y-40153258D01*
X35560000Y-40114546D01*
X35607171Y-40153258D01*
X35743418Y-40226084D01*
X35891255Y-40270929D01*
X36045000Y-40286072D01*
X36345000Y-40286072D01*
X36498745Y-40270929D01*
X36646582Y-40226084D01*
X36782829Y-40153258D01*
X36902251Y-40055251D01*
X37000258Y-39935829D01*
X37073084Y-39799582D01*
X37117929Y-39651745D01*
X37133072Y-39498000D01*
X37133072Y-37848000D01*
X37117929Y-37694255D01*
X37073084Y-37546418D01*
X37000258Y-37410171D01*
X36930000Y-37324561D01*
X36930000Y-35781608D01*
X36933556Y-35745503D01*
X36919365Y-35601417D01*
X36892431Y-35512629D01*
X36877337Y-35462870D01*
X36809087Y-35335183D01*
X36717238Y-35223265D01*
X36689187Y-35200244D01*
X36374859Y-34885916D01*
X36374859Y-34788423D01*
X36335085Y-34588464D01*
X36257064Y-34400106D01*
X36143796Y-34230588D01*
X35999633Y-34086425D01*
X35865032Y-33996488D01*
X35865032Y-30771937D01*
X35868588Y-30735832D01*
X35854397Y-30591747D01*
X35843934Y-30557255D01*
X35812369Y-30453199D01*
X35744119Y-30325512D01*
X35652270Y-30213594D01*
X35624225Y-30190578D01*
X34693715Y-29260069D01*
X34670974Y-29217524D01*
X34599799Y-29130798D01*
X34549004Y-29080003D01*
X34525201Y-29050999D01*
X34409476Y-28956026D01*
X34386479Y-28943734D01*
X34337251Y-28883749D01*
X34217829Y-28785742D01*
X34081582Y-28712916D01*
X33933745Y-28668071D01*
X33780000Y-28652928D01*
X32130000Y-28652928D01*
X31976255Y-28668071D01*
X31828418Y-28712916D01*
X31692171Y-28785742D01*
X31572749Y-28883749D01*
X31474742Y-29003171D01*
X31401916Y-29139418D01*
X31357071Y-29287255D01*
X31341928Y-29441000D01*
X31341928Y-29741000D01*
X31357071Y-29894745D01*
X31401916Y-30042582D01*
X31474742Y-30178829D01*
X31513454Y-30226000D01*
X31474742Y-30273171D01*
X31401916Y-30409418D01*
X31357071Y-30557255D01*
X31341928Y-30711000D01*
X31341928Y-31011000D01*
X31357071Y-31164745D01*
X31401916Y-31312582D01*
X31474742Y-31448829D01*
X31513454Y-31496000D01*
X31474742Y-31543171D01*
X31401916Y-31679418D01*
X31357071Y-31827255D01*
X31341928Y-31981000D01*
X31341928Y-32281000D01*
X31357071Y-32434745D01*
X31401916Y-32582582D01*
X31473730Y-32716936D01*
X31449463Y-32746506D01*
X31390498Y-32856820D01*
X31354188Y-32976518D01*
X31341928Y-33101000D01*
X31345000Y-33115250D01*
X31503750Y-33274000D01*
X32828000Y-33274000D01*
X32828000Y-33254000D01*
X33082000Y-33254000D01*
X33082000Y-33274000D01*
X33102000Y-33274000D01*
X33102000Y-33528000D01*
X33082000Y-33528000D01*
X33082000Y-33548000D01*
X32828000Y-33548000D01*
X32828000Y-33528000D01*
X31503750Y-33528000D01*
X31345000Y-33686750D01*
X31341928Y-33701000D01*
X31354188Y-33825482D01*
X31390498Y-33945180D01*
X31449463Y-34055494D01*
X31528815Y-34152185D01*
X31619497Y-34226606D01*
X31572000Y-34221928D01*
X31282750Y-34225000D01*
X31124000Y-34383750D01*
X31124000Y-35433000D01*
X31144000Y-35433000D01*
X31144000Y-35687000D01*
X31124000Y-35687000D01*
X31124000Y-35707000D01*
X30870000Y-35707000D01*
X30870000Y-35687000D01*
X30850000Y-35687000D01*
X30850000Y-35433000D01*
X30870000Y-35433000D01*
X30870000Y-34898213D01*
X30887421Y-34810631D01*
X30887421Y-34606753D01*
X30870000Y-34519171D01*
X30870000Y-34383750D01*
X30815546Y-34329296D01*
X30769626Y-34218436D01*
X30656358Y-34048918D01*
X30550075Y-33942635D01*
X30584405Y-33891256D01*
X30662426Y-33702898D01*
X30702200Y-33502939D01*
X30702200Y-33299061D01*
X30662426Y-33099102D01*
X30584405Y-32910744D01*
X30471137Y-32741226D01*
X30326974Y-32597063D01*
X30157456Y-32483795D01*
X29969098Y-32405774D01*
X29769139Y-32366000D01*
X29671646Y-32366000D01*
X29615254Y-32309608D01*
X29618072Y-32281000D01*
X29618072Y-31981000D01*
X29609219Y-31891112D01*
X29656910Y-31881626D01*
X29845268Y-31803605D01*
X30014786Y-31690337D01*
X30158949Y-31546174D01*
X30272217Y-31376656D01*
X30350238Y-31188298D01*
X30390012Y-30988339D01*
X30390012Y-30784461D01*
X30350238Y-30584502D01*
X30272217Y-30396144D01*
X30158949Y-30226626D01*
X30014786Y-30082463D01*
X29845268Y-29969195D01*
X29656910Y-29891174D01*
X29604311Y-29880712D01*
X29618072Y-29741000D01*
X29618072Y-29668437D01*
X29664942Y-29649023D01*
X29834460Y-29535755D01*
X29978623Y-29391592D01*
X30091891Y-29222074D01*
X30169912Y-29033716D01*
X30209686Y-28833757D01*
X30209686Y-28629879D01*
X30169912Y-28429920D01*
X30091891Y-28241562D01*
X29978623Y-28072044D01*
X29834460Y-27927881D01*
X29664942Y-27814613D01*
X29476584Y-27736592D01*
X29276625Y-27696818D01*
X29072747Y-27696818D01*
X29017323Y-27707842D01*
X28035000Y-26725520D01*
X28035000Y-26628027D01*
X27995226Y-26428068D01*
X27917205Y-26239710D01*
X27803937Y-26070192D01*
X27659774Y-25926029D01*
X27490256Y-25812761D01*
X27301898Y-25734740D01*
X27101939Y-25694966D01*
X26898061Y-25694966D01*
X26835000Y-25707510D01*
X26835000Y-25274406D01*
X26946498Y-25252228D01*
X27134856Y-25174207D01*
X27304374Y-25060939D01*
X27448537Y-24916776D01*
X27561805Y-24747258D01*
X27639826Y-24558900D01*
X27679600Y-24358941D01*
X27679600Y-24155063D01*
X27639826Y-23955104D01*
X27561805Y-23766746D01*
X27448537Y-23597228D01*
X27304374Y-23453065D01*
X27134856Y-23339797D01*
X26946498Y-23261776D01*
X26746539Y-23222002D01*
X26542661Y-23222002D01*
X26342702Y-23261776D01*
X26154344Y-23339797D01*
X25984826Y-23453065D01*
X25840663Y-23597228D01*
X25727395Y-23766746D01*
X25649374Y-23955104D01*
X25620507Y-24100228D01*
X25438574Y-24282161D01*
X25406710Y-24308311D01*
X25380562Y-24340173D01*
X25302364Y-24435457D01*
X25224828Y-24580516D01*
X25177082Y-24737914D01*
X25160960Y-24901602D01*
X25165001Y-24942630D01*
X25165001Y-26542869D01*
X25070139Y-26524000D01*
X24866261Y-26524000D01*
X24666302Y-26563774D01*
X24477944Y-26641795D01*
X24308426Y-26755063D01*
X24164263Y-26899226D01*
X24050995Y-27068744D01*
X23972974Y-27257102D01*
X23933200Y-27457061D01*
X23933200Y-27660939D01*
X23972974Y-27860898D01*
X24050995Y-28049256D01*
X24164263Y-28218774D01*
X24308426Y-28362937D01*
X24477944Y-28476205D01*
X24666302Y-28554226D01*
X24811425Y-28583092D01*
X25165001Y-28936669D01*
X25165000Y-34106132D01*
X24330576Y-34940557D01*
X24298709Y-34966709D01*
X24272559Y-34998574D01*
X23211225Y-36059907D01*
X23066102Y-36088774D01*
X22877744Y-36166795D01*
X22708226Y-36280063D01*
X22564063Y-36424226D01*
X22450795Y-36593744D01*
X22372774Y-36782102D01*
X22333000Y-36982061D01*
X22333000Y-37185939D01*
X22372774Y-37385898D01*
X22435913Y-37538328D01*
X22130599Y-37538328D01*
X21957345Y-37555392D01*
X21790749Y-37605928D01*
X21637213Y-37687995D01*
X21502638Y-37798438D01*
X21392195Y-37933013D01*
X21310128Y-38086549D01*
X21259592Y-38253145D01*
X21242528Y-38426399D01*
X21242528Y-39076401D01*
X21259592Y-39249655D01*
X21310128Y-39416251D01*
X21392195Y-39569787D01*
X21502638Y-39704362D01*
X21509194Y-39709742D01*
X21429415Y-39775215D01*
X21350063Y-39871906D01*
X21291098Y-39982220D01*
X21254788Y-40101918D01*
X21242528Y-40226400D01*
X21245600Y-40515650D01*
X21404350Y-40674400D01*
X22453600Y-40674400D01*
X22453600Y-40654400D01*
X22707600Y-40654400D01*
X22707600Y-40674400D01*
X23472550Y-40674400D01*
X23499150Y-40701000D01*
X24298400Y-40701000D01*
X24298400Y-40681000D01*
X24552400Y-40681000D01*
X24552400Y-40701000D01*
X25351650Y-40701000D01*
X25436257Y-40616393D01*
X25444863Y-40632494D01*
X25524215Y-40729185D01*
X25615401Y-40804019D01*
X25615400Y-41522629D01*
X25497438Y-41619438D01*
X25492058Y-41625994D01*
X25426585Y-41546215D01*
X25425712Y-41545498D01*
X25464902Y-41472180D01*
X25501212Y-41352482D01*
X25513472Y-41228000D01*
X25510400Y-41113750D01*
X25351650Y-40955000D01*
X24552400Y-40955000D01*
X24552400Y-41496150D01*
X24527400Y-41521150D01*
X24527400Y-42570400D01*
X24547400Y-42570400D01*
X24547400Y-42824400D01*
X24527400Y-42824400D01*
X24527400Y-43873650D01*
X24686150Y-44032400D01*
X24975400Y-44035472D01*
X25099882Y-44023212D01*
X25219580Y-43986902D01*
X25329894Y-43927937D01*
X25406309Y-43865225D01*
X25381000Y-43992461D01*
X25381000Y-44196339D01*
X25420774Y-44396298D01*
X25498795Y-44584656D01*
X25612063Y-44754174D01*
X25653306Y-44795417D01*
X20685000Y-44782186D01*
X20685000Y-43397400D01*
X23187328Y-43397400D01*
X23199588Y-43521882D01*
X23235898Y-43641580D01*
X23294863Y-43751894D01*
X23374215Y-43848585D01*
X23470906Y-43927937D01*
X23581220Y-43986902D01*
X23700918Y-44023212D01*
X23825400Y-44035472D01*
X24114650Y-44032400D01*
X24273400Y-43873650D01*
X24273400Y-42824400D01*
X23349150Y-42824400D01*
X23190400Y-42983150D01*
X23187328Y-43397400D01*
X20685000Y-43397400D01*
X20685000Y-41376400D01*
X21242528Y-41376400D01*
X21254788Y-41500882D01*
X21291098Y-41620580D01*
X21350063Y-41730894D01*
X21429415Y-41827585D01*
X21526106Y-41906937D01*
X21636420Y-41965902D01*
X21756118Y-42002212D01*
X21880600Y-42014472D01*
X22294850Y-42011400D01*
X22453600Y-41852650D01*
X22453600Y-40928400D01*
X22707600Y-40928400D01*
X22707600Y-41852650D01*
X22866350Y-42011400D01*
X23187449Y-42013781D01*
X23190400Y-42411650D01*
X23349150Y-42570400D01*
X24273400Y-42570400D01*
X24273400Y-41729250D01*
X24298400Y-41704250D01*
X24298400Y-40955000D01*
X23783450Y-40955000D01*
X23756850Y-40928400D01*
X22707600Y-40928400D01*
X22453600Y-40928400D01*
X21404350Y-40928400D01*
X21245600Y-41087150D01*
X21242528Y-41376400D01*
X20685000Y-41376400D01*
X20685000Y-20685000D01*
X38315000Y-20685000D01*
X38315001Y-44829137D01*
X38315001Y-44829137D01*
G37*
X38315001Y-44829137D02*
X37089449Y-44825873D01*
X37120812Y-44722482D01*
X37133072Y-44598000D01*
X37130000Y-43908750D01*
X36971250Y-43750000D01*
X36322000Y-43750000D01*
X36322000Y-43770000D01*
X36068000Y-43770000D01*
X36068000Y-43750000D01*
X36048000Y-43750000D01*
X36048000Y-43496000D01*
X36068000Y-43496000D01*
X36068000Y-42171750D01*
X36322000Y-42171750D01*
X36322000Y-43496000D01*
X36971250Y-43496000D01*
X37130000Y-43337250D01*
X37133072Y-42648000D01*
X37120812Y-42523518D01*
X37084502Y-42403820D01*
X37025537Y-42293506D01*
X36946185Y-42196815D01*
X36849494Y-42117463D01*
X36739180Y-42058498D01*
X36619482Y-42022188D01*
X36495000Y-42009928D01*
X36480750Y-42013000D01*
X36322000Y-42171750D01*
X36068000Y-42171750D01*
X35909250Y-42013000D01*
X35895000Y-42009928D01*
X35770518Y-42022188D01*
X35650820Y-42058498D01*
X35540506Y-42117463D01*
X35510936Y-42141730D01*
X35376582Y-42069916D01*
X35228745Y-42025071D01*
X35075000Y-42009928D01*
X34775000Y-42009928D01*
X34621255Y-42025071D01*
X34473418Y-42069916D01*
X34337171Y-42142742D01*
X34290000Y-42181454D01*
X34242829Y-42142742D01*
X34106582Y-42069916D01*
X33958745Y-42025071D01*
X33805000Y-42009928D01*
X33505000Y-42009928D01*
X33351255Y-42025071D01*
X33203418Y-42069916D01*
X33067171Y-42142742D01*
X33020000Y-42181454D01*
X32972829Y-42142742D01*
X32836582Y-42069916D01*
X32688745Y-42025071D01*
X32535000Y-42009928D01*
X32235000Y-42009928D01*
X32081255Y-42025071D01*
X31933418Y-42069916D01*
X31797171Y-42142742D01*
X31782792Y-42154542D01*
X31656250Y-42028000D01*
X30607000Y-42028000D01*
X30607000Y-42048000D01*
X30353000Y-42048000D01*
X30353000Y-42028000D01*
X29303750Y-42028000D01*
X29145000Y-42186750D01*
X29141928Y-42476000D01*
X29154188Y-42600482D01*
X29190498Y-42720180D01*
X29249463Y-42830494D01*
X29328815Y-42927185D01*
X29408594Y-42992658D01*
X29402038Y-42998038D01*
X29376466Y-43029198D01*
X28343200Y-41995933D01*
X28343200Y-41326000D01*
X29141928Y-41326000D01*
X29145000Y-41615250D01*
X29303750Y-41774000D01*
X30353000Y-41774000D01*
X30353000Y-40849750D01*
X30607000Y-40849750D01*
X30607000Y-41774000D01*
X31656250Y-41774000D01*
X31815000Y-41615250D01*
X31818072Y-41326000D01*
X31805812Y-41201518D01*
X31769502Y-41081820D01*
X31710537Y-40971506D01*
X31631185Y-40874815D01*
X31534494Y-40795463D01*
X31424180Y-40736498D01*
X31304482Y-40700188D01*
X31180000Y-40687928D01*
X30765750Y-40691000D01*
X30607000Y-40849750D01*
X30353000Y-40849750D01*
X30194250Y-40691000D01*
X29780000Y-40687928D01*
X29655518Y-40700188D01*
X29535820Y-40736498D01*
X29425506Y-40795463D01*
X29328815Y-40874815D01*
X29249463Y-40971506D01*
X29190498Y-41081820D01*
X29154188Y-41201518D01*
X29141928Y-41326000D01*
X28343200Y-41326000D01*
X28343200Y-41020218D01*
X28347240Y-40979200D01*
X28331118Y-40815512D01*
X28329002Y-40808537D01*
X28283372Y-40658113D01*
X28230401Y-40559012D01*
X28246228Y-40559012D01*
X28446187Y-40519238D01*
X28634545Y-40441217D01*
X28804063Y-40327949D01*
X28948226Y-40183786D01*
X29061494Y-40014268D01*
X29139515Y-39825910D01*
X29179289Y-39625951D01*
X29179289Y-39563813D01*
X29575313Y-39167790D01*
X29676063Y-39318574D01*
X29820226Y-39462737D01*
X29989744Y-39576005D01*
X30178102Y-39654026D01*
X30378061Y-39693800D01*
X30581939Y-39693800D01*
X30781898Y-39654026D01*
X30968803Y-39576607D01*
X31081944Y-39652205D01*
X31270302Y-39730226D01*
X31470261Y-39770000D01*
X31497943Y-39770000D01*
X31506916Y-39799582D01*
X31579742Y-39935829D01*
X31677749Y-40055251D01*
X31797171Y-40153258D01*
X31933418Y-40226084D01*
X32081255Y-40270929D01*
X32235000Y-40286072D01*
X32535000Y-40286072D01*
X32688745Y-40270929D01*
X32836582Y-40226084D01*
X32972829Y-40153258D01*
X33020000Y-40114546D01*
X33067171Y-40153258D01*
X33203418Y-40226084D01*
X33351255Y-40270929D01*
X33505000Y-40286072D01*
X33805000Y-40286072D01*
X33958745Y-40270929D01*
X34106582Y-40226084D01*
X34242829Y-40153258D01*
X34290000Y-40114546D01*
X34337171Y-40153258D01*
X34473418Y-40226084D01*
X34621255Y-40270929D01*
X34775000Y-40286072D01*
X35075000Y-40286072D01*
X35228745Y-40270929D01*
X35376582Y-40226084D01*
X35512829Y-40153258D01*
X35560000Y-40114546D01*
X35607171Y-40153258D01*
X35743418Y-40226084D01*
X35891255Y-40270929D01*
X36045000Y-40286072D01*
X36345000Y-40286072D01*
X36498745Y-40270929D01*
X36646582Y-40226084D01*
X36782829Y-40153258D01*
X36902251Y-40055251D01*
X37000258Y-39935829D01*
X37073084Y-39799582D01*
X37117929Y-39651745D01*
X37133072Y-39498000D01*
X37133072Y-37848000D01*
X37117929Y-37694255D01*
X37073084Y-37546418D01*
X37000258Y-37410171D01*
X36930000Y-37324561D01*
X36930000Y-35781608D01*
X36933556Y-35745503D01*
X36919365Y-35601417D01*
X36892431Y-35512629D01*
X36877337Y-35462870D01*
X36809087Y-35335183D01*
X36717238Y-35223265D01*
X36689187Y-35200244D01*
X36374859Y-34885916D01*
X36374859Y-34788423D01*
X36335085Y-34588464D01*
X36257064Y-34400106D01*
X36143796Y-34230588D01*
X35999633Y-34086425D01*
X35865032Y-33996488D01*
X35865032Y-30771937D01*
X35868588Y-30735832D01*
X35854397Y-30591747D01*
X35843934Y-30557255D01*
X35812369Y-30453199D01*
X35744119Y-30325512D01*
X35652270Y-30213594D01*
X35624225Y-30190578D01*
X34693715Y-29260069D01*
X34670974Y-29217524D01*
X34599799Y-29130798D01*
X34549004Y-29080003D01*
X34525201Y-29050999D01*
X34409476Y-28956026D01*
X34386479Y-28943734D01*
X34337251Y-28883749D01*
X34217829Y-28785742D01*
X34081582Y-28712916D01*
X33933745Y-28668071D01*
X33780000Y-28652928D01*
X32130000Y-28652928D01*
X31976255Y-28668071D01*
X31828418Y-28712916D01*
X31692171Y-28785742D01*
X31572749Y-28883749D01*
X31474742Y-29003171D01*
X31401916Y-29139418D01*
X31357071Y-29287255D01*
X31341928Y-29441000D01*
X31341928Y-29741000D01*
X31357071Y-29894745D01*
X31401916Y-30042582D01*
X31474742Y-30178829D01*
X31513454Y-30226000D01*
X31474742Y-30273171D01*
X31401916Y-30409418D01*
X31357071Y-30557255D01*
X31341928Y-30711000D01*
X31341928Y-31011000D01*
X31357071Y-31164745D01*
X31401916Y-31312582D01*
X31474742Y-31448829D01*
X31513454Y-31496000D01*
X31474742Y-31543171D01*
X31401916Y-31679418D01*
X31357071Y-31827255D01*
X31341928Y-31981000D01*
X31341928Y-32281000D01*
X31357071Y-32434745D01*
X31401916Y-32582582D01*
X31473730Y-32716936D01*
X31449463Y-32746506D01*
X31390498Y-32856820D01*
X31354188Y-32976518D01*
X31341928Y-33101000D01*
X31345000Y-33115250D01*
X31503750Y-33274000D01*
X32828000Y-33274000D01*
X32828000Y-33254000D01*
X33082000Y-33254000D01*
X33082000Y-33274000D01*
X33102000Y-33274000D01*
X33102000Y-33528000D01*
X33082000Y-33528000D01*
X33082000Y-33548000D01*
X32828000Y-33548000D01*
X32828000Y-33528000D01*
X31503750Y-33528000D01*
X31345000Y-33686750D01*
X31341928Y-33701000D01*
X31354188Y-33825482D01*
X31390498Y-33945180D01*
X31449463Y-34055494D01*
X31528815Y-34152185D01*
X31619497Y-34226606D01*
X31572000Y-34221928D01*
X31282750Y-34225000D01*
X31124000Y-34383750D01*
X31124000Y-35433000D01*
X31144000Y-35433000D01*
X31144000Y-35687000D01*
X31124000Y-35687000D01*
X31124000Y-35707000D01*
X30870000Y-35707000D01*
X30870000Y-35687000D01*
X30850000Y-35687000D01*
X30850000Y-35433000D01*
X30870000Y-35433000D01*
X30870000Y-34898213D01*
X30887421Y-34810631D01*
X30887421Y-34606753D01*
X30870000Y-34519171D01*
X30870000Y-34383750D01*
X30815546Y-34329296D01*
X30769626Y-34218436D01*
X30656358Y-34048918D01*
X30550075Y-33942635D01*
X30584405Y-33891256D01*
X30662426Y-33702898D01*
X30702200Y-33502939D01*
X30702200Y-33299061D01*
X30662426Y-33099102D01*
X30584405Y-32910744D01*
X30471137Y-32741226D01*
X30326974Y-32597063D01*
X30157456Y-32483795D01*
X29969098Y-32405774D01*
X29769139Y-32366000D01*
X29671646Y-32366000D01*
X29615254Y-32309608D01*
X29618072Y-32281000D01*
X29618072Y-31981000D01*
X29609219Y-31891112D01*
X29656910Y-31881626D01*
X29845268Y-31803605D01*
X30014786Y-31690337D01*
X30158949Y-31546174D01*
X30272217Y-31376656D01*
X30350238Y-31188298D01*
X30390012Y-30988339D01*
X30390012Y-30784461D01*
X30350238Y-30584502D01*
X30272217Y-30396144D01*
X30158949Y-30226626D01*
X30014786Y-30082463D01*
X29845268Y-29969195D01*
X29656910Y-29891174D01*
X29604311Y-29880712D01*
X29618072Y-29741000D01*
X29618072Y-29668437D01*
X29664942Y-29649023D01*
X29834460Y-29535755D01*
X29978623Y-29391592D01*
X30091891Y-29222074D01*
X30169912Y-29033716D01*
X30209686Y-28833757D01*
X30209686Y-28629879D01*
X30169912Y-28429920D01*
X30091891Y-28241562D01*
X29978623Y-28072044D01*
X29834460Y-27927881D01*
X29664942Y-27814613D01*
X29476584Y-27736592D01*
X29276625Y-27696818D01*
X29072747Y-27696818D01*
X29017323Y-27707842D01*
X28035000Y-26725520D01*
X28035000Y-26628027D01*
X27995226Y-26428068D01*
X27917205Y-26239710D01*
X27803937Y-26070192D01*
X27659774Y-25926029D01*
X27490256Y-25812761D01*
X27301898Y-25734740D01*
X27101939Y-25694966D01*
X26898061Y-25694966D01*
X26835000Y-25707510D01*
X26835000Y-25274406D01*
X26946498Y-25252228D01*
X27134856Y-25174207D01*
X27304374Y-25060939D01*
X27448537Y-24916776D01*
X27561805Y-24747258D01*
X27639826Y-24558900D01*
X27679600Y-24358941D01*
X27679600Y-24155063D01*
X27639826Y-23955104D01*
X27561805Y-23766746D01*
X27448537Y-23597228D01*
X27304374Y-23453065D01*
X27134856Y-23339797D01*
X26946498Y-23261776D01*
X26746539Y-23222002D01*
X26542661Y-23222002D01*
X26342702Y-23261776D01*
X26154344Y-23339797D01*
X25984826Y-23453065D01*
X25840663Y-23597228D01*
X25727395Y-23766746D01*
X25649374Y-23955104D01*
X25620507Y-24100228D01*
X25438574Y-24282161D01*
X25406710Y-24308311D01*
X25380562Y-24340173D01*
X25302364Y-24435457D01*
X25224828Y-24580516D01*
X25177082Y-24737914D01*
X25160960Y-24901602D01*
X25165001Y-24942630D01*
X25165001Y-26542869D01*
X25070139Y-26524000D01*
X24866261Y-26524000D01*
X24666302Y-26563774D01*
X24477944Y-26641795D01*
X24308426Y-26755063D01*
X24164263Y-26899226D01*
X24050995Y-27068744D01*
X23972974Y-27257102D01*
X23933200Y-27457061D01*
X23933200Y-27660939D01*
X23972974Y-27860898D01*
X24050995Y-28049256D01*
X24164263Y-28218774D01*
X24308426Y-28362937D01*
X24477944Y-28476205D01*
X24666302Y-28554226D01*
X24811425Y-28583092D01*
X25165001Y-28936669D01*
X25165000Y-34106132D01*
X24330576Y-34940557D01*
X24298709Y-34966709D01*
X24272559Y-34998574D01*
X23211225Y-36059907D01*
X23066102Y-36088774D01*
X22877744Y-36166795D01*
X22708226Y-36280063D01*
X22564063Y-36424226D01*
X22450795Y-36593744D01*
X22372774Y-36782102D01*
X22333000Y-36982061D01*
X22333000Y-37185939D01*
X22372774Y-37385898D01*
X22435913Y-37538328D01*
X22130599Y-37538328D01*
X21957345Y-37555392D01*
X21790749Y-37605928D01*
X21637213Y-37687995D01*
X21502638Y-37798438D01*
X21392195Y-37933013D01*
X21310128Y-38086549D01*
X21259592Y-38253145D01*
X21242528Y-38426399D01*
X21242528Y-39076401D01*
X21259592Y-39249655D01*
X21310128Y-39416251D01*
X21392195Y-39569787D01*
X21502638Y-39704362D01*
X21509194Y-39709742D01*
X21429415Y-39775215D01*
X21350063Y-39871906D01*
X21291098Y-39982220D01*
X21254788Y-40101918D01*
X21242528Y-40226400D01*
X21245600Y-40515650D01*
X21404350Y-40674400D01*
X22453600Y-40674400D01*
X22453600Y-40654400D01*
X22707600Y-40654400D01*
X22707600Y-40674400D01*
X23472550Y-40674400D01*
X23499150Y-40701000D01*
X24298400Y-40701000D01*
X24298400Y-40681000D01*
X24552400Y-40681000D01*
X24552400Y-40701000D01*
X25351650Y-40701000D01*
X25436257Y-40616393D01*
X25444863Y-40632494D01*
X25524215Y-40729185D01*
X25615401Y-40804019D01*
X25615400Y-41522629D01*
X25497438Y-41619438D01*
X25492058Y-41625994D01*
X25426585Y-41546215D01*
X25425712Y-41545498D01*
X25464902Y-41472180D01*
X25501212Y-41352482D01*
X25513472Y-41228000D01*
X25510400Y-41113750D01*
X25351650Y-40955000D01*
X24552400Y-40955000D01*
X24552400Y-41496150D01*
X24527400Y-41521150D01*
X24527400Y-42570400D01*
X24547400Y-42570400D01*
X24547400Y-42824400D01*
X24527400Y-42824400D01*
X24527400Y-43873650D01*
X24686150Y-44032400D01*
X24975400Y-44035472D01*
X25099882Y-44023212D01*
X25219580Y-43986902D01*
X25329894Y-43927937D01*
X25406309Y-43865225D01*
X25381000Y-43992461D01*
X25381000Y-44196339D01*
X25420774Y-44396298D01*
X25498795Y-44584656D01*
X25612063Y-44754174D01*
X25653306Y-44795417D01*
X20685000Y-44782186D01*
X20685000Y-43397400D01*
X23187328Y-43397400D01*
X23199588Y-43521882D01*
X23235898Y-43641580D01*
X23294863Y-43751894D01*
X23374215Y-43848585D01*
X23470906Y-43927937D01*
X23581220Y-43986902D01*
X23700918Y-44023212D01*
X23825400Y-44035472D01*
X24114650Y-44032400D01*
X24273400Y-43873650D01*
X24273400Y-42824400D01*
X23349150Y-42824400D01*
X23190400Y-42983150D01*
X23187328Y-43397400D01*
X20685000Y-43397400D01*
X20685000Y-41376400D01*
X21242528Y-41376400D01*
X21254788Y-41500882D01*
X21291098Y-41620580D01*
X21350063Y-41730894D01*
X21429415Y-41827585D01*
X21526106Y-41906937D01*
X21636420Y-41965902D01*
X21756118Y-42002212D01*
X21880600Y-42014472D01*
X22294850Y-42011400D01*
X22453600Y-41852650D01*
X22453600Y-40928400D01*
X22707600Y-40928400D01*
X22707600Y-41852650D01*
X22866350Y-42011400D01*
X23187449Y-42013781D01*
X23190400Y-42411650D01*
X23349150Y-42570400D01*
X24273400Y-42570400D01*
X24273400Y-41729250D01*
X24298400Y-41704250D01*
X24298400Y-40955000D01*
X23783450Y-40955000D01*
X23756850Y-40928400D01*
X22707600Y-40928400D01*
X22453600Y-40928400D01*
X21404350Y-40928400D01*
X21245600Y-41087150D01*
X21242528Y-41376400D01*
X20685000Y-41376400D01*
X20685000Y-20685000D01*
X38315000Y-20685000D01*
X38315001Y-44829137D01*
M02*
