G04 #@! TF.GenerationSoftware,KiCad,Pcbnew,5.1.2-f72e74a~84~ubuntu16.04.1*
G04 #@! TF.CreationDate,2019-06-21T14:24:11+02:00*
G04 #@! TF.ProjectId,microstepper,6d696372-6f73-4746-9570-7065722e6b69,rev?*
G04 #@! TF.SameCoordinates,Original*
G04 #@! TF.FileFunction,Soldermask,Bot*
G04 #@! TF.FilePolarity,Negative*
%FSLAX46Y46*%
G04 Gerber Fmt 4.6, Leading zero omitted, Abs format (unit mm)*
G04 Created by KiCad (PCBNEW 5.1.2-f72e74a~84~ubuntu16.04.1) date 2019-06-21 14:24:11*
%MOMM*%
%LPD*%
G04 APERTURE LIST*
%ADD10C,0.100000*%
G04 APERTURE END LIST*
D10*
G36*
X35829474Y-47488065D02*
G01*
X35867167Y-47499499D01*
X35901903Y-47518066D01*
X35932348Y-47543052D01*
X35957334Y-47573497D01*
X35975901Y-47608233D01*
X35987335Y-47645926D01*
X35991800Y-47691261D01*
X35991800Y-48777939D01*
X35987335Y-48823274D01*
X35975901Y-48860967D01*
X35957334Y-48895703D01*
X35932348Y-48926148D01*
X35901903Y-48951134D01*
X35867167Y-48969701D01*
X35829474Y-48981135D01*
X35784139Y-48985600D01*
X34947461Y-48985600D01*
X34902126Y-48981135D01*
X34864433Y-48969701D01*
X34829697Y-48951134D01*
X34799252Y-48926148D01*
X34774266Y-48895703D01*
X34755699Y-48860967D01*
X34744265Y-48823274D01*
X34739800Y-48777939D01*
X34739800Y-47691261D01*
X34744265Y-47645926D01*
X34755699Y-47608233D01*
X34774266Y-47573497D01*
X34799252Y-47543052D01*
X34829697Y-47518066D01*
X34864433Y-47499499D01*
X34902126Y-47488065D01*
X34947461Y-47483600D01*
X35784139Y-47483600D01*
X35829474Y-47488065D01*
X35829474Y-47488065D01*
G37*
G36*
X33779474Y-47488065D02*
G01*
X33817167Y-47499499D01*
X33851903Y-47518066D01*
X33882348Y-47543052D01*
X33907334Y-47573497D01*
X33925901Y-47608233D01*
X33937335Y-47645926D01*
X33941800Y-47691261D01*
X33941800Y-48777939D01*
X33937335Y-48823274D01*
X33925901Y-48860967D01*
X33907334Y-48895703D01*
X33882348Y-48926148D01*
X33851903Y-48951134D01*
X33817167Y-48969701D01*
X33779474Y-48981135D01*
X33734139Y-48985600D01*
X32897461Y-48985600D01*
X32852126Y-48981135D01*
X32814433Y-48969701D01*
X32779697Y-48951134D01*
X32749252Y-48926148D01*
X32724266Y-48895703D01*
X32705699Y-48860967D01*
X32694265Y-48823274D01*
X32689800Y-48777939D01*
X32689800Y-47691261D01*
X32694265Y-47645926D01*
X32705699Y-47608233D01*
X32724266Y-47573497D01*
X32749252Y-47543052D01*
X32779697Y-47518066D01*
X32814433Y-47499499D01*
X32852126Y-47488065D01*
X32897461Y-47483600D01*
X33734139Y-47483600D01*
X33779474Y-47488065D01*
X33779474Y-47488065D01*
G37*
G36*
X33914928Y-42599764D02*
G01*
X33936009Y-42606160D01*
X33955445Y-42616548D01*
X33972476Y-42630524D01*
X33986452Y-42647555D01*
X33996840Y-42666991D01*
X34003236Y-42688072D01*
X34006000Y-42716140D01*
X34006000Y-44529860D01*
X34003236Y-44557928D01*
X33996840Y-44579009D01*
X33986452Y-44598445D01*
X33972476Y-44615476D01*
X33955445Y-44629452D01*
X33936009Y-44639840D01*
X33914928Y-44646236D01*
X33886860Y-44649000D01*
X33423140Y-44649000D01*
X33395072Y-44646236D01*
X33373991Y-44639840D01*
X33354555Y-44629452D01*
X33337524Y-44615476D01*
X33323548Y-44598445D01*
X33313160Y-44579009D01*
X33306764Y-44557928D01*
X33304000Y-44529860D01*
X33304000Y-42716140D01*
X33306764Y-42688072D01*
X33313160Y-42666991D01*
X33323548Y-42647555D01*
X33337524Y-42630524D01*
X33354555Y-42616548D01*
X33373991Y-42606160D01*
X33395072Y-42599764D01*
X33423140Y-42597000D01*
X33886860Y-42597000D01*
X33914928Y-42599764D01*
X33914928Y-42599764D01*
G37*
G36*
X36454928Y-42599764D02*
G01*
X36476009Y-42606160D01*
X36495445Y-42616548D01*
X36512476Y-42630524D01*
X36526452Y-42647555D01*
X36536840Y-42666991D01*
X36543236Y-42688072D01*
X36546000Y-42716140D01*
X36546000Y-44529860D01*
X36543236Y-44557928D01*
X36536840Y-44579009D01*
X36526452Y-44598445D01*
X36512476Y-44615476D01*
X36495445Y-44629452D01*
X36476009Y-44639840D01*
X36454928Y-44646236D01*
X36426860Y-44649000D01*
X35963140Y-44649000D01*
X35935072Y-44646236D01*
X35913991Y-44639840D01*
X35894555Y-44629452D01*
X35877524Y-44615476D01*
X35863548Y-44598445D01*
X35853160Y-44579009D01*
X35846764Y-44557928D01*
X35844000Y-44529860D01*
X35844000Y-42716140D01*
X35846764Y-42688072D01*
X35853160Y-42666991D01*
X35863548Y-42647555D01*
X35877524Y-42630524D01*
X35894555Y-42616548D01*
X35913991Y-42606160D01*
X35935072Y-42599764D01*
X35963140Y-42597000D01*
X36426860Y-42597000D01*
X36454928Y-42599764D01*
X36454928Y-42599764D01*
G37*
G36*
X35184928Y-42599764D02*
G01*
X35206009Y-42606160D01*
X35225445Y-42616548D01*
X35242476Y-42630524D01*
X35256452Y-42647555D01*
X35266840Y-42666991D01*
X35273236Y-42688072D01*
X35276000Y-42716140D01*
X35276000Y-44529860D01*
X35273236Y-44557928D01*
X35266840Y-44579009D01*
X35256452Y-44598445D01*
X35242476Y-44615476D01*
X35225445Y-44629452D01*
X35206009Y-44639840D01*
X35184928Y-44646236D01*
X35156860Y-44649000D01*
X34693140Y-44649000D01*
X34665072Y-44646236D01*
X34643991Y-44639840D01*
X34624555Y-44629452D01*
X34607524Y-44615476D01*
X34593548Y-44598445D01*
X34583160Y-44579009D01*
X34576764Y-44557928D01*
X34574000Y-44529860D01*
X34574000Y-42716140D01*
X34576764Y-42688072D01*
X34583160Y-42666991D01*
X34593548Y-42647555D01*
X34607524Y-42630524D01*
X34624555Y-42616548D01*
X34643991Y-42606160D01*
X34665072Y-42599764D01*
X34693140Y-42597000D01*
X35156860Y-42597000D01*
X35184928Y-42599764D01*
X35184928Y-42599764D01*
G37*
G36*
X32644928Y-42599764D02*
G01*
X32666009Y-42606160D01*
X32685445Y-42616548D01*
X32702476Y-42630524D01*
X32716452Y-42647555D01*
X32726840Y-42666991D01*
X32733236Y-42688072D01*
X32736000Y-42716140D01*
X32736000Y-44529860D01*
X32733236Y-44557928D01*
X32726840Y-44579009D01*
X32716452Y-44598445D01*
X32702476Y-44615476D01*
X32685445Y-44629452D01*
X32666009Y-44639840D01*
X32644928Y-44646236D01*
X32616860Y-44649000D01*
X32153140Y-44649000D01*
X32125072Y-44646236D01*
X32103991Y-44639840D01*
X32084555Y-44629452D01*
X32067524Y-44615476D01*
X32053548Y-44598445D01*
X32043160Y-44579009D01*
X32036764Y-44557928D01*
X32034000Y-44529860D01*
X32034000Y-42716140D01*
X32036764Y-42688072D01*
X32043160Y-42666991D01*
X32053548Y-42647555D01*
X32067524Y-42630524D01*
X32084555Y-42616548D01*
X32103991Y-42606160D01*
X32125072Y-42599764D01*
X32153140Y-42597000D01*
X32616860Y-42597000D01*
X32644928Y-42599764D01*
X32644928Y-42599764D01*
G37*
G36*
X31068674Y-43329465D02*
G01*
X31106367Y-43340899D01*
X31141103Y-43359466D01*
X31171548Y-43384452D01*
X31196534Y-43414897D01*
X31215101Y-43449633D01*
X31226535Y-43487326D01*
X31231000Y-43532661D01*
X31231000Y-44369339D01*
X31226535Y-44414674D01*
X31215101Y-44452367D01*
X31196534Y-44487103D01*
X31171548Y-44517548D01*
X31141103Y-44542534D01*
X31106367Y-44561101D01*
X31068674Y-44572535D01*
X31023339Y-44577000D01*
X29936661Y-44577000D01*
X29891326Y-44572535D01*
X29853633Y-44561101D01*
X29818897Y-44542534D01*
X29788452Y-44517548D01*
X29763466Y-44487103D01*
X29744899Y-44452367D01*
X29733465Y-44414674D01*
X29729000Y-44369339D01*
X29729000Y-43532661D01*
X29733465Y-43487326D01*
X29744899Y-43449633D01*
X29763466Y-43414897D01*
X29788452Y-43384452D01*
X29818897Y-43359466D01*
X29853633Y-43340899D01*
X29891326Y-43329465D01*
X29936661Y-43325000D01*
X31023339Y-43325000D01*
X31068674Y-43329465D01*
X31068674Y-43329465D01*
G37*
G36*
X26914074Y-41950865D02*
G01*
X26951767Y-41962299D01*
X26986503Y-41980866D01*
X27016948Y-42005852D01*
X27041934Y-42036297D01*
X27060501Y-42071033D01*
X27071935Y-42108726D01*
X27076400Y-42154061D01*
X27076400Y-43240739D01*
X27071935Y-43286074D01*
X27060501Y-43323767D01*
X27041934Y-43358503D01*
X27016948Y-43388948D01*
X26986503Y-43413934D01*
X26951767Y-43432501D01*
X26914074Y-43443935D01*
X26868739Y-43448400D01*
X26032061Y-43448400D01*
X25986726Y-43443935D01*
X25949033Y-43432501D01*
X25914297Y-43413934D01*
X25883852Y-43388948D01*
X25858866Y-43358503D01*
X25840299Y-43323767D01*
X25828865Y-43286074D01*
X25824400Y-43240739D01*
X25824400Y-42154061D01*
X25828865Y-42108726D01*
X25840299Y-42071033D01*
X25858866Y-42036297D01*
X25883852Y-42005852D01*
X25914297Y-41980866D01*
X25949033Y-41962299D01*
X25986726Y-41950865D01*
X26032061Y-41946400D01*
X26868739Y-41946400D01*
X26914074Y-41950865D01*
X26914074Y-41950865D01*
G37*
G36*
X24864074Y-41950865D02*
G01*
X24901767Y-41962299D01*
X24936503Y-41980866D01*
X24966948Y-42005852D01*
X24991934Y-42036297D01*
X25010501Y-42071033D01*
X25021935Y-42108726D01*
X25026400Y-42154061D01*
X25026400Y-43240739D01*
X25021935Y-43286074D01*
X25010501Y-43323767D01*
X24991934Y-43358503D01*
X24966948Y-43388948D01*
X24936503Y-43413934D01*
X24901767Y-43432501D01*
X24864074Y-43443935D01*
X24818739Y-43448400D01*
X23982061Y-43448400D01*
X23936726Y-43443935D01*
X23899033Y-43432501D01*
X23864297Y-43413934D01*
X23833852Y-43388948D01*
X23808866Y-43358503D01*
X23790299Y-43323767D01*
X23778865Y-43286074D01*
X23774400Y-43240739D01*
X23774400Y-42154061D01*
X23778865Y-42108726D01*
X23790299Y-42071033D01*
X23808866Y-42036297D01*
X23833852Y-42005852D01*
X23864297Y-41980866D01*
X23899033Y-41962299D01*
X23936726Y-41950865D01*
X23982061Y-41946400D01*
X24818739Y-41946400D01*
X24864074Y-41950865D01*
X24864074Y-41950865D01*
G37*
G36*
X31068674Y-41279465D02*
G01*
X31106367Y-41290899D01*
X31141103Y-41309466D01*
X31171548Y-41334452D01*
X31196534Y-41364897D01*
X31215101Y-41399633D01*
X31226535Y-41437326D01*
X31231000Y-41482661D01*
X31231000Y-42319339D01*
X31226535Y-42364674D01*
X31215101Y-42402367D01*
X31196534Y-42437103D01*
X31171548Y-42467548D01*
X31141103Y-42492534D01*
X31106367Y-42511101D01*
X31068674Y-42522535D01*
X31023339Y-42527000D01*
X29936661Y-42527000D01*
X29891326Y-42522535D01*
X29853633Y-42511101D01*
X29818897Y-42492534D01*
X29788452Y-42467548D01*
X29763466Y-42437103D01*
X29744899Y-42402367D01*
X29733465Y-42364674D01*
X29729000Y-42319339D01*
X29729000Y-41482661D01*
X29733465Y-41437326D01*
X29744899Y-41399633D01*
X29763466Y-41364897D01*
X29788452Y-41334452D01*
X29818897Y-41309466D01*
X29853633Y-41290899D01*
X29891326Y-41279465D01*
X29936661Y-41275000D01*
X31023339Y-41275000D01*
X31068674Y-41279465D01*
X31068674Y-41279465D01*
G37*
G36*
X23169274Y-40179865D02*
G01*
X23206967Y-40191299D01*
X23241703Y-40209866D01*
X23272148Y-40234852D01*
X23297134Y-40265297D01*
X23315701Y-40300033D01*
X23327135Y-40337726D01*
X23331600Y-40383061D01*
X23331600Y-41219739D01*
X23327135Y-41265074D01*
X23315701Y-41302767D01*
X23297134Y-41337503D01*
X23272148Y-41367948D01*
X23241703Y-41392934D01*
X23206967Y-41411501D01*
X23169274Y-41422935D01*
X23123939Y-41427400D01*
X22037261Y-41427400D01*
X21991926Y-41422935D01*
X21954233Y-41411501D01*
X21919497Y-41392934D01*
X21889052Y-41367948D01*
X21864066Y-41337503D01*
X21845499Y-41302767D01*
X21834065Y-41265074D01*
X21829600Y-41219739D01*
X21829600Y-40383061D01*
X21834065Y-40337726D01*
X21845499Y-40300033D01*
X21864066Y-40265297D01*
X21889052Y-40234852D01*
X21919497Y-40209866D01*
X21954233Y-40191299D01*
X21991926Y-40179865D01*
X22037261Y-40175400D01*
X23123939Y-40175400D01*
X23169274Y-40179865D01*
X23169274Y-40179865D01*
G37*
G36*
X24926400Y-41279000D02*
G01*
X23924400Y-41279000D01*
X23924400Y-40377000D01*
X24926400Y-40377000D01*
X24926400Y-41279000D01*
X24926400Y-41279000D01*
G37*
G36*
X26926400Y-40329000D02*
G01*
X25924400Y-40329000D01*
X25924400Y-39427000D01*
X26926400Y-39427000D01*
X26926400Y-40329000D01*
X26926400Y-40329000D01*
G37*
G36*
X36454928Y-37649764D02*
G01*
X36476009Y-37656160D01*
X36495445Y-37666548D01*
X36512476Y-37680524D01*
X36526452Y-37697555D01*
X36536840Y-37716991D01*
X36543236Y-37738072D01*
X36546000Y-37766140D01*
X36546000Y-39579860D01*
X36543236Y-39607928D01*
X36536840Y-39629009D01*
X36526452Y-39648445D01*
X36512476Y-39665476D01*
X36495445Y-39679452D01*
X36476009Y-39689840D01*
X36454928Y-39696236D01*
X36426860Y-39699000D01*
X35963140Y-39699000D01*
X35935072Y-39696236D01*
X35913991Y-39689840D01*
X35894555Y-39679452D01*
X35877524Y-39665476D01*
X35863548Y-39648445D01*
X35853160Y-39629009D01*
X35846764Y-39607928D01*
X35844000Y-39579860D01*
X35844000Y-37766140D01*
X35846764Y-37738072D01*
X35853160Y-37716991D01*
X35863548Y-37697555D01*
X35877524Y-37680524D01*
X35894555Y-37666548D01*
X35913991Y-37656160D01*
X35935072Y-37649764D01*
X35963140Y-37647000D01*
X36426860Y-37647000D01*
X36454928Y-37649764D01*
X36454928Y-37649764D01*
G37*
G36*
X33914928Y-37649764D02*
G01*
X33936009Y-37656160D01*
X33955445Y-37666548D01*
X33972476Y-37680524D01*
X33986452Y-37697555D01*
X33996840Y-37716991D01*
X34003236Y-37738072D01*
X34006000Y-37766140D01*
X34006000Y-39579860D01*
X34003236Y-39607928D01*
X33996840Y-39629009D01*
X33986452Y-39648445D01*
X33972476Y-39665476D01*
X33955445Y-39679452D01*
X33936009Y-39689840D01*
X33914928Y-39696236D01*
X33886860Y-39699000D01*
X33423140Y-39699000D01*
X33395072Y-39696236D01*
X33373991Y-39689840D01*
X33354555Y-39679452D01*
X33337524Y-39665476D01*
X33323548Y-39648445D01*
X33313160Y-39629009D01*
X33306764Y-39607928D01*
X33304000Y-39579860D01*
X33304000Y-37766140D01*
X33306764Y-37738072D01*
X33313160Y-37716991D01*
X33323548Y-37697555D01*
X33337524Y-37680524D01*
X33354555Y-37666548D01*
X33373991Y-37656160D01*
X33395072Y-37649764D01*
X33423140Y-37647000D01*
X33886860Y-37647000D01*
X33914928Y-37649764D01*
X33914928Y-37649764D01*
G37*
G36*
X35184928Y-37649764D02*
G01*
X35206009Y-37656160D01*
X35225445Y-37666548D01*
X35242476Y-37680524D01*
X35256452Y-37697555D01*
X35266840Y-37716991D01*
X35273236Y-37738072D01*
X35276000Y-37766140D01*
X35276000Y-39579860D01*
X35273236Y-39607928D01*
X35266840Y-39629009D01*
X35256452Y-39648445D01*
X35242476Y-39665476D01*
X35225445Y-39679452D01*
X35206009Y-39689840D01*
X35184928Y-39696236D01*
X35156860Y-39699000D01*
X34693140Y-39699000D01*
X34665072Y-39696236D01*
X34643991Y-39689840D01*
X34624555Y-39679452D01*
X34607524Y-39665476D01*
X34593548Y-39648445D01*
X34583160Y-39629009D01*
X34576764Y-39607928D01*
X34574000Y-39579860D01*
X34574000Y-37766140D01*
X34576764Y-37738072D01*
X34583160Y-37716991D01*
X34593548Y-37697555D01*
X34607524Y-37680524D01*
X34624555Y-37666548D01*
X34643991Y-37656160D01*
X34665072Y-37649764D01*
X34693140Y-37647000D01*
X35156860Y-37647000D01*
X35184928Y-37649764D01*
X35184928Y-37649764D01*
G37*
G36*
X32644928Y-37649764D02*
G01*
X32666009Y-37656160D01*
X32685445Y-37666548D01*
X32702476Y-37680524D01*
X32716452Y-37697555D01*
X32726840Y-37716991D01*
X32733236Y-37738072D01*
X32736000Y-37766140D01*
X32736000Y-39579860D01*
X32733236Y-39607928D01*
X32726840Y-39629009D01*
X32716452Y-39648445D01*
X32702476Y-39665476D01*
X32685445Y-39679452D01*
X32666009Y-39689840D01*
X32644928Y-39696236D01*
X32616860Y-39699000D01*
X32153140Y-39699000D01*
X32125072Y-39696236D01*
X32103991Y-39689840D01*
X32084555Y-39679452D01*
X32067524Y-39665476D01*
X32053548Y-39648445D01*
X32043160Y-39629009D01*
X32036764Y-39607928D01*
X32034000Y-39579860D01*
X32034000Y-37766140D01*
X32036764Y-37738072D01*
X32043160Y-37716991D01*
X32053548Y-37697555D01*
X32067524Y-37680524D01*
X32084555Y-37666548D01*
X32103991Y-37656160D01*
X32125072Y-37649764D01*
X32153140Y-37647000D01*
X32616860Y-37647000D01*
X32644928Y-37649764D01*
X32644928Y-37649764D01*
G37*
G36*
X24926400Y-39379000D02*
G01*
X23924400Y-39379000D01*
X23924400Y-38477000D01*
X24926400Y-38477000D01*
X24926400Y-39379000D01*
X24926400Y-39379000D01*
G37*
G36*
X23169274Y-38129865D02*
G01*
X23206967Y-38141299D01*
X23241703Y-38159866D01*
X23272148Y-38184852D01*
X23297134Y-38215297D01*
X23315701Y-38250033D01*
X23327135Y-38287726D01*
X23331600Y-38333061D01*
X23331600Y-39169739D01*
X23327135Y-39215074D01*
X23315701Y-39252767D01*
X23297134Y-39287503D01*
X23272148Y-39317948D01*
X23241703Y-39342934D01*
X23206967Y-39361501D01*
X23169274Y-39372935D01*
X23123939Y-39377400D01*
X22037261Y-39377400D01*
X21991926Y-39372935D01*
X21954233Y-39361501D01*
X21919497Y-39342934D01*
X21889052Y-39317948D01*
X21864066Y-39287503D01*
X21845499Y-39252767D01*
X21834065Y-39215074D01*
X21829600Y-39169739D01*
X21829600Y-38333061D01*
X21834065Y-38287726D01*
X21845499Y-38250033D01*
X21864066Y-38215297D01*
X21889052Y-38184852D01*
X21919497Y-38159866D01*
X21954233Y-38141299D01*
X21991926Y-38129865D01*
X22037261Y-38125400D01*
X23123939Y-38125400D01*
X23169274Y-38129865D01*
X23169274Y-38129865D01*
G37*
G36*
X31460674Y-34813465D02*
G01*
X31498367Y-34824899D01*
X31533103Y-34843466D01*
X31563548Y-34868452D01*
X31588534Y-34898897D01*
X31607101Y-34933633D01*
X31618535Y-34971326D01*
X31623000Y-35016661D01*
X31623000Y-36103339D01*
X31618535Y-36148674D01*
X31607101Y-36186367D01*
X31588534Y-36221103D01*
X31563548Y-36251548D01*
X31533103Y-36276534D01*
X31498367Y-36295101D01*
X31460674Y-36306535D01*
X31415339Y-36311000D01*
X30578661Y-36311000D01*
X30533326Y-36306535D01*
X30495633Y-36295101D01*
X30460897Y-36276534D01*
X30430452Y-36251548D01*
X30405466Y-36221103D01*
X30386899Y-36186367D01*
X30375465Y-36148674D01*
X30371000Y-36103339D01*
X30371000Y-35016661D01*
X30375465Y-34971326D01*
X30386899Y-34933633D01*
X30405466Y-34898897D01*
X30430452Y-34868452D01*
X30460897Y-34843466D01*
X30495633Y-34824899D01*
X30533326Y-34813465D01*
X30578661Y-34809000D01*
X31415339Y-34809000D01*
X31460674Y-34813465D01*
X31460674Y-34813465D01*
G37*
G36*
X29410674Y-34813465D02*
G01*
X29448367Y-34824899D01*
X29483103Y-34843466D01*
X29513548Y-34868452D01*
X29538534Y-34898897D01*
X29557101Y-34933633D01*
X29568535Y-34971326D01*
X29573000Y-35016661D01*
X29573000Y-36103339D01*
X29568535Y-36148674D01*
X29557101Y-36186367D01*
X29538534Y-36221103D01*
X29513548Y-36251548D01*
X29483103Y-36276534D01*
X29448367Y-36295101D01*
X29410674Y-36306535D01*
X29365339Y-36311000D01*
X28528661Y-36311000D01*
X28483326Y-36306535D01*
X28445633Y-36295101D01*
X28410897Y-36276534D01*
X28380452Y-36251548D01*
X28355466Y-36221103D01*
X28336899Y-36186367D01*
X28325465Y-36148674D01*
X28321000Y-36103339D01*
X28321000Y-35016661D01*
X28325465Y-34971326D01*
X28336899Y-34933633D01*
X28355466Y-34898897D01*
X28380452Y-34868452D01*
X28410897Y-34843466D01*
X28445633Y-34824899D01*
X28483326Y-34813465D01*
X28528661Y-34809000D01*
X29365339Y-34809000D01*
X29410674Y-34813465D01*
X29410674Y-34813465D01*
G37*
G36*
X33889928Y-33052764D02*
G01*
X33911009Y-33059160D01*
X33930445Y-33069548D01*
X33947476Y-33083524D01*
X33961452Y-33100555D01*
X33971840Y-33119991D01*
X33978236Y-33141072D01*
X33981000Y-33169140D01*
X33981000Y-33632860D01*
X33978236Y-33660928D01*
X33971840Y-33682009D01*
X33961452Y-33701445D01*
X33947476Y-33718476D01*
X33930445Y-33732452D01*
X33911009Y-33742840D01*
X33889928Y-33749236D01*
X33861860Y-33752000D01*
X32048140Y-33752000D01*
X32020072Y-33749236D01*
X31998991Y-33742840D01*
X31979555Y-33732452D01*
X31962524Y-33718476D01*
X31948548Y-33701445D01*
X31938160Y-33682009D01*
X31931764Y-33660928D01*
X31929000Y-33632860D01*
X31929000Y-33169140D01*
X31931764Y-33141072D01*
X31938160Y-33119991D01*
X31948548Y-33100555D01*
X31962524Y-33083524D01*
X31979555Y-33069548D01*
X31998991Y-33059160D01*
X32020072Y-33052764D01*
X32048140Y-33050000D01*
X33861860Y-33050000D01*
X33889928Y-33052764D01*
X33889928Y-33052764D01*
G37*
G36*
X28939928Y-33052764D02*
G01*
X28961009Y-33059160D01*
X28980445Y-33069548D01*
X28997476Y-33083524D01*
X29011452Y-33100555D01*
X29021840Y-33119991D01*
X29028236Y-33141072D01*
X29031000Y-33169140D01*
X29031000Y-33632860D01*
X29028236Y-33660928D01*
X29021840Y-33682009D01*
X29011452Y-33701445D01*
X28997476Y-33718476D01*
X28980445Y-33732452D01*
X28961009Y-33742840D01*
X28939928Y-33749236D01*
X28911860Y-33752000D01*
X27098140Y-33752000D01*
X27070072Y-33749236D01*
X27048991Y-33742840D01*
X27029555Y-33732452D01*
X27012524Y-33718476D01*
X26998548Y-33701445D01*
X26988160Y-33682009D01*
X26981764Y-33660928D01*
X26979000Y-33632860D01*
X26979000Y-33169140D01*
X26981764Y-33141072D01*
X26988160Y-33119991D01*
X26998548Y-33100555D01*
X27012524Y-33083524D01*
X27029555Y-33069548D01*
X27048991Y-33059160D01*
X27070072Y-33052764D01*
X27098140Y-33050000D01*
X28911860Y-33050000D01*
X28939928Y-33052764D01*
X28939928Y-33052764D01*
G37*
G36*
X28939928Y-31782764D02*
G01*
X28961009Y-31789160D01*
X28980445Y-31799548D01*
X28997476Y-31813524D01*
X29011452Y-31830555D01*
X29021840Y-31849991D01*
X29028236Y-31871072D01*
X29031000Y-31899140D01*
X29031000Y-32362860D01*
X29028236Y-32390928D01*
X29021840Y-32412009D01*
X29011452Y-32431445D01*
X28997476Y-32448476D01*
X28980445Y-32462452D01*
X28961009Y-32472840D01*
X28939928Y-32479236D01*
X28911860Y-32482000D01*
X27098140Y-32482000D01*
X27070072Y-32479236D01*
X27048991Y-32472840D01*
X27029555Y-32462452D01*
X27012524Y-32448476D01*
X26998548Y-32431445D01*
X26988160Y-32412009D01*
X26981764Y-32390928D01*
X26979000Y-32362860D01*
X26979000Y-31899140D01*
X26981764Y-31871072D01*
X26988160Y-31849991D01*
X26998548Y-31830555D01*
X27012524Y-31813524D01*
X27029555Y-31799548D01*
X27048991Y-31789160D01*
X27070072Y-31782764D01*
X27098140Y-31780000D01*
X28911860Y-31780000D01*
X28939928Y-31782764D01*
X28939928Y-31782764D01*
G37*
G36*
X33889928Y-31782764D02*
G01*
X33911009Y-31789160D01*
X33930445Y-31799548D01*
X33947476Y-31813524D01*
X33961452Y-31830555D01*
X33971840Y-31849991D01*
X33978236Y-31871072D01*
X33981000Y-31899140D01*
X33981000Y-32362860D01*
X33978236Y-32390928D01*
X33971840Y-32412009D01*
X33961452Y-32431445D01*
X33947476Y-32448476D01*
X33930445Y-32462452D01*
X33911009Y-32472840D01*
X33889928Y-32479236D01*
X33861860Y-32482000D01*
X32048140Y-32482000D01*
X32020072Y-32479236D01*
X31998991Y-32472840D01*
X31979555Y-32462452D01*
X31962524Y-32448476D01*
X31948548Y-32431445D01*
X31938160Y-32412009D01*
X31931764Y-32390928D01*
X31929000Y-32362860D01*
X31929000Y-31899140D01*
X31931764Y-31871072D01*
X31938160Y-31849991D01*
X31948548Y-31830555D01*
X31962524Y-31813524D01*
X31979555Y-31799548D01*
X31998991Y-31789160D01*
X32020072Y-31782764D01*
X32048140Y-31780000D01*
X33861860Y-31780000D01*
X33889928Y-31782764D01*
X33889928Y-31782764D01*
G37*
G36*
X33889928Y-30512764D02*
G01*
X33911009Y-30519160D01*
X33930445Y-30529548D01*
X33947476Y-30543524D01*
X33961452Y-30560555D01*
X33971840Y-30579991D01*
X33978236Y-30601072D01*
X33981000Y-30629140D01*
X33981000Y-31092860D01*
X33978236Y-31120928D01*
X33971840Y-31142009D01*
X33961452Y-31161445D01*
X33947476Y-31178476D01*
X33930445Y-31192452D01*
X33911009Y-31202840D01*
X33889928Y-31209236D01*
X33861860Y-31212000D01*
X32048140Y-31212000D01*
X32020072Y-31209236D01*
X31998991Y-31202840D01*
X31979555Y-31192452D01*
X31962524Y-31178476D01*
X31948548Y-31161445D01*
X31938160Y-31142009D01*
X31931764Y-31120928D01*
X31929000Y-31092860D01*
X31929000Y-30629140D01*
X31931764Y-30601072D01*
X31938160Y-30579991D01*
X31948548Y-30560555D01*
X31962524Y-30543524D01*
X31979555Y-30529548D01*
X31998991Y-30519160D01*
X32020072Y-30512764D01*
X32048140Y-30510000D01*
X33861860Y-30510000D01*
X33889928Y-30512764D01*
X33889928Y-30512764D01*
G37*
G36*
X28939928Y-30512764D02*
G01*
X28961009Y-30519160D01*
X28980445Y-30529548D01*
X28997476Y-30543524D01*
X29011452Y-30560555D01*
X29021840Y-30579991D01*
X29028236Y-30601072D01*
X29031000Y-30629140D01*
X29031000Y-31092860D01*
X29028236Y-31120928D01*
X29021840Y-31142009D01*
X29011452Y-31161445D01*
X28997476Y-31178476D01*
X28980445Y-31192452D01*
X28961009Y-31202840D01*
X28939928Y-31209236D01*
X28911860Y-31212000D01*
X27098140Y-31212000D01*
X27070072Y-31209236D01*
X27048991Y-31202840D01*
X27029555Y-31192452D01*
X27012524Y-31178476D01*
X26998548Y-31161445D01*
X26988160Y-31142009D01*
X26981764Y-31120928D01*
X26979000Y-31092860D01*
X26979000Y-30629140D01*
X26981764Y-30601072D01*
X26988160Y-30579991D01*
X26998548Y-30560555D01*
X27012524Y-30543524D01*
X27029555Y-30529548D01*
X27048991Y-30519160D01*
X27070072Y-30512764D01*
X27098140Y-30510000D01*
X28911860Y-30510000D01*
X28939928Y-30512764D01*
X28939928Y-30512764D01*
G37*
G36*
X33889928Y-29242764D02*
G01*
X33911009Y-29249160D01*
X33930445Y-29259548D01*
X33947476Y-29273524D01*
X33961452Y-29290555D01*
X33971840Y-29309991D01*
X33978236Y-29331072D01*
X33981000Y-29359140D01*
X33981000Y-29822860D01*
X33978236Y-29850928D01*
X33971840Y-29872009D01*
X33961452Y-29891445D01*
X33947476Y-29908476D01*
X33930445Y-29922452D01*
X33911009Y-29932840D01*
X33889928Y-29939236D01*
X33861860Y-29942000D01*
X32048140Y-29942000D01*
X32020072Y-29939236D01*
X31998991Y-29932840D01*
X31979555Y-29922452D01*
X31962524Y-29908476D01*
X31948548Y-29891445D01*
X31938160Y-29872009D01*
X31931764Y-29850928D01*
X31929000Y-29822860D01*
X31929000Y-29359140D01*
X31931764Y-29331072D01*
X31938160Y-29309991D01*
X31948548Y-29290555D01*
X31962524Y-29273524D01*
X31979555Y-29259548D01*
X31998991Y-29249160D01*
X32020072Y-29242764D01*
X32048140Y-29240000D01*
X33861860Y-29240000D01*
X33889928Y-29242764D01*
X33889928Y-29242764D01*
G37*
G36*
X28939928Y-29242764D02*
G01*
X28961009Y-29249160D01*
X28980445Y-29259548D01*
X28997476Y-29273524D01*
X29011452Y-29290555D01*
X29021840Y-29309991D01*
X29028236Y-29331072D01*
X29031000Y-29359140D01*
X29031000Y-29822860D01*
X29028236Y-29850928D01*
X29021840Y-29872009D01*
X29011452Y-29891445D01*
X28997476Y-29908476D01*
X28980445Y-29922452D01*
X28961009Y-29932840D01*
X28939928Y-29939236D01*
X28911860Y-29942000D01*
X27098140Y-29942000D01*
X27070072Y-29939236D01*
X27048991Y-29932840D01*
X27029555Y-29922452D01*
X27012524Y-29908476D01*
X26998548Y-29891445D01*
X26988160Y-29872009D01*
X26981764Y-29850928D01*
X26979000Y-29822860D01*
X26979000Y-29359140D01*
X26981764Y-29331072D01*
X26988160Y-29309991D01*
X26998548Y-29290555D01*
X27012524Y-29273524D01*
X27029555Y-29259548D01*
X27048991Y-29249160D01*
X27070072Y-29242764D01*
X27098140Y-29240000D01*
X28911860Y-29240000D01*
X28939928Y-29242764D01*
X28939928Y-29242764D01*
G37*
M02*
