M48
; DRILL file {KiCad 5.1.2-f72e74a~84~ubuntu16.04.1} date Fri 21 Jun 2019 02:30:27 PM CEST
; FORMAT={-:-/ absolute / inch / decimal}
; #@! TF.CreationDate,2019-06-21T14:30:27+02:00
; #@! TF.GenerationSoftware,Kicad,Pcbnew,5.1.2-f72e74a~84~ubuntu16.04.1
; #@! TF.FileFunction,Plated,1,2,PTH
FMAT,2
INCH
T1C0.0157
%
G90
G05
T1
X0.892Y-1.752
X0.92Y-1.46
X0.9449Y-1.5748
X0.983Y-1.085
X0.9921Y-1.1709
X0.9921Y-1.2006
X0.9921Y-1.2303
X0.9921Y-1.26
X1.04Y-1.736
X1.049Y-0.955
X1.063Y-1.0524
X1.108Y-1.5561
X1.1486Y-1.1312
X1.1557Y-1.216
X1.168Y-1.315
X1.1753Y-1.3665
X1.2Y-1.522
X1.243Y-1.525
X1.33Y-1.834
X1.374Y-1.832
X1.388Y-1.629
X1.3913Y-1.3736
X1.426Y-1.217
X1.455Y-1.231
X1.455Y-1.264
X1.455Y-1.298
T0
M30
